<svg fill="#ffffff" id="Layer_1" enable-background="new 0 0 512 512" height="512" viewBox="0 0 512 512" width="512" xmlns="http://www.w3.org/2000/svg">
    <path d="m441 176v-76c0-55.14-44.86-100-100-100h-250c-11.046 0-20 8.954-20 20v472c0 11.046 8.954 20 20 20h250c55.14 0 100-44.86 100-100v-76c0-32.676-15.752-61.741-40.063-80 24.311-18.259 40.063-47.324 40.063-80zm-40 160v76c0 33.084-26.916 60-60 60h-230v-196h230c33.084 0 60 26.916 60 60zm0-160c0 33.084-26.916 60-60 60h-230v-196h230c33.084 0 60 26.916 60 60z"/>
</svg>