<?xml version="1.0" encoding="utf-8"?>
<!-- Generator: Adobe Illustrator 24.0.0, SVG Export Plug-In . SVG Version: 6.00 Build 0)  -->
<svg version="1.1" id="Capa_1" xmlns="http://www.w3.org/2000/svg" xmlns:xlink="http://www.w3.org/1999/xlink" x="0px" y="0px"
	 viewBox="0 0 512 512" style="enable-background:new 0 0 512 512;" xml:space="preserve">
<style type="text/css">
	.st0{fill:#FFFFFF;stroke:#FFFFFF;stroke-miterlimit:10;}
</style>
<path class="st0" d="M256,512c-14,0-27.8-3.7-39.8-10.6L63.3,413.2c-24.6-14.2-39.9-40.7-39.9-69.1V167.9
	c0-28.4,15.3-54.9,39.9-69.1l152.9-88.2C228.2,3.7,242,0,256,0c14,0,27.8,3.7,39.8,10.6l152.9,88.2c24.6,14.2,39.9,40.7,39.9,69.1
	v176.2c0,28.4-15.3,54.9-39.9,69.1l-152.9,88.2C283.8,508.3,270,512,256,512C256,512,256,512,256,512z M256,32.5
	c-8.3,0-16.5,2.2-23.6,6.3L79.5,127c-14.6,8.4-23.6,24.1-23.6,40.9v176.2c0,16.8,9.1,32.5,23.6,40.9l152.9,88.2
	c7.1,4.1,15.3,6.3,23.6,6.3c8.3,0,16.4-2.2,23.6-6.3L432.5,385c14.6-8.4,23.6-24.1,23.6-40.9V167.9c0-16.8-9.1-32.5-23.6-40.9
	L279.6,38.8C272.5,34.7,264.3,32.5,256,32.5z"/>
<path class="st0" d="M277.1,189.4c-8.4-2.3-17,2.6-19.3,10.9L222.9,326c-2.3,8.4,2.6,17,10.9,19.3c1.4,0.4,2.8,0.6,4.2,0.6
	c6.9,0,13.2-4.6,15.1-11.5l34.9-125.7C290.4,200.4,285.5,191.7,277.1,189.4z"/>
<path class="st0" d="M190.1,192.4c-6.7-5.5-16.6-4.6-22.1,2l-52.4,63c-4.8,5.8-4.8,14.3,0,20.1l52.4,62.7c3.1,3.7,7.6,5.6,12.1,5.6
	c3.6,0,7.1-1.2,10.1-3.7c6.7-5.6,7.5-15.5,2-22.1l-44-52.7l44-52.9C197.7,207.9,196.8,198,190.1,192.4z"/>
<path class="st0" d="M396.3,257.1L344,194.4c-5.6-6.7-15.5-7.5-22.1-2c-6.7,5.6-7.5,15.5-2,22.1l44,52.7l-44,52.9
	c-5.5,6.7-4.6,16.6,2,22.1c2.9,2.4,6.5,3.6,10,3.6c4.5,0,9-1.9,12.1-5.7l52.4-63C401.2,271.4,401.2,263,396.3,257.1z"/>
</svg>
