<?xml version="1.0" encoding="utf-8"?>
<!-- Generator: Adobe Illustrator 24.0.0, SVG Export Plug-In . SVG Version: 6.00 Build 0)  -->
<svg version="1.1" id="Capa_1" xmlns="http://www.w3.org/2000/svg" xmlns:xlink="http://www.w3.org/1999/xlink" x="0px" y="0px"
	 viewBox="0 0 230.1 230.1" style="enable-background:new 0 0 230.1 230.1;" xml:space="preserve">
<style type="text/css">
	.st0{fill:#FFFFFF;}
</style>
<path class="st0" d="M228.6,80.3l-32.1-41.3c-7.8-10-19.6-15.8-32.3-15.8h-21.2c-2.9,0-5.6,1.8-6.6,4.6
	c-3.3,8.9-11.8,14.9-21.3,14.9s-18.1-6-21.3-14.9c-1-2.8-3.6-4.6-6.6-4.6H65.9c-12.7,0-24.5,5.8-32.3,15.8L1.5,80.3
	c-1.4,1.8-1.8,4.2-1.2,6.3s2.3,3.9,4.5,4.6l44.6,14.8v94.7c0,3.9,3.1,7,7,7h117.4c3.9,0,7-3.1,7-7v-94.7l44.6-14.8
	c2.2-0.7,3.8-2.4,4.5-4.6C230.4,84.5,230,82.1,228.6,80.3z M180.7,91.3V81.1c0-3.9-3.1-7-7-7s-7,3.1-7,7v112.7H63.3V81.1
	c0-3.9-3.1-7-7-7s-7,3.1-7,7v10.3L18.6,81.1l26.1-33.4c5.1-6.6,12.9-10.4,21.3-10.4h16.7c6.3,11.8,18.8,19.5,32.4,19.5
	s26.1-7.7,32.4-19.5h16.7c8.4,0,16.1,3.8,21.3,10.4l26.1,33.4L180.7,91.3z"/>
</svg>
