<?xml version="1.0" encoding="utf-8"?>
<!-- Generator: Adobe Illustrator 24.0.0, SVG Export Plug-In . SVG Version: 6.00 Build 0)  -->
<svg version="1.1" id="Capa_1" xmlns="http://www.w3.org/2000/svg" xmlns:xlink="http://www.w3.org/1999/xlink" x="0px" y="0px"
	 viewBox="0 0 209.3 209.3" style="enable-background:new 0 0 209.3 209.3;" xml:space="preserve">
<style type="text/css">
	.st0{fill:#FFFFFF;}
</style>
<path class="st0" d="M105.6,209.3c-43.6,0-82.8-27.6-97.5-68.6l0-0.1c-0.1-0.2-0.2-0.4-0.2-0.7l0-0.1c-3.8-11-5.8-22.4-5.8-34.1
	s1.9-23.1,5.8-34.1l0-0.1c0.1-0.2,0.2-0.5,0.2-0.7l0-0.1C22.9,29.6,62.1,2,105.6,2c43.6,0,82.8,27.6,97.5,68.6l0,0.1
	c0.1,0.2,0.2,0.5,0.2,0.7l0,0.1c3.8,11,5.8,22.4,5.8,34.1c0,11.7-1.9,23.1-5.8,34.1l0,0.1c-0.1,0.2-0.1,0.5-0.2,0.7l0,0.1
	C188.4,181.7,149.2,209.3,105.6,209.3z M81.5,146.2c1.6,10,3.7,19.1,6.3,27c5.1,15.4,12,24.9,17.8,24.9c5.9,0,12.7-9.6,17.9-24.9
	c2.6-7.9,4.8-17,6.3-27l0.4-2.3H81.1L81.5,146.2z M141.1,145.6c-2.8,19.2-7.5,35.3-13.6,46.4l-2.3,4.2l4.6-1.2
	c25.5-6.9,46.8-24.5,58.7-48.1l1.5-2.9h-48.6L141.1,145.6z M22.8,146.8C34.6,170.5,56,188.1,81.4,195l4.6,1.2l-2.3-4.2
	c-6.1-11.1-10.8-27.2-13.6-46.4l-0.3-1.7H21.3L22.8,146.8z M142.8,80.7c0.7,8.2,1.1,16.6,1.1,25s-0.4,16.8-1.1,25l-0.2,2.2h51.5
	l0.4-1.5c2.4-8.3,3.6-17,3.6-25.7c0-8.7-1.2-17.4-3.6-25.7l-0.4-1.5h-51.5L142.8,80.7z M16.7,80c-2.4,8.3-3.6,17-3.6,25.7
	c0,8.7,1.2,17.4,3.6,25.7l0.4,1.5h51.5l-0.2-2.2c-0.7-8.2-1.1-16.6-1.1-25c0-8.4,0.4-16.8,1.1-25l0.2-2.2H17.2L16.7,80z M79.6,80.3
	c-0.7,8.3-1.1,16.8-1.1,25.3c0,8.5,0.4,17.1,1.1,25.3l0.2,1.8h51.7l0.2-1.8c0.7-8.3,1.1-16.8,1.1-25.3s-0.4-17-1.1-25.3l-0.2-1.8
	H79.8L79.6,80.3z M127.5,19.2c6.1,11.1,10.8,27.2,13.6,46.4l0.3,1.7h48.6l-1.5-2.9c-11.8-23.7-33.2-41.2-58.7-48.1l-4.6-1.2
	L127.5,19.2z M81.4,16.3C56,23.2,34.6,40.8,22.8,64.5l-1.5,2.9h48.6l0.3-1.7c2.8-19.2,7.5-35.3,13.6-46.4l2.3-4.2L81.4,16.3z
	 M105.6,13.1c-5.9,0-12.7,9.6-17.9,24.9c-2.6,7.9-4.8,17-6.3,27l-0.4,2.3h49.1l-0.4-2.3c-1.6-10-3.7-19.1-6.3-27
	C118.4,22.7,111.5,13.1,105.6,13.1z"/>
</svg>
