<?xml version="1.0" encoding="utf-8"?>
<!-- Generator: Adobe Illustrator 24.0.0, SVG Export Plug-In . SVG Version: 6.00 Build 0)  -->
<svg version="1.1" id="Layer_1" xmlns="http://www.w3.org/2000/svg" xmlns:xlink="http://www.w3.org/1999/xlink" x="0px" y="0px"
	 viewBox="0 0 512 512" style="enable-background:new 0 0 512 512;" xml:space="preserve">
<style type="text/css">
	.st0{fill:#FFFFFF;}
</style>
<path class="st0" d="M338,101.5c0-11,9-20,20-20s20,9,20,20s-9,20-20,20S338,112.5,338,101.5z M408,101.5c0-11,9-20,20-20
	s20,9,20,20s-9,20-20,20S408,112.5,408,101.5z"/>
<path class="st0" d="M56.9,494.7C25.5,494.7,0,469.2,0,437.8V80.2c0-31.4,25.5-56.9,56.9-56.9h398.2c31.4,0,56.9,25.5,56.9,56.9
	v357.6c0,31.4-25.5,56.9-56.9,56.9H56.9z M32.5,437.8c0,13.4,10.9,24.4,24.4,24.4h398.2c13.4,0,24.4-10.9,24.4-24.4V177.7h-447
	V437.8z M56.9,55.8c-13.4,0-24.4,10.9-24.4,24.4v65h447v-65c0-13.4-10.9-24.4-24.4-24.4H56.9z"/>
</svg>
