<?xml version="1.0" encoding="utf-8"?>
<!-- Generator: Adobe Illustrator 24.0.0, SVG Export Plug-In . SVG Version: 6.00 Build 0)  -->
<svg version="1.1" id="Layer_1" xmlns="http://www.w3.org/2000/svg" xmlns:xlink="http://www.w3.org/1999/xlink" x="0px" y="0px"
	 viewBox="0 0 305 305" style="enable-background:new 0 0 305 305;" xml:space="preserve">
<style type="text/css">
	.st0{fill:#FFFFFF;}
</style>
<g id="XMLID_7_">
	<path id="XMLID_8_" class="st0" d="M151.3,59.4c-17.4,10.4-37.1,22.2-47.7,41.8c-18.4,34.1,37.6,71.3,40,72.9
		c0.6,0.4,1.2,0.5,1.9,0.5c0.7,0,1.4-0.2,2-0.6c1.1-0.8,1.4-2.1,0.8-3.2c-0.2-0.3-20.3-33.5-19.5-57.4c0.3-8.3,13.9-17.7,28.3-27.7
		c13.2-9.1,28.2-19.5,37-31.6c19.2-26.6-2.1-52.8-2.4-53.1c-0.8-1-2.4-1.4-3.8-0.9c-1.3,0.5-2.1,1.7-1.8,3c0,0.2,4.2,17.5-7.4,35.3
		C173.9,45.9,163.5,52.2,151.3,59.4z"/>
	<path id="XMLID_9_" class="st0" d="M224.7,71.2c1.2-0.8,1.6-2.2,0.8-3.4c-0.7-1.1-2.4-1.7-3.8-1.2c-3,1-72.4,23.8-72.4,51.3
		c0,19,9.5,29,16.5,36.3c2.7,2.9,5.1,5.4,5.9,7.5c2.2,6.1-3,17.1-5.2,20.9c-0.6,1.1-0.3,2.4,0.7,3.2c0.6,0.4,1.3,0.6,2,0.6
		c0.6,0,1.2-0.2,1.8-0.5c1.2-0.7,29.2-17.6,24.2-37.9c-1.9-7.7-6.3-13.4-10.3-18.3c-6.1-7.7-10.5-13.3-3.8-23.6
		C188.9,94.2,224.3,71.4,224.7,71.2z"/>
	<path id="XMLID_10_" class="st0" d="M43.9,186.8c-1.2,3-0.6,6,1.6,8.7c7.5,8.9,34.2,13.8,75.1,13.8c0,0,0,0,0,0
		c5.5,0,11.4-0.1,17.4-0.3c65.4-2,89.6-19.3,90.6-20.1c1.1-0.8,1.4-2.1,0.7-3.2c-0.7-1.1-2.1-1.6-3.5-1.3c-23,5.4-66,7.3-95.8,7.3
		c-33.4,0-50.4-2-54.5-3.6c2.1-2.5,15.3-7,31.6-9.7c1.6-0.3,2.6-1.5,2.5-2.8c-0.2-1.3-1.5-2.4-3.1-2.4
		C96.9,173.3,48.9,173.9,43.9,186.8z"/>
	<path id="XMLID_11_" class="st0" d="M262.7,169c-13.5,0-26.3,5.8-26.8,6c-1.2,0.6-1.9,1.8-1.5,3c0.3,1.2,1.6,2,3,2
		c0.3,0,28.8,0.2,31.3,14.1c2.3,12-26.9,31.3-38.4,37.8c-1.2,0.7-1.7,2-1.1,3.2c0.5,1,1.6,1.6,2.8,1.6c0.2,0,0.4,0,0.6-0.1
		c2.7-0.5,66.5-12.5,59.8-44.1C288.2,173,273.9,169,262.7,169z"/>
	<path id="XMLID_12_" class="st0" d="M218.9,227.9c0.2-1-0.3-2-1.3-2.6l-15.3-9.1c-0.7-0.4-1.7-0.6-2.6-0.4
		c-0.2,0-16.2,3.6-39.4,5.8c-9.2,0.9-19.5,1.3-29.9,1.3c-23.2,0-38.4-2.3-40.6-4c-0.3-0.5-0.2-0.7-0.1-0.8c0.4-1,2.6-2.1,3.9-2.5
		c1.5-0.5,2.4-1.9,1.9-3.2c-0.5-1.3-2.1-2.1-3.7-1.8c-15.3,3.2-22.8,7.6-22.3,13.1c1,9.8,27.7,14.9,50.3,16.2
		c3.2,0.2,6.8,0.3,10.4,0.3c0,0,0,0,0,0c37.6,0,85.7-10,86.2-10.1C217.8,229.7,218.7,228.9,218.9,227.9z"/>
	<path id="XMLID_13_" class="st0" d="M103.6,249c1.2-0.6,1.7-1.9,1.3-3c-0.4-1.1-1.6-1.9-3-1.8c-2.1,0-20.1,0.7-21.4,10.5
		c-0.4,2.9,0.6,5.6,2.9,7.9c6.5,6.5,24,10.4,53.5,11.9c3.5,0.2,7,0.3,10.5,0.3c37.5,0,62.8-10,63.9-10.4c1-0.4,1.7-1.3,1.8-2.2
		c0.1-1-0.5-1.9-1.5-2.4l-19.3-10c-0.7-0.3-1.5-0.5-2.2-0.3c-0.1,0-12.4,2.2-30.9,4.3c-3.5,0.4-7.9,0.6-13,0.6
		c-18.5,0-39.1-2.6-43-4.3C103,249.7,103.1,249.3,103.6,249z"/>
	<path id="XMLID_14_" class="st0" d="M130,305c86-0.1,132.1-13.1,141-21.3c3.1-2.9,3.5-5.6,3.2-7.4c-0.7-4.4-5.4-7.1-5.9-7.4
		c-1.3-0.7-3-0.5-4,0.5c-1,1-1,2.4,0,3.4c0.5,0.6,0.9,1.6-0.7,2.9c-3.6,2.8-39.4,11.4-99.1,14c-8.2,0.4-16.7,0.5-25.5,0.5
		c-53.4,0-92.5-6.2-97.7-9.9c2-2.4,15.8-6.3,30.5-8.5c1.7-0.2,2.8-1.6,2.5-3s-1.8-2.4-3.5-2.2c-0.4,0-1.8,0.1-3.5,0.2
		c-24.3,1.3-52.3,4.1-53.8,14.7c-0.4,3.2,0.7,6.2,3.4,8.8C23.6,296.7,42.4,305,130,305C130,305,130,305,130,305z"/>
</g>
</svg>
