<?xml version="1.0" encoding="utf-8"?>
<!-- Generator: Adobe Illustrator 24.0.0, SVG Export Plug-In . SVG Version: 6.00 Build 0)  -->
<svg version="1.1" id="Layer_1" xmlns="http://www.w3.org/2000/svg" xmlns:xlink="http://www.w3.org/1999/xlink" x="0px" y="0px"
	 viewBox="0 0 500 500" style="enable-background:new 0 0 500 500;" xml:space="preserve">
<style type="text/css">
	.st0{fill:#F5F5F5;}
	.st1{fill:#E0E0E0;}
	.st2{fill:#5688E9;}
	.st3{opacity:0.15;enable-background:new    ;}
	.st4{fill:#FFFFFF;}
	.st5{opacity:0.25;enable-background:new    ;}
	.st6{opacity:0.3;enable-background:new    ;}
	.st7{opacity:0.2;enable-background:new    ;}
	.st8{fill:#37474F;}
	.st9{fill:#455A64;}
	.st10{fill:#263238;}
	.st11{opacity:0.9;fill:#455A64;enable-background:new    ;}
	.st12{opacity:0.6;}
	.st13{opacity:0.9;fill:#263238;enable-background:new    ;}
	.st14{opacity:0.5;}
	.st15{opacity:0.6;fill:#FFFFFF;enable-background:new    ;}
	.st16{fill:#FFC7A7;}
	.st17{fill:#F29B8F;}
	.st18{opacity:0.8;fill:#FFFFFF;enable-background:new    ;}
	.st19{fill:#FAFAFA;}
	.st20{opacity:0.1;enable-background:new    ;}
	.st21{opacity:0.7;fill:#FFFFFF;enable-background:new    ;}
	.st22{opacity:0.3;fill:#FFFFFF;enable-background:new    ;}
</style>
<g id="freepik--Floor--inject-25">
	<ellipse id="freepik--floor--inject-25" class="st0" cx="251.7" cy="356.2" rx="241.4" ry="136.2"/>
</g>
<g id="freepik--Shadows--inject-25">
	<ellipse id="freepik--Shadow--inject-25" class="st1" cx="74.7" cy="395.5" rx="45.8" ry="26.5"/>
	<path id="freepik--shadow--inject-25" class="st1" d="M289,468.4L59,335.6c-0.2-0.1-0.4-0.2-0.5-0.5c-0.1-0.4,0.1-0.8,0.5-0.9
		l150.7-87c2.6-1.3,5.7-1.3,8.3,0l221.1,127.6c5.5,3.2,5.5,8.4,0,11.6l-141.8,81.9C294.7,469.8,291.6,469.8,289,468.4z"/>
</g>
<g id="freepik--Plant--inject-25">
	<g id="freepik--Plants--inject-25">
		<path class="st2" d="M429.4,348.8c2.9-26.7,20.8-38.3,30.2-47.6s-1.3-16.7-11.5-13.3S428.9,302,424,316.6
			c-4.9,14.6-4.3,31.8-4.3,31.8L429.4,348.8z"/>
		<path class="st3" d="M429.4,348.8c2.9-26.7,20.8-38.3,30.2-47.6s-1.3-16.7-11.5-13.3S428.9,302,424,316.6
			c-4.9,14.6-4.3,31.8-4.3,31.8L429.4,348.8z"/>
		<path class="st4" d="M423.9,342.4c4.1-29.1,21.6-45.3,30.4-49.8c0.3-0.1,0.4-0.5,0.2-0.8c0,0,0,0,0,0c-0.1-0.3-0.5-0.4-0.8-0.2
			c-8.9,4.6-26.9,21-31,50.6c0,0.3,0.2,0.6,0.5,0.6h0.1C423.6,342.9,423.9,342.7,423.9,342.4z"/>
		<path class="st2" d="M468.9,323.9c-2.6-2.3-6.2-2.8-9.5-2.1c-3.4,0.7-6.5,2.4-9.7,3.4s-6.6-0.5-10-0.1c-2.9,0.4-5.9,1.9-7.2,4.5
			c-1,1.9-1,4.1-1.2,6.2c-0.2,2.1-0.7,4.4-2.3,5.8c-1.3,1.2-3.1,1.5-4.7,2.2c-7.5,3.2-12.6,13.4-8.3,19.8l16,9.3
			c4.8,1.9,11.4-0.2,14.5-4.5c1.7-2.2,1.4-5.4,2-7.9c0.6-2.4,2.4-4.8,4.9-5.3c3.6-0.7,7.7,0.4,10.4-1.1c2.8-1.5,2.9-4.5,2.3-6.7
			c-0.8-3-3.8-5.5-2.9-8.8c0.5-2.1,2.4-3.4,4.1-4.7s3.5-2.8,3.8-4.9C471.4,327,470.5,325.1,468.9,323.9z"/>
		<path class="st4" d="M426.3,366.5C426.3,366.5,426.3,366.5,426.3,366.5c0,0.3,0.2,0.5,0.5,0.5l0,0c0.3,0,0.5-0.2,0.5-0.4
			c0.5-8.8,3.9-17.2,9.6-23.9c7.3-2.1,15-0.8,21.3,3.4c0.1,0.1,0.2,0.1,0.3,0.1c0.2,0,0.3-0.1,0.4-0.2c0,0,0,0,0,0
			c0.2-0.2,0.1-0.5-0.1-0.7c-6.1-4.1-13.6-5.5-20.8-3.9c9.6-10.4,22.6-14.5,27-15c0.3,0,0.4-0.3,0.4-0.5c0-0.3-0.3-0.4-0.5-0.4
			c-4.6,0.6-18.7,5-28.5,16.3c-0.1,0-0.1,0.1-0.2,0.2C430.3,348.8,426.8,357.4,426.3,366.5z"/>
	</g>
</g>
<g id="freepik--Gears--inject-25">
	<g id="freepik--gears--inject-25">
		<path class="st5" d="M192.4,149l1.7,1.3c0.1,0.1,0.2,0.2,0.4,0.2c0.5,0.1,1.1-0.2,1.2-0.7l1.3-4.3c0-0.1,0-0.1,0.1-0.2
			c0.3-0.6,1.1-0.9,1.7-0.6c0.8,0.3,1.6,0.6,2.4,0.8c0.9,0.3,1.7,0.8,2.2,1.6l3.6,6.9c0.4,0.8,1.3,1.2,2.2,1l3.8-0.9
			c0.1,0,0.2,0,0.2-0.1c0.7-0.3,1-1,0.7-1.7l-2.6-7c-0.2-0.9,0-1.8,0.6-2.4c0.4-0.4,0.7-0.8,1-1.2c0.4-0.7,1.3-0.9,2-0.5l5.1,3.3
			c0.2,0.1,0.4,0.2,0.6,0.2c0.5,0,0.9-0.4,0.9-0.9l1-5.5c0.1-0.9-0.2-1.8-0.9-2.5l-5.1-4.7c-0.7-0.7-1.1-1.6-1.2-2.5
			c-0.1-1.2-0.3-2.5-0.6-3.7c-0.2-0.8,0.2-1.6,1-2l3-1.3c0,0,0,0,0.1,0c0.7-0.3,1.1-1.2,0.7-2L216,112c-0.4-0.8-1.2-1.3-2.1-1.3
			l-3.7,0.2c-0.9,0-1.8-0.4-2.3-1.2c-0.8-1.2-1.7-2.4-2.6-3.5c-0.6-0.8-0.9-1.7-0.9-2.6l0.4-5.4c0-0.9-0.4-1.8-1.1-2.4l-5.7-4.5
			c-0.1-0.1-0.3-0.2-0.4-0.2c-0.5-0.1-1.1,0.2-1.2,0.7l-1.3,4.3c0,0.1,0,0.1-0.1,0.2c-0.3,0.7-1.1,0.9-1.7,0.6
			c-0.2-0.1-0.4-0.2-0.7-0.2v9.6c2,0.5,3.9,1.4,5.6,2.8c6.2,4.9,10.3,14.1,9.2,20.6s-7.1,7.9-13.3,3c-0.5-0.4-1-0.8-1.5-1.3
			L192.4,149z"/>
		<path class="st2" d="M129.7,51.9c0.2-0.1,0.5-0.1,0.8,0.1l3.7,2.5c0,0,0,0,0,0c0.5,0.3,1.2,0.2,1.5-0.3c0.2-0.3,0.5-0.6,0.7-0.9
			c0.5-0.5,0.6-1.2,0.4-1.8l-0.4-1l-1.6-1.1c-0.2-0.2-0.5-0.2-0.8-0.1l0,0L129.7,51.9z M146.7,78.3c4,3.1,7.8,2.8,9.3-0.4
			c-1.8-0.2-3.4-1-4.8-2.2c-4.6-3.6-7.6-10.4-6.8-15.2c0.1-0.6,0.3-1.2,0.5-1.8c-2.5-0.2-4.5,1.3-5,4.3
			C139.1,67.9,142.1,74.7,146.7,78.3z M135.4,45.1c0.1-0.1,0.2-0.1,0.3-0.1l2.8-0.6c0.6-0.1,1.3,0.2,1.6,0.7l2.6,5.1
			c0.2,0.3,0.4,0.5,0.6,0.7c0.3,0.2,0.6,0.4,1,0.5c0.6,0.1,1.2,0.3,1.7,0.6c0,0,0,0,0.1,0c0.5,0.2,1.1-0.1,1.3-0.6l0.8-2.8
			c-0.2-0.1-0.3-0.2-0.5-0.3l0,0c-0.2-0.2-0.4-0.4-0.6-0.7l-2.7-5.1c-0.3-0.6-1-0.9-1.6-0.7l-2.8,0.6c-0.1,0-0.2,0.1-0.3,0.1l0,0
			L135.4,45.1z M152.2,89L152.2,89c0.2-0.1,0.3-0.3,0.4-0.5l0.1-0.4c-0.2-0.1-0.4-0.2-0.5-0.2c-0.6-0.1-1.2-0.3-1.7-0.6
			c0,0,0,0-0.1,0c-0.5-0.2-1.1,0.1-1.3,0.6l-1,3.2c0,0.2-0.1,0.3-0.3,0.4L152.2,89z M148.7,47.5c0.3-0.1,0.6-0.1,0.8,0.1l4.2,3.3
			c0.3,0.3,0.6,0.7,0.7,1.1c0.1,0.2,0.1,0.5,0.1,0.7l-0.2,4c0,0.7,0.2,1.4,0.7,1.9c0.7,0.8,1.4,1.7,2,2.6c0.2,0.3,0.6,0.6,0.9,0.7
			c0.2,0.1,0.5,0.2,0.8,0.2l2.7-0.1c0.4,0,0.8,0.1,1.1,0.4c0.2,0.2,0.3,0.3,0.4,0.6l2.6,5.7c0.2,0.6,0,1.2-0.6,1.5l-2.2,0.9
			c-0.6,0.3-0.9,0.9-0.8,1.5c0.2,0.9,0.4,1.8,0.5,2.7c0.1,0.7,0.4,1.4,0.9,1.9l0,0l3.7,3.4c0.3,0.3,0.5,0.7,0.6,1.1
			c0.1,0.3,0.1,0.5,0,0.8l-0.7,4.1c0,0.2-0.1,0.4-0.3,0.5l4.4-2.6c0.2-0.1,0.3-0.3,0.3-0.6l0.7-4.1c0.1-0.5,0-1-0.3-1.4
			c0-0.1-0.1-0.2-0.1-0.2l0,0c-0.1-0.1-0.1-0.1-0.2-0.2l-3.7-3.4l0,0c-0.5-0.5-0.8-1.2-0.9-1.9c-0.1-0.9-0.3-1.8-0.5-2.7
			c-0.1-0.3,0-0.5,0.1-0.8l3-1.7c0.5-0.3,0.7-0.9,0.4-1.4l-2.6-5.7c-0.1-0.2-0.2-0.4-0.4-0.6c-0.1-0.1-0.3-0.2-0.4-0.2
			c-0.1,0-0.1-0.1-0.2-0.1l0,0c-0.1,0-0.1,0-0.2,0c-0.1,0-0.1,0-0.2,0h-0.1l-2.7,0.1c-0.1,0-0.2,0-0.2,0h-0.2
			c-0.1,0-0.3-0.1-0.4-0.1c-0.4-0.1-0.7-0.4-0.9-0.7c-0.6-0.9-1.3-1.8-2-2.6c-0.4-0.6-0.7-1.3-0.7-2l0.2-4c0-0.2,0-0.5-0.1-0.7l0,0
			c0-0.1,0-0.1,0-0.2c-0.1-0.2-0.2-0.5-0.4-0.7c0,0-0.1-0.1-0.1-0.1l-0.2-0.2l-4.2-3.3c-0.1-0.1-0.3-0.2-0.5-0.2
			c-0.1,0-0.2,0-0.3,0.1L148.7,47.5z M161.4,93c0.2,0.4,0,0.9-0.4,1.2l4.5-2.6l0,0c0.4-0.2,0.6-0.7,0.4-1.2l-1.6-4.2l-2.2-1.4
			c-0.5-0.3-1.2-0.2-1.5,0.3c-0.2,0.3-0.5,0.6-0.7,0.9c-0.5,0.5-0.6,1.1-0.5,1.8L161.4,93z"/>
		<path class="st6" d="M129.7,51.9c0.2-0.1,0.5-0.1,0.8,0.1l3.7,2.5c0,0,0,0,0,0c0.5,0.3,1.2,0.2,1.5-0.3c0.2-0.3,0.5-0.6,0.7-0.9
			c0.5-0.5,0.6-1.2,0.4-1.8l-0.4-1l-1.6-1.1c-0.2-0.2-0.5-0.2-0.8-0.1l0,0L129.7,51.9z M146.7,78.3c4,3.1,7.8,2.8,9.3-0.4
			c-1.8-0.2-3.4-1-4.8-2.2c-4.6-3.6-7.6-10.4-6.8-15.2c0.1-0.6,0.3-1.2,0.5-1.8c-2.5-0.2-4.5,1.3-5,4.3
			C139.1,67.9,142.1,74.7,146.7,78.3z M135.4,45.1c0.1-0.1,0.2-0.1,0.3-0.1l2.8-0.6c0.6-0.1,1.3,0.2,1.6,0.7l2.6,5.1
			c0.2,0.3,0.4,0.5,0.6,0.7c0.3,0.2,0.6,0.4,1,0.5c0.6,0.1,1.2,0.3,1.7,0.6c0,0,0,0,0.1,0c0.5,0.2,1.1-0.1,1.3-0.6l0.8-2.8
			c-0.2-0.1-0.3-0.2-0.5-0.3l0,0c-0.2-0.2-0.4-0.4-0.6-0.7l-2.7-5.1c-0.3-0.6-1-0.9-1.6-0.7l-2.8,0.6c-0.1,0-0.2,0.1-0.3,0.1l0,0
			L135.4,45.1z M152.2,89L152.2,89c0.2-0.1,0.3-0.3,0.4-0.5l0.1-0.4c-0.2-0.1-0.4-0.2-0.5-0.2c-0.6-0.1-1.2-0.3-1.7-0.6
			c0,0,0,0-0.1,0c-0.5-0.2-1.1,0.1-1.3,0.6l-1,3.2c0,0.2-0.1,0.3-0.3,0.4L152.2,89z M148.7,47.5c0.3-0.1,0.6-0.1,0.8,0.1l4.2,3.3
			c0.3,0.3,0.6,0.7,0.7,1.1c0.1,0.2,0.1,0.5,0.1,0.7l-0.2,4c0,0.7,0.2,1.4,0.7,1.9c0.7,0.8,1.4,1.7,2,2.6c0.2,0.3,0.6,0.6,0.9,0.7
			c0.2,0.1,0.5,0.2,0.8,0.2l2.7-0.1c0.4,0,0.8,0.1,1.1,0.4c0.2,0.2,0.3,0.3,0.4,0.6l2.6,5.7c0.2,0.6,0,1.2-0.6,1.5l-2.2,0.9
			c-0.6,0.3-0.9,0.9-0.8,1.5c0.2,0.9,0.4,1.8,0.5,2.7c0.1,0.7,0.4,1.4,0.9,1.9l0,0l3.7,3.4c0.3,0.3,0.5,0.7,0.6,1.1
			c0.1,0.3,0.1,0.5,0,0.8l-0.7,4.1c0,0.2-0.1,0.4-0.3,0.5l4.4-2.6c0.2-0.1,0.3-0.3,0.3-0.6l0.7-4.1c0.1-0.5,0-1-0.3-1.4
			c0-0.1-0.1-0.2-0.1-0.2l0,0c-0.1-0.1-0.1-0.1-0.2-0.2l-3.7-3.4l0,0c-0.5-0.5-0.8-1.2-0.9-1.9c-0.1-0.9-0.3-1.8-0.5-2.7
			c-0.1-0.3,0-0.5,0.1-0.8l3-1.7c0.5-0.3,0.7-0.9,0.4-1.4l-2.6-5.7c-0.1-0.2-0.2-0.4-0.4-0.6c-0.1-0.1-0.3-0.2-0.4-0.2
			c-0.1,0-0.1-0.1-0.2-0.1l0,0c-0.1,0-0.1,0-0.2,0c-0.1,0-0.1,0-0.2,0h-0.1l-2.7,0.1c-0.1,0-0.2,0-0.2,0h-0.2
			c-0.1,0-0.3-0.1-0.4-0.1c-0.4-0.1-0.7-0.4-0.9-0.7c-0.6-0.9-1.3-1.8-2-2.6c-0.4-0.6-0.7-1.3-0.7-2l0.2-4c0-0.2,0-0.5-0.1-0.7l0,0
			c0-0.1,0-0.1,0-0.2c-0.1-0.2-0.2-0.5-0.4-0.7c0,0-0.1-0.1-0.1-0.1l-0.2-0.2l-4.2-3.3c-0.1-0.1-0.3-0.2-0.5-0.2
			c-0.1,0-0.2,0-0.3,0.1L148.7,47.5z M161.4,93c0.2,0.4,0,0.9-0.4,1.2l4.5-2.6l0,0c0.4-0.2,0.6-0.7,0.4-1.2l-1.6-4.2l-2.2-1.4
			c-0.5-0.3-1.2-0.2-1.5,0.3c-0.2,0.3-0.5,0.6-0.7,0.9c-0.5,0.5-0.6,1.1-0.5,1.8L161.4,93z"/>
		<path class="st2" d="M167.9,74.9l3.7,3.4c0.1,0.1,0.1,0.1,0.2,0.2l0,0c0.1,0.1,0.1,0.2,0.1,0.2c0.1,0.2,0.2,0.4,0.2,0.6l-4.4,2.6
			c-0.1-0.4-0.3-0.8-0.6-1.1l-3.7-3.4L167.9,74.9z"/>
		<path class="st2" d="M162.3,59.7L162.3,59.7c0.1,0,0.2,0.1,0.4,0.1h0.2c0.1,0,0.2,0,0.2,0l2.7-0.1h0.1c0.1,0,0.1,0,0.2,0
			c0.1,0,0.1,0,0.2,0l0,0c0.1,0,0.2,0,0.2,0.1c0.1,0.1,0.3,0.1,0.4,0.2l-4.5,2.6c-0.3-0.3-0.7-0.4-1.1-0.4l-2.7,0.1
			c-0.3,0-0.5-0.1-0.8-0.2L162.3,59.7z"/>
		<path class="st2" d="M134.1,49.4L134.1,49.4c0.3-0.1,0.6-0.1,0.8,0.1l1.6,1l0.4,1c0.2,0.6,0,1.3-0.4,1.8c-0.3,0.3-0.5,0.6-0.7,0.9
			c-0.3,0.5-1,0.7-1.5,0.3l-3.8-2.5c-0.2-0.2-0.5-0.2-0.8-0.1L134.1,49.4z"/>
		<path class="st2" d="M139.8,42.5L139.8,42.5c0.1-0.1,0.2-0.1,0.3-0.1l2.8-0.6c0.6-0.1,1.3,0.2,1.6,0.7l2.7,5.1
			c0.2,0.3,0.4,0.5,0.6,0.7l-4.5,2.6c-0.2-0.2-0.4-0.4-0.6-0.7l-2.6-5.1c-0.3-0.6-1-0.9-1.6-0.7l-2.8,0.6c-0.1,0-0.2,0-0.3,0.1
			L139.8,42.5z"/>
		<path class="st2" d="M153.2,45.1c0.1-0.1,0.2-0.1,0.3-0.1c0.2,0,0.4,0.1,0.5,0.2l4.2,3.3l0.2,0.2c0,0,0.1,0.1,0.1,0.1
			c0.1,0.2,0.3,0.4,0.4,0.7c0,0.1,0,0.1,0,0.2l-4.5,2.6c-0.1-0.4-0.4-0.8-0.7-1.1l-4.2-3.3c-0.2-0.2-0.6-0.3-0.8-0.1L153.2,45.1z"/>
		<path class="st2" d="M129.3,58.4l3.8,3.5c0.5,0.5,0.8,1.2,0.9,1.8c0.1,0.9,0.3,1.8,0.5,2.7c0.1,0.6-0.2,1.2-0.8,1.5l-2.3,0.9
			c0,0,0,0,0,0c-0.5,0.2-0.8,0.9-0.5,1.4l2.5,5.7c0.3,0.6,0.9,1,1.6,1l2.7-0.1c0.7,0,1.3,0.3,1.7,0.9c0.6,0.9,1.3,1.8,2,2.6
			c0.4,0.6,0.7,1.2,0.7,1.9l-0.2,4c0,0.7,0.3,1.3,0.8,1.8l4.2,3.3c0.1,0.1,0.2,0.2,0.4,0.2c0.4,0.1,0.7-0.2,0.8-0.6l1-3.2
			c0,0,0,0,0-0.1c0.2-0.5,0.8-0.8,1.3-0.5c0.6,0.2,1.1,0.4,1.7,0.6c0.7,0.2,1.2,0.6,1.6,1.2l2.6,5.1c0.3,0.6,1,0.9,1.6,0.7l2.8-0.6
			c0,0,0,0,0.1,0c0.5-0.2,0.8-0.7,0.6-1.3l-1.9-5.2c-0.2-0.6,0-1.3,0.4-1.8c0.3-0.3,0.5-0.6,0.7-0.9c0.3-0.5,1-0.7,1.5-0.3l3.7,2.5
			c0.1,0.1,0.3,0.2,0.4,0.2c0.4,0,0.7-0.3,0.7-0.7l0.7-4.1c0.1-0.7-0.1-1.4-0.6-1.8l-3.7-3.4c-0.5-0.5-0.8-1.2-0.9-1.8
			c-0.1-0.9-0.3-1.8-0.5-2.7c-0.1-0.6,0.2-1.2,0.8-1.5l2.2-0.9c0,0,0,0,0,0c0.5-0.2,0.8-0.9,0.5-1.4l-2.6-5.7c-0.3-0.6-0.9-1-1.6-1
			l-2.6,0.2c-0.7,0-1.3-0.3-1.7-0.9c-0.6-0.9-1.3-1.8-2-2.6c-0.4-0.6-0.7-1.3-0.7-2l0.2-4c0-0.7-0.3-1.3-0.8-1.8l-4.2-3.3
			c-0.1-0.1-0.2-0.2-0.4-0.2c-0.4-0.1-0.8,0.2-0.8,0.6l-0.9,3.2c0,0,0,0,0,0.1c-0.2,0.5-0.8,0.8-1.3,0.5c-0.6-0.2-1.1-0.4-1.7-0.6
			c-0.7-0.2-1.2-0.6-1.6-1.2l-2.6-5.1c-0.3-0.6-1-0.9-1.6-0.7l-2.8,0.6c0,0,0,0-0.1,0c-0.5,0.2-0.8,0.7-0.6,1.3l1.9,5.2
			c0.2,0.6,0,1.3-0.4,1.8c-0.3,0.3-0.5,0.6-0.7,0.9c0,0,0,0,0,0c-0.3,0.5-1,0.6-1.5,0.3l-3.8-2.5c-0.1-0.1-0.3-0.2-0.4-0.2
			c-0.4,0-0.7,0.3-0.7,0.7l-0.7,4.1C128.5,57.3,128.8,57.9,129.3,58.4z M139.9,63.1c0.8-4.8,5.2-5.8,9.8-2.2s7.6,10.4,6.8,15.2
			s-5.2,5.8-9.8,2.2C142.1,74.7,139.1,67.9,139.9,63.1z"/>
		<path class="st7" d="M129.3,58.4l3.8,3.5c0.5,0.5,0.8,1.2,0.9,1.8c0.1,0.9,0.3,1.8,0.5,2.7c0.1,0.6-0.2,1.2-0.8,1.5l-2.3,0.9
			c0,0,0,0,0,0c-0.5,0.2-0.8,0.9-0.5,1.4l2.5,5.7c0.3,0.6,0.9,1,1.6,1l2.7-0.1c0.7,0,1.3,0.3,1.7,0.9c0.6,0.9,1.3,1.8,2,2.6
			c0.4,0.6,0.7,1.2,0.7,1.9l-0.2,4c0,0.7,0.3,1.3,0.8,1.8l4.2,3.3c0.1,0.1,0.2,0.2,0.4,0.2c0.4,0.1,0.7-0.2,0.8-0.6l1-3.2
			c0,0,0,0,0-0.1c0.2-0.5,0.8-0.8,1.3-0.5c0.6,0.2,1.1,0.4,1.7,0.6c0.7,0.2,1.2,0.6,1.6,1.2l2.6,5.1c0.3,0.6,1,0.9,1.6,0.7l2.8-0.6
			c0,0,0,0,0.1,0c0.5-0.2,0.8-0.7,0.6-1.3l-1.9-5.2c-0.2-0.6,0-1.3,0.4-1.8c0.3-0.3,0.5-0.6,0.7-0.9c0.3-0.5,1-0.7,1.5-0.3l3.7,2.5
			c0.1,0.1,0.3,0.2,0.4,0.2c0.4,0,0.7-0.3,0.7-0.7l0.7-4.1c0.1-0.7-0.1-1.4-0.6-1.8l-3.7-3.4c-0.5-0.5-0.8-1.2-0.9-1.8
			c-0.1-0.9-0.3-1.8-0.5-2.7c-0.1-0.6,0.2-1.2,0.8-1.5l2.2-0.9c0,0,0,0,0,0c0.5-0.2,0.8-0.9,0.5-1.4l-2.6-5.7c-0.3-0.6-0.9-1-1.6-1
			l-2.6,0.2c-0.7,0-1.3-0.3-1.7-0.9c-0.6-0.9-1.3-1.8-2-2.6c-0.4-0.6-0.7-1.3-0.7-2l0.2-4c0-0.7-0.3-1.3-0.8-1.8l-4.2-3.3
			c-0.1-0.1-0.2-0.2-0.4-0.2c-0.4-0.1-0.8,0.2-0.8,0.6l-0.9,3.2c0,0,0,0,0,0.1c-0.2,0.5-0.8,0.8-1.3,0.5c-0.6-0.2-1.1-0.4-1.7-0.6
			c-0.7-0.2-1.2-0.6-1.6-1.2l-2.6-5.1c-0.3-0.6-1-0.9-1.6-0.7l-2.8,0.6c0,0,0,0-0.1,0c-0.5,0.2-0.8,0.7-0.6,1.3l1.9,5.2
			c0.2,0.6,0,1.3-0.4,1.8c-0.3,0.3-0.5,0.6-0.7,0.9c0,0,0,0,0,0c-0.3,0.5-1,0.6-1.5,0.3l-3.8-2.5c-0.1-0.1-0.3-0.2-0.4-0.2
			c-0.4,0-0.7,0.3-0.7,0.7l-0.7,4.1C128.5,57.3,128.8,57.9,129.3,58.4z M139.9,63.1c0.8-4.8,5.2-5.8,9.8-2.2s7.6,10.4,6.8,15.2
			s-5.2,5.8-9.8,2.2C142.1,74.7,139.1,67.9,139.9,63.1z"/>
		<path class="st2" d="M163.3,102c0.3-0.1,0.7-0.1,1,0.1l5.1,3.3c0.7,0.4,1.6,0.2,2-0.4c0.3-0.4,0.6-0.8,1-1.2
			c0.6-0.6,0.8-1.6,0.6-2.4l-0.5-1.3l-2.2-1.4c-0.3-0.2-0.7-0.3-1.1-0.1l0,0L163.3,102z M186.3,137.8c5.4,4.2,10.5,3.8,12.5-0.6
			c-2.4-0.3-4.7-1.3-6.5-2.9c-6.2-4.9-10.3-14.1-9.2-20.6c0.1-0.8,0.4-1.6,0.7-2.4c-3.4-0.3-6,1.8-6.7,5.9
			C176,123.7,180.1,132.9,186.3,137.8z M171,92.8c0.1-0.1,0.2-0.1,0.4-0.1l3.8-0.9c0.9-0.2,1.7,0.2,2.2,1l3.6,6.9
			c0.2,0.4,0.5,0.7,0.8,0.9c0.4,0.3,0.9,0.6,1.4,0.7c0.8,0.2,1.6,0.5,2.4,0.8c0.1,0,0.1,0.1,0.2,0.1c0.7,0.2,1.4-0.2,1.6-0.9
			l1.1-3.7c-0.2-0.1-0.4-0.2-0.6-0.4l0,0c-0.3-0.2-0.6-0.6-0.8-0.9l-3.6-6.9c-0.4-0.8-1.3-1.2-2.2-1l-3.8,0.9
			c-0.1,0-0.3,0.1-0.4,0.2l0,0L171,92.8z M193.6,152.3L193.6,152.3c0.2-0.1,0.4-0.4,0.5-0.7l0.2-0.6c-0.2-0.1-0.5-0.2-0.7-0.3
			c-0.8-0.2-1.6-0.5-2.4-0.8c-0.1,0-0.1-0.1-0.2-0.1c-0.7-0.2-1.4,0.2-1.6,0.9l-1.2,4.3c-0.1,0.2-0.2,0.4-0.4,0.6L193.6,152.3z
			 M189,96.1c0.4-0.2,0.8-0.1,1.1,0.2l5.7,4.5c0.5,0.4,0.8,0.9,1,1.5c0.1,0.3,0.2,0.6,0.1,0.9l-0.3,5.4c0,1,0.3,1.9,0.9,2.6
			c0.9,1.1,1.8,2.3,2.7,3.5c0.3,0.4,0.8,0.8,1.3,1c0.3,0.2,0.7,0.2,1.1,0.2l3.7-0.2c0.6,0,1.1,0.2,1.5,0.6c0.3,0.2,0.5,0.5,0.6,0.8
			l3.5,7.8c0,0,0,0,0,0.1c0.3,0.8,0,1.6-0.8,1.9l-3,1.3c-0.8,0.4-1.2,1.2-1,2.1c0.3,1.2,0.5,2.5,0.6,3.7c0.1,0.9,0.6,1.8,1.2,2.5
			l0.1,0.1l5,4.6c0.4,0.4,0.7,0.9,0.8,1.4c0.1,0.3,0.1,0.7,0.1,1.1l-1,5.5c0,0.3-0.2,0.6-0.4,0.7l6-3.5c0.2-0.2,0.4-0.4,0.4-0.8
			l1-5.5c0.1-0.6-0.1-1.3-0.4-1.9c-0.1-0.1-0.1-0.2-0.2-0.3l0,0c-0.1-0.1-0.1-0.2-0.2-0.3l-5-4.6l-0.1-0.1c-0.7-0.7-1.1-1.6-1.2-2.5
			c-0.1-1.2-0.4-2.5-0.6-3.7c-0.1-0.4,0-0.7,0.1-1.1l4.1-2.4c0.6-0.4,0.9-1.2,0.6-1.9l-3.5-7.8c-0.1-0.3-0.3-0.5-0.6-0.8
			c-0.2-0.1-0.3-0.2-0.5-0.3c-0.1,0-0.2-0.1-0.3-0.1l0,0c-0.1,0-0.2,0-0.3-0.1c-0.1,0-0.2,0-0.3,0h-0.1l-3.7,0.2c-0.1,0-0.2,0-0.3,0
			c-0.1,0-0.2,0-0.2,0c-0.2,0-0.3-0.1-0.5-0.2c-0.5-0.2-0.9-0.6-1.3-1c-0.8-1.2-1.7-2.4-2.6-3.5c-0.6-0.8-0.9-1.7-0.9-2.6l0.3-5.4
			c0-0.3,0-0.6-0.1-0.9l0,0l-0.1-0.2c-0.1-0.3-0.3-0.6-0.5-0.9c0-0.1-0.1-0.1-0.1-0.2c-0.1-0.1-0.1-0.1-0.2-0.2l-5.7-4.5
			c-0.2-0.2-0.4-0.3-0.7-0.3c-0.1,0-0.3,0-0.4,0.1L189,96.1z M206.2,157.6c0.2,0.6,0,1.2-0.5,1.6l6-3.5l0,0c0.5-0.3,0.7-1,0.5-1.6
			l-2.1-5.7l-2.9-1.9c-0.7-0.4-1.6-0.2-2,0.5c-0.3,0.4-0.6,0.8-1,1.2c-0.6,0.6-0.8,1.6-0.6,2.4L206.2,157.6z"/>
		<path class="st6" d="M163.3,102c0.3-0.1,0.7-0.1,1,0.1l5.1,3.3c0.7,0.4,1.6,0.2,2-0.4c0.3-0.4,0.6-0.8,1-1.2
			c0.6-0.6,0.8-1.6,0.6-2.4l-0.5-1.3l-2.2-1.4c-0.3-0.2-0.7-0.3-1.1-0.1l0,0L163.3,102z M186.3,137.8c5.4,4.2,10.5,3.8,12.5-0.6
			c-2.4-0.3-4.7-1.3-6.5-2.9c-6.2-4.9-10.3-14.1-9.2-20.6c0.1-0.8,0.4-1.6,0.7-2.4c-3.4-0.3-6,1.8-6.7,5.9
			C176,123.7,180.1,132.9,186.3,137.8z M171,92.8c0.1-0.1,0.2-0.1,0.4-0.1l3.8-0.9c0.9-0.2,1.7,0.2,2.2,1l3.6,6.9
			c0.2,0.4,0.5,0.7,0.8,0.9c0.4,0.3,0.9,0.6,1.4,0.7c0.8,0.2,1.6,0.5,2.4,0.8c0.1,0,0.1,0.1,0.2,0.1c0.7,0.2,1.4-0.2,1.6-0.9
			l1.1-3.7c-0.2-0.1-0.4-0.2-0.6-0.4l0,0c-0.3-0.2-0.6-0.6-0.8-0.9l-3.6-6.9c-0.4-0.8-1.3-1.2-2.2-1l-3.8,0.9
			c-0.1,0-0.3,0.1-0.4,0.2l0,0L171,92.8z M193.6,152.3L193.6,152.3c0.2-0.1,0.4-0.4,0.5-0.7l0.2-0.6c-0.2-0.1-0.5-0.2-0.7-0.3
			c-0.8-0.2-1.6-0.5-2.4-0.8c-0.1,0-0.1-0.1-0.2-0.1c-0.7-0.2-1.4,0.2-1.6,0.9l-1.2,4.3c-0.1,0.2-0.2,0.4-0.4,0.6L193.6,152.3z
			 M189,96.1c0.4-0.2,0.8-0.1,1.1,0.2l5.7,4.5c0.5,0.4,0.8,0.9,1,1.5c0.1,0.3,0.2,0.6,0.1,0.9l-0.3,5.4c0,1,0.3,1.9,0.9,2.6
			c0.9,1.1,1.8,2.3,2.7,3.5c0.3,0.4,0.8,0.8,1.3,1c0.3,0.2,0.7,0.2,1.1,0.2l3.7-0.2c0.6,0,1.1,0.2,1.5,0.6c0.3,0.2,0.5,0.5,0.6,0.8
			l3.5,7.8c0,0,0,0,0,0.1c0.3,0.8,0,1.6-0.8,1.9l-3,1.3c-0.8,0.4-1.2,1.2-1,2.1c0.3,1.2,0.5,2.5,0.6,3.7c0.1,0.9,0.6,1.8,1.2,2.5
			l0.1,0.1l5,4.6c0.4,0.4,0.7,0.9,0.8,1.4c0.1,0.3,0.1,0.7,0.1,1.1l-1,5.5c0,0.3-0.2,0.6-0.4,0.7l6-3.5c0.2-0.2,0.4-0.4,0.4-0.8
			l1-5.5c0.1-0.6-0.1-1.3-0.4-1.9c-0.1-0.1-0.1-0.2-0.2-0.3l0,0c-0.1-0.1-0.1-0.2-0.2-0.3l-5-4.6l-0.1-0.1c-0.7-0.7-1.1-1.6-1.2-2.5
			c-0.1-1.2-0.4-2.5-0.6-3.7c-0.1-0.4,0-0.7,0.1-1.1l4.1-2.4c0.6-0.4,0.9-1.2,0.6-1.9l-3.5-7.8c-0.1-0.3-0.3-0.5-0.6-0.8
			c-0.2-0.1-0.3-0.2-0.5-0.3c-0.1,0-0.2-0.1-0.3-0.1l0,0c-0.1,0-0.2,0-0.3-0.1c-0.1,0-0.2,0-0.3,0h-0.1l-3.7,0.2c-0.1,0-0.2,0-0.3,0
			c-0.1,0-0.2,0-0.2,0c-0.2,0-0.3-0.1-0.5-0.2c-0.5-0.2-0.9-0.6-1.3-1c-0.8-1.2-1.7-2.4-2.6-3.5c-0.6-0.8-0.9-1.7-0.9-2.6l0.3-5.4
			c0-0.3,0-0.6-0.1-0.9l0,0l-0.1-0.2c-0.1-0.3-0.3-0.6-0.5-0.9c0-0.1-0.1-0.1-0.1-0.2c-0.1-0.1-0.1-0.1-0.2-0.2l-5.7-4.5
			c-0.2-0.2-0.4-0.3-0.7-0.3c-0.1,0-0.3,0-0.4,0.1L189,96.1z M206.2,157.6c0.2,0.6,0,1.2-0.5,1.6l6-3.5l0,0c0.5-0.3,0.7-1,0.5-1.6
			l-2.1-5.7l-2.9-1.9c-0.7-0.4-1.6-0.2-2,0.5c-0.3,0.4-0.6,0.8-1,1.2c-0.6,0.6-0.8,1.6-0.6,2.4L206.2,157.6z"/>
		<path class="st2" d="M215,133.2l5,4.6c0.1,0.1,0.2,0.2,0.2,0.3l0,0c0.1,0.1,0.1,0.2,0.2,0.3c0.1,0.3,0.2,0.5,0.3,0.8l-6,3.5
			c-0.1-0.5-0.4-1-0.8-1.4l-5-4.6L215,133.2z"/>
		<path class="st2" d="M207.5,112.6L207.5,112.6c0.2,0.1,0.3,0.1,0.5,0.2h0.2c0.1,0,0.2,0,0.3,0l3.7-0.2h0.1c0.1,0,0.2,0,0.3,0
			c0.1,0,0.2,0,0.3,0.1l0,0c0.1,0,0.2,0.1,0.3,0.1c0.2,0.1,0.4,0.2,0.5,0.3l-6,3.5c-0.4-0.4-1-0.6-1.5-0.6l-3.7,0.2
			c-0.4,0-0.7-0.1-1.1-0.2L207.5,112.6z"/>
		<path class="st2" d="M169.3,98.6L169.3,98.6c0.3-0.2,0.8-0.1,1.1,0.1l2.1,1.4l0.5,1.3c0.2,0.9,0,1.8-0.6,2.4
			c-0.4,0.4-0.7,0.8-1,1.2c-0.4,0.7-1.3,0.9-2,0.5l-5.1-3.3c-0.3-0.2-0.7-0.3-1-0.1L169.3,98.6z"/>
		<path class="st2" d="M177,89.3L177,89.3c0.1-0.1,0.3-0.1,0.4-0.2l3.8-0.9c0.9-0.2,1.7,0.2,2.2,1l3.6,6.9c0.2,0.4,0.5,0.7,0.8,0.9
			l-6,3.5c-0.3-0.2-0.6-0.6-0.8-0.9l-3.6-6.9c-0.4-0.8-1.3-1.2-2.2-1l-3.8,0.9c-0.1,0-0.3,0.1-0.4,0.1L177,89.3z"/>
		<path class="st2" d="M195.1,92.8c0.1-0.1,0.3-0.1,0.4-0.1c0.3,0,0.5,0.1,0.7,0.3l5.7,4.5c0.1,0.1,0.2,0.1,0.2,0.2
			c0.1,0.1,0.1,0.1,0.1,0.2c0.2,0.3,0.4,0.6,0.5,0.9l0.1,0.2l-6,3.5c-0.2-0.6-0.5-1.1-1-1.5l-5.7-4.5c-0.3-0.3-0.8-0.3-1.1-0.2
			L195.1,92.8z"/>
		<path class="st2" d="M162.6,110.7l5.1,4.7c0.7,0.7,1.1,1.6,1.2,2.5c0.1,1.2,0.4,2.5,0.6,3.7c0.2,0.8-0.2,1.7-1,2.1l-3,1.3
			c0,0-0.1,0-0.1,0c-0.7,0.4-1,1.2-0.7,2l3.5,7.8c0.4,0.8,1.2,1.3,2.1,1.3l3.7-0.2c0.9,0,1.8,0.5,2.3,1.2c0.8,1.2,1.7,2.4,2.7,3.5
			c0.6,0.8,0.9,1.7,0.9,2.6l-0.4,5.4c0,0.9,0.4,1.8,1.1,2.4l5.7,4.5c0.1,0.1,0.3,0.2,0.4,0.2c0.5,0.1,1.1-0.2,1.2-0.7l1.3-4.3
			c0-0.1,0-0.1,0.1-0.2c0.3-0.7,1.1-0.9,1.7-0.6c0.8,0.3,1.5,0.6,2.4,0.8c0.9,0.3,1.7,0.8,2.2,1.6l3.6,6.9c0.4,0.8,1.3,1.2,2.2,1
			l3.8-0.9c0.1,0,0.2,0,0.3-0.1c0.7-0.3,1-1,0.7-1.7l-2.6-7c-0.2-0.9,0-1.8,0.6-2.4c0.4-0.4,0.7-0.8,1-1.2c0.4-0.7,1.3-0.9,2-0.5
			l5.1,3.3c0.2,0.1,0.4,0.2,0.6,0.2c0.5,0,0.9-0.4,0.9-0.9l1-5.5c0.1-0.9-0.2-1.8-0.9-2.5l-5.1-4.7c-0.7-0.7-1.1-1.6-1.2-2.5
			c-0.1-1.2-0.4-2.5-0.6-3.7c-0.2-0.8,0.3-1.6,1-2l3-1.3c0,0,0,0,0,0c0.7-0.3,1.1-1.2,0.7-2l-3.5-7.7c-0.4-0.8-1.2-1.3-2.1-1.3
			l-3.7,0.2c-0.9,0-1.8-0.5-2.3-1.2c-0.8-1.2-1.7-2.4-2.7-3.5c-0.6-0.8-0.9-1.7-0.9-2.6l0.3-5.4c0-0.9-0.4-1.8-1.1-2.4l-5.7-4.5
			c-0.1-0.1-0.2-0.2-0.4-0.2c-0.5-0.1-1.1,0.2-1.2,0.7l-1.3,4.2c0,0.1,0,0.1-0.1,0.2c-0.3,0.7-1.1,0.9-1.7,0.6
			c-0.8-0.3-1.6-0.6-2.4-0.8c-0.9-0.3-1.7-0.8-2.2-1.6l-3.6-6.8c-0.4-0.8-1.3-1.2-2.2-1l-3.8,0.8c-0.1,0-0.2,0-0.2,0.1
			c-0.7,0.3-1,1-0.7,1.7l2.6,7c0.2,0.9,0,1.8-0.6,2.4c-0.4,0.4-0.7,0.8-1,1.2c-0.4,0.7-1.3,0.9-2,0.5l-5-3.3
			c-0.2-0.1-0.4-0.2-0.6-0.2c-0.5,0-0.9,0.4-0.9,0.9l-1,5.5C161.8,109.2,162,110.1,162.6,110.7z M186.3,137.8
			c-6.2-4.9-10.3-14.1-9.2-20.6s7.1-7.9,13.3-3s10.3,14.1,9.2,20.6S192.5,142.7,186.3,137.8L186.3,137.8z"/>
		<path class="st7" d="M162.6,110.7l5.1,4.7c0.7,0.7,1.1,1.6,1.2,2.5c0.1,1.2,0.4,2.5,0.6,3.7c0.2,0.8-0.2,1.7-1,2.1l-3,1.3
			c0,0-0.1,0-0.1,0c-0.7,0.4-1,1.2-0.7,2l3.5,7.8c0.4,0.8,1.2,1.3,2.1,1.3l3.7-0.2c0.9,0,1.8,0.5,2.3,1.2c0.8,1.2,1.7,2.4,2.7,3.5
			c0.6,0.8,0.9,1.7,0.9,2.6l-0.4,5.4c0,0.9,0.4,1.8,1.1,2.4l5.7,4.5c0.1,0.1,0.3,0.2,0.4,0.2c0.5,0.1,1.1-0.2,1.2-0.7l1.3-4.3
			c0-0.1,0-0.1,0.1-0.2c0.3-0.7,1.1-0.9,1.7-0.6c0.8,0.3,1.5,0.6,2.4,0.8c0.9,0.3,1.7,0.8,2.2,1.6l3.6,6.9c0.4,0.8,1.3,1.2,2.2,1
			l3.8-0.9c0.1,0,0.2,0,0.3-0.1c0.7-0.3,1-1,0.7-1.7l-2.6-7c-0.2-0.9,0-1.8,0.6-2.4c0.4-0.4,0.7-0.8,1-1.2c0.4-0.7,1.3-0.9,2-0.5
			l5.1,3.3c0.2,0.1,0.4,0.2,0.6,0.2c0.5,0,0.9-0.4,0.9-0.9l1-5.5c0.1-0.9-0.2-1.8-0.9-2.5l-5.1-4.7c-0.7-0.7-1.1-1.6-1.2-2.5
			c-0.1-1.2-0.4-2.5-0.6-3.7c-0.2-0.8,0.3-1.6,1-2l3-1.3c0,0,0,0,0,0c0.7-0.3,1.1-1.2,0.7-2l-3.5-7.7c-0.4-0.8-1.2-1.3-2.1-1.3
			l-3.7,0.2c-0.9,0-1.8-0.5-2.3-1.2c-0.8-1.2-1.7-2.4-2.7-3.5c-0.6-0.8-0.9-1.7-0.9-2.6l0.3-5.4c0-0.9-0.4-1.8-1.1-2.4l-5.7-4.5
			c-0.1-0.1-0.2-0.2-0.4-0.2c-0.5-0.1-1.1,0.2-1.2,0.7l-1.3,4.2c0,0.1,0,0.1-0.1,0.2c-0.3,0.7-1.1,0.9-1.7,0.6
			c-0.8-0.3-1.6-0.6-2.4-0.8c-0.9-0.3-1.7-0.8-2.2-1.6l-3.6-6.8c-0.4-0.8-1.3-1.2-2.2-1l-3.8,0.8c-0.1,0-0.2,0-0.2,0.1
			c-0.7,0.3-1,1-0.7,1.7l2.6,7c0.2,0.9,0,1.8-0.6,2.4c-0.4,0.4-0.7,0.8-1,1.2c-0.4,0.7-1.3,0.9-2,0.5l-5-3.3
			c-0.2-0.1-0.4-0.2-0.6-0.2c-0.5,0-0.9,0.4-0.9,0.9l-1,5.5C161.8,109.2,162,110.1,162.6,110.7z M186.3,137.8
			c-6.2-4.9-10.3-14.1-9.2-20.6s7.1-7.9,13.3-3s10.3,14.1,9.2,20.6S192.5,142.7,186.3,137.8L186.3,137.8z"/>
		<path class="st2" d="M102.2,79.1c0.2-0.1,0.5-0.1,0.6,0.1l3.1,2c0,0,0,0,0,0c0.4,0.3,1,0.1,1.2-0.3c0.2-0.3,0.4-0.5,0.6-0.8
			c0.4-0.4,0.5-1,0.4-1.5l-0.3-0.8l-1.3-0.9c-0.2-0.1-0.4-0.2-0.6-0.1l0,0L102.2,79.1z M116.4,101c3.3,2.6,6.5,2.3,7.7-0.3
			c-1.5-0.2-2.9-0.8-4-1.8c-3.8-3-6.4-8.7-5.7-12.7c0.1-0.5,0.2-1,0.4-1.5c-2.1-0.2-3.7,1.1-4.1,3.6C110,92.3,112.6,98,116.4,101z
			 M107,73.3c0.1,0,0.2-0.1,0.2-0.1l2.4-0.5c0.5-0.1,1.1,0.2,1.3,0.6l2.2,4.2c0.1,0.2,0.3,0.4,0.5,0.6c0.2,0.2,0.5,0.3,0.8,0.4
			c0.5,0.1,1,0.3,1.5,0.5c0,0,0.1,0,0.1,0c0.4,0.1,0.9-0.1,1-0.5l0.7-2.3c-0.1-0.1-0.3-0.2-0.4-0.3l0,0c-0.2-0.1-0.4-0.3-0.5-0.6
			l-2.2-4.2c-0.3-0.5-0.8-0.7-1.3-0.6l-2.3,0.5c-0.1,0-0.2,0.1-0.2,0.1l0,0L107,73.3z M120.9,109.9L120.9,109.9
			c0.1-0.1,0.3-0.2,0.3-0.4l0.1-0.3c-0.1-0.1-0.3-0.1-0.5-0.2c-0.5-0.1-1-0.3-1.5-0.5c0,0-0.1,0-0.1,0c-0.4-0.1-0.9,0.1-1,0.5
			l-0.8,2.6c0,0.1-0.1,0.3-0.2,0.4L120.9,109.9z M118.2,75.5c0.2-0.1,0.5-0.1,0.7,0.1l3.5,2.8c0.3,0.2,0.5,0.6,0.6,0.9
			c0.1,0.2,0.1,0.4,0.1,0.6l-0.2,3.3c0,0.6,0.2,1.2,0.5,1.6c0.6,0.7,1.1,1.4,1.6,2.2c0.2,0.3,0.5,0.5,0.8,0.6
			c0.2,0.1,0.4,0.1,0.7,0.1l2.3-0.1c0.3,0,0.7,0.1,0.9,0.3c0.2,0.1,0.3,0.3,0.4,0.5l2.1,4.8c0,0,0,0,0,0c0.2,0.5,0,1-0.5,1.2
			l-1.8,0.8c-0.5,0.2-0.7,0.7-0.6,1.3c0.2,0.8,0.3,1.5,0.4,2.3c0.1,0.6,0.4,1.1,0.8,1.5l0,0l3.1,2.8c0.2,0.2,0.4,0.6,0.5,0.9
			c0,0.2,0,0.4,0,0.7l-0.6,3.4c0,0.2-0.1,0.4-0.3,0.5l3.7-2.1c0.2-0.1,0.2-0.3,0.3-0.5l0.6-3.4c0.1-0.4,0-0.8-0.2-1.1
			c0-0.1-0.1-0.1-0.1-0.2l0,0l-0.1-0.2l-3.1-2.9l0,0c-0.4-0.4-0.7-1-0.8-1.6c-0.1-0.8-0.2-1.5-0.4-2.3c0-0.2,0-0.5,0.1-0.7l2.5-1.4
			c0.4-0.2,0.5-0.7,0.4-1.2l-2.2-4.8c-0.1-0.2-0.2-0.3-0.4-0.5c-0.1-0.1-0.2-0.1-0.3-0.2l-0.2-0.1l0,0h-0.2h-0.2l0,0l-2.3,0.1
			c-0.1,0-0.1,0-0.2,0h-0.1c-0.1,0-0.2-0.1-0.3-0.1c-0.3-0.1-0.6-0.3-0.8-0.6c-0.5-0.8-1.1-1.5-1.6-2.2c-0.4-0.5-0.6-1-0.5-1.6
			l0.2-3.3c0-0.2,0-0.4-0.1-0.6l0,0c0-0.1,0-0.1,0-0.1c-0.1-0.2-0.2-0.4-0.3-0.6l-0.1-0.1l-0.1-0.1l-3.5-2.8
			c-0.1-0.1-0.3-0.2-0.4-0.2c-0.1,0-0.2,0-0.3,0.1L118.2,75.5z M128.6,113.2c0.2,0.4,0,0.8-0.3,1l3.7-2.1l0,0c0.4-0.2,0.5-0.6,0.3-1
			l-1.3-3.5l-1.8-1.2c0,0,0,0,0,0c-0.4-0.3-1-0.1-1.2,0.3c-0.2,0.3-0.4,0.5-0.6,0.8c-0.4,0.4-0.5,1-0.4,1.5L128.6,113.2z"/>
		<path class="st6" d="M102.2,79.1c0.2-0.1,0.5-0.1,0.6,0.1l3.1,2c0,0,0,0,0,0c0.4,0.3,1,0.1,1.2-0.3c0.2-0.3,0.4-0.5,0.6-0.8
			c0.4-0.4,0.5-1,0.4-1.5l-0.3-0.8l-1.3-0.9c-0.2-0.1-0.4-0.2-0.6-0.1l0,0L102.2,79.1z M116.4,101c3.3,2.6,6.5,2.3,7.7-0.3
			c-1.5-0.2-2.9-0.8-4-1.8c-3.8-3-6.4-8.7-5.7-12.7c0.1-0.5,0.2-1,0.4-1.5c-2.1-0.2-3.7,1.1-4.1,3.6C110,92.3,112.6,98,116.4,101z
			 M107,73.3c0.1,0,0.2-0.1,0.2-0.1l2.4-0.5c0.5-0.1,1.1,0.2,1.3,0.6l2.2,4.2c0.1,0.2,0.3,0.4,0.5,0.6c0.2,0.2,0.5,0.3,0.8,0.4
			c0.5,0.1,1,0.3,1.5,0.5c0,0,0.1,0,0.1,0c0.4,0.1,0.9-0.1,1-0.5l0.7-2.3c-0.1-0.1-0.3-0.2-0.4-0.3l0,0c-0.2-0.1-0.4-0.3-0.5-0.6
			l-2.2-4.2c-0.3-0.5-0.8-0.7-1.3-0.6l-2.3,0.5c-0.1,0-0.2,0.1-0.2,0.1l0,0L107,73.3z M120.9,109.9L120.9,109.9
			c0.1-0.1,0.3-0.2,0.3-0.4l0.1-0.3c-0.1-0.1-0.3-0.1-0.5-0.2c-0.5-0.1-1-0.3-1.5-0.5c0,0-0.1,0-0.1,0c-0.4-0.1-0.9,0.1-1,0.5
			l-0.8,2.6c0,0.1-0.1,0.3-0.2,0.4L120.9,109.9z M118.2,75.5c0.2-0.1,0.5-0.1,0.7,0.1l3.5,2.8c0.3,0.2,0.5,0.6,0.6,0.9
			c0.1,0.2,0.1,0.4,0.1,0.6l-0.2,3.3c0,0.6,0.2,1.2,0.5,1.6c0.6,0.7,1.1,1.4,1.6,2.2c0.2,0.3,0.5,0.5,0.8,0.6
			c0.2,0.1,0.4,0.1,0.7,0.1l2.3-0.1c0.3,0,0.7,0.1,0.9,0.3c0.2,0.1,0.3,0.3,0.4,0.5l2.1,4.8c0,0,0,0,0,0c0.2,0.5,0,1-0.5,1.2
			l-1.8,0.8c-0.5,0.2-0.7,0.7-0.6,1.3c0.2,0.8,0.3,1.5,0.4,2.3c0.1,0.6,0.4,1.1,0.8,1.5l0,0l3.1,2.8c0.2,0.2,0.4,0.6,0.5,0.9
			c0,0.2,0,0.4,0,0.7l-0.6,3.4c0,0.2-0.1,0.4-0.3,0.5l3.7-2.1c0.2-0.1,0.2-0.3,0.3-0.5l0.6-3.4c0.1-0.4,0-0.8-0.2-1.1
			c0-0.1-0.1-0.1-0.1-0.2l0,0l-0.1-0.2l-3.1-2.9l0,0c-0.4-0.4-0.7-1-0.8-1.6c-0.1-0.8-0.2-1.5-0.4-2.3c0-0.2,0-0.5,0.1-0.7l2.5-1.4
			c0.4-0.2,0.5-0.7,0.4-1.2l-2.2-4.8c-0.1-0.2-0.2-0.3-0.4-0.5c-0.1-0.1-0.2-0.1-0.3-0.2l-0.2-0.1l0,0h-0.2h-0.2l0,0l-2.3,0.1
			c-0.1,0-0.1,0-0.2,0h-0.1c-0.1,0-0.2-0.1-0.3-0.1c-0.3-0.1-0.6-0.3-0.8-0.6c-0.5-0.8-1.1-1.5-1.6-2.2c-0.4-0.5-0.6-1-0.5-1.6
			l0.2-3.3c0-0.2,0-0.4-0.1-0.6l0,0c0-0.1,0-0.1,0-0.1c-0.1-0.2-0.2-0.4-0.3-0.6l-0.1-0.1l-0.1-0.1l-3.5-2.8
			c-0.1-0.1-0.3-0.2-0.4-0.2c-0.1,0-0.2,0-0.3,0.1L118.2,75.5z M128.6,113.2c0.2,0.4,0,0.8-0.3,1l3.7-2.1l0,0c0.4-0.2,0.5-0.6,0.3-1
			l-1.3-3.5l-1.8-1.2c0,0,0,0,0,0c-0.4-0.3-1-0.1-1.2,0.3c-0.2,0.3-0.4,0.5-0.6,0.8c-0.4,0.4-0.5,1-0.4,1.5L128.6,113.2z"/>
		<path class="st2" d="M134,98.2l3.1,2.8l0.1,0.2l0,0c0.1,0.1,0.1,0.1,0.1,0.2c0.1,0.2,0.1,0.3,0.2,0.5l-3.7,2.1
			c-0.1-0.3-0.2-0.6-0.5-0.9l-3-2.8L134,98.2z"/>
		<path class="st2" d="M129.5,85.5L129.5,85.5l0.3,0.1h0.1c0.1,0,0.1,0,0.2,0l2.3-0.1h0h0.2h0.2l0,0l0.2,0.1
			c0.1,0.1,0.2,0.1,0.3,0.2l-3.7,2.1c-0.3-0.2-0.6-0.3-0.9-0.3l-2.3,0.1c-0.2,0-0.5,0-0.7-0.1L129.5,85.5z"/>
		<path class="st2" d="M105.9,76.8L105.9,76.8c0.2-0.1,0.5-0.1,0.6,0.1l1.3,0.9l0.3,0.8c0.2,0.5,0,1.1-0.4,1.5
			c-0.2,0.2-0.4,0.5-0.6,0.7c-0.3,0.4-0.8,0.5-1.2,0.3l-3.1-2c-0.2-0.1-0.4-0.2-0.6-0.1L105.9,76.8z"/>
		<path class="st2" d="M110.7,71.2L110.7,71.2c0.1,0,0.2-0.1,0.2-0.1l2.3-0.5c0.5-0.1,1.1,0.1,1.3,0.6l2.2,4.2
			c0.1,0.2,0.3,0.4,0.5,0.6l-3.7,2.1c-0.2-0.2-0.4-0.3-0.5-0.6l-2.2-4.2c-0.3-0.5-0.8-0.7-1.3-0.6l-2.4,0.5c-0.1,0-0.2,0-0.2,0.1
			L110.7,71.2z"/>
		<path class="st2" d="M121.8,73.3c0.1,0,0.2-0.1,0.3-0.1c0.2,0,0.3,0.1,0.4,0.2l3.5,2.8l0.1,0.1l0.1,0.1c0.1,0.2,0.2,0.4,0.3,0.6
			c0,0,0,0.1,0,0.1l-3.7,2.1c-0.1-0.4-0.3-0.7-0.6-0.9l-3.5-2.8c-0.2-0.2-0.5-0.2-0.7-0.1L121.8,73.3z"/>
		<path class="st2" d="M101.9,84.4l3.1,2.9c0.4,0.4,0.7,1,0.8,1.6c0.1,0.8,0.2,1.5,0.4,2.3c0.1,0.5-0.2,1-0.6,1.3l-1.8,0.8
			c0,0,0,0,0,0c-0.5,0.2-0.7,0.7-0.5,1.2l2.1,4.8c0.3,0.5,0.8,0.8,1.3,0.8l2.3-0.1c0.6,0,1.1,0.3,1.4,0.7c0.5,0.7,1.1,1.5,1.6,2.2
			c0.4,0.5,0.5,1,0.5,1.6l-0.2,3.3c0,0.6,0.2,1.1,0.7,1.5l3.5,2.8c0.1,0.1,0.2,0.1,0.3,0.2c0.3,0.1,0.6-0.2,0.7-0.5l0.8-2.6
			c0,0,0-0.1,0.1-0.1c0.2-0.4,0.7-0.6,1.1-0.4c0.5,0.2,1,0.3,1.5,0.5c0.6,0.2,1,0.5,1.3,1l2.2,4.2c0.3,0.5,0.8,0.7,1.3,0.6l2.4-0.5
			c0,0,0.1,0,0.1,0c0.4-0.2,0.6-0.6,0.4-1l-1.6-4.3c-0.2-0.5,0-1.1,0.4-1.5c0.2-0.2,0.4-0.5,0.6-0.8c0,0,0,0,0,0
			c0.3-0.4,0.8-0.5,1.2-0.3l3.1,2.1c0.1,0.1,0.2,0.1,0.4,0.1c0.3,0,0.6-0.2,0.6-0.5l0.5-3.4c0.1-0.6-0.1-1.1-0.5-1.5l-3.1-2.9
			c-0.4-0.4-0.7-1-0.8-1.5c-0.1-0.7-0.2-1.5-0.4-2.3c-0.1-0.5,0.2-1,0.6-1.3l1.8-0.8c0,0,0,0,0,0c0.5-0.2,0.7-0.7,0.5-1.2l-2.1-4.8
			c-0.2-0.5-0.8-0.8-1.3-0.8l-2.3,0.1c-0.6,0-1.1-0.3-1.4-0.7c-0.5-0.8-1.1-1.5-1.6-2.2c-0.4-0.5-0.6-1-0.5-1.6l0.2-3.3
			c0-0.6-0.2-1.1-0.7-1.5l-3.5-2.8c-0.1-0.1-0.2-0.1-0.3-0.2c-0.3-0.1-0.6,0.2-0.7,0.5l-0.8,2.6c0,0,0,0.1,0,0.1
			c-0.2,0.4-0.7,0.6-1.1,0.4c-0.5-0.2-1-0.4-1.5-0.5c-0.6-0.2-1-0.5-1.3-1l-2.2-4.2c-0.3-0.5-0.8-0.7-1.3-0.6l-2.4,0.5
			c-0.1,0-0.1,0-0.2,0c-0.4,0.2-0.6,0.6-0.4,1l1.6,4.3c0.2,0.5,0,1.1-0.4,1.5c-0.2,0.2-0.4,0.5-0.6,0.7c-0.3,0.4-0.8,0.6-1.2,0.3
			l-3.1-2c-0.1-0.1-0.2-0.1-0.4-0.1c-0.3,0-0.6,0.2-0.6,0.5l-0.6,3.4C101.3,83.5,101.5,84,101.9,84.4z M110.7,88.3
			c0.7-4,4.3-4.8,8.1-1.8s6.4,8.7,5.7,12.7s-4.3,4.8-8.1,1.8C112.6,98,110,92.3,110.7,88.3z"/>
		<path class="st7" d="M101.9,84.4l3.1,2.9c0.4,0.4,0.7,1,0.8,1.6c0.1,0.8,0.2,1.5,0.4,2.3c0.1,0.5-0.2,1-0.6,1.3l-1.8,0.8
			c0,0,0,0,0,0c-0.5,0.2-0.7,0.7-0.5,1.2l2.1,4.8c0.3,0.5,0.8,0.8,1.3,0.8l2.3-0.1c0.6,0,1.1,0.3,1.4,0.7c0.5,0.7,1.1,1.5,1.6,2.2
			c0.4,0.5,0.5,1,0.5,1.6l-0.2,3.3c0,0.6,0.2,1.1,0.7,1.5l3.5,2.8c0.1,0.1,0.2,0.1,0.3,0.2c0.3,0.1,0.6-0.2,0.7-0.5l0.8-2.6
			c0,0,0-0.1,0.1-0.1c0.2-0.4,0.7-0.6,1.1-0.4c0.5,0.2,1,0.3,1.5,0.5c0.6,0.2,1,0.5,1.3,1l2.2,4.2c0.3,0.5,0.8,0.7,1.3,0.6l2.4-0.5
			c0,0,0.1,0,0.1,0c0.4-0.2,0.6-0.6,0.4-1l-1.6-4.3c-0.2-0.5,0-1.1,0.4-1.5c0.2-0.2,0.4-0.5,0.6-0.8c0,0,0,0,0,0
			c0.3-0.4,0.8-0.5,1.2-0.3l3.1,2.1c0.1,0.1,0.2,0.1,0.4,0.1c0.3,0,0.6-0.2,0.6-0.5l0.5-3.4c0.1-0.6-0.1-1.1-0.5-1.5l-3.1-2.9
			c-0.4-0.4-0.7-1-0.8-1.5c-0.1-0.7-0.2-1.5-0.4-2.3c-0.1-0.5,0.2-1,0.6-1.3l1.8-0.8c0,0,0,0,0,0c0.5-0.2,0.7-0.7,0.5-1.2l-2.1-4.8
			c-0.2-0.5-0.8-0.8-1.3-0.8l-2.3,0.1c-0.6,0-1.1-0.3-1.4-0.7c-0.5-0.8-1.1-1.5-1.6-2.2c-0.4-0.5-0.6-1-0.5-1.6l0.2-3.3
			c0-0.6-0.2-1.1-0.7-1.5l-3.5-2.8c-0.1-0.1-0.2-0.1-0.3-0.2c-0.3-0.1-0.6,0.2-0.7,0.5l-0.8,2.6c0,0,0,0.1,0,0.1
			c-0.2,0.4-0.7,0.6-1.1,0.4c-0.5-0.2-1-0.4-1.5-0.5c-0.6-0.2-1-0.5-1.3-1l-2.2-4.2c-0.3-0.5-0.8-0.7-1.3-0.6l-2.4,0.5
			c-0.1,0-0.1,0-0.2,0c-0.4,0.2-0.6,0.6-0.4,1l1.6,4.3c0.2,0.5,0,1.1-0.4,1.5c-0.2,0.2-0.4,0.5-0.6,0.7c-0.3,0.4-0.8,0.6-1.2,0.3
			l-3.1-2c-0.1-0.1-0.2-0.1-0.4-0.1c-0.3,0-0.6,0.2-0.6,0.5l-0.6,3.4C101.3,83.5,101.5,84,101.9,84.4z M110.7,88.3
			c0.7-4,4.3-4.8,8.1-1.8s6.4,8.7,5.7,12.7s-4.3,4.8-8.1,1.8C112.6,98,110,92.3,110.7,88.3z"/>
	</g>
</g>
<g id="freepik--Device--inject-25">
	<g id="freepik--Laptop--inject-25">
		<path class="st8" d="M423.9,357.1L208.8,232.9c-3.5-1.8-7.7-1.8-11.2,0L75.4,303.4c-3.1,1.8-5.6,6-5.6,9.3s2.5,7.5,5.6,9.3
			l215.2,124.2c3.5,1.8,7.7,1.8,11.2,0l122.2-70.6c3.1-1.8,5.6-6,5.6-9.3C429.6,363,427,358.9,423.9,357.1z"/>
		<path class="st9" d="M423.9,357.1L208.8,232.9c-3.5-1.8-7.7-1.8-11.2,0L75.4,303.4c-3.1,1.8-3.1,4.7,0,6.5l215.2,124.2
			c3.5,1.8,7.7,1.8,11.2,0l122.2-70.6C427,361.8,427,358.9,423.9,357.1z"/>
		<path class="st10" d="M301.8,434.1L424,363.5c2.9-1.7,3.1-4.3,0.6-6.1c2.8,2,5,5.8,5,9c0,3.3-2.5,7.5-5.6,9.3l-122.2,70.6
			c-1.7,0.9-3.7,1.4-5.6,1.3v-12.1C298.1,435.5,300,435,301.8,434.1z"/>
		<path class="st8" d="M205.9,46.3c2.9-1.7,7.8-1.6,10.9,0.2L432,170.7c3.3,2.2,5.4,5.8,5.6,9.7v168.8c0,3.8-0.1,5.1-2.9,7.2
			c-2.8,1.9-6.4,2.3-9.6,1.2l-0.4-0.1h-0.1c-0.2-0.1-0.5-0.2-0.7-0.3L208.8,232.9c-3.3-2.2-5.4-5.8-5.6-9.7V54.4
			C203.2,50.8,203.1,47.9,205.9,46.3z"/>
		<path class="st9" d="M205.9,46.3c2.9-1.7,7.8-1.6,10.9,0.2l215.1,124.2c1.7,1,3,2.5,4,4.2l0,0l-8,4.6c-0.9-1.7-2.3-3.2-4-4.2
			L208.8,51.1c-3.1-1.8-5.6-0.3-5.6,3.2C203.2,50.8,203.1,48,205.9,46.3z"/>
		<path class="st10" d="M429.6,353.8V185.1c-0.1-1.9-0.6-3.8-1.6-5.5l0,0l8-4.6c1,1.7,1.6,3.6,1.6,5.5v168.8c0,3.8-0.1,5.1-2.9,7.2
			c-2.8,1.9-6.4,2.3-9.6,1.2l-0.4-0.1C427.4,358.6,429.6,357.1,429.6,353.8z"/>
		<path class="st2" d="M424.3,187.6v152.1c0,2.1-1.5,3-3.4,1.9L213.5,222c-2-1.3-3.2-3.5-3.4-5.8V64.1c0-2.2,1.5-3.1,3.4-2
			l207.4,119.7C422.9,183.1,424.2,185.3,424.3,187.6z"/>
		<path class="st6" d="M424.3,187.6v152.1c0,2.1-1.5,3-3.4,1.9L213.5,222c-2-1.3-3.2-3.5-3.4-5.8V64.1c0-2.2,1.5-3.1,3.4-2
			l207.4,119.7C422.9,183.1,424.2,185.3,424.3,187.6z"/>
		<path class="st8" d="M408.4,360.6l-3.2,1.8c-1.8,0.9-3.8,0.9-5.6,0L199.7,247.2c-1.5-0.9-1.5-2.3,0-3.2l3.3-1.8
			c1.8-0.9,3.8-0.9,5.6,0l199.7,115.3C410,358.3,410,359.8,408.4,360.6z"/>
		<path class="st10" d="M393.2,369.7L341,399.5c-1.7,0.7-3.6,0.6-5.1-0.3L136.4,284.1c-1.6-0.9-1.8-2.3-0.5-3l52-30
			c1.7-0.7,3.6-0.6,5.1,0.3l199.7,115.3C394.3,367.6,394.5,368.9,393.2,369.7z"/>
		<path class="st9" d="M220.7,299.8l6-3.5c0.2-0.1,0.2-0.4,0-0.5l-6.2-3.6c-0.3-0.1-0.6-0.1-0.9,0l-6,3.5c-0.3,0.1-0.3,0.4,0,0.5
			l6.2,3.6C220,300,220.4,300,220.7,299.8z M227.9,287.4l-6,3.5c-0.2,0.1-0.2,0.4,0.1,0.5l6.2,3.6c0.3,0.1,0.6,0.1,0.9,0l6-3.5
			c0.3-0.1,0.3-0.4,0-0.5l-6.3-3.6C228.5,287.2,228.2,287.2,227.9,287.4z M248.2,299l-6,3.5c-0.3,0.1-0.3,0.4,0,0.5l10.6,6.1
			c0.3,0.1,0.6,0.1,0.9,0l6-3.5c0.2-0.1,0.2-0.4-0.1-0.5L249,299C248.8,298.9,248.5,298.9,248.2,299z M238,292.6
			c-0.3-0.2-0.6-0.2-0.9,0l-6,3.5c-0.2,0.1-0.2,0.4,0.1,0.5l6.2,3.6c0.3,0.1,0.6,0.1,0.9,0l6-3.5c0.2-0.1,0.2-0.4,0-0.5L238,292.6
			L238,292.6z M262.5,306.8c-0.3-0.2-0.7-0.2-1,0l-6,3.5c-0.2,0.1-0.2,0.4,0.1,0.5l6.2,3.6c0.3,0.1,0.6,0.1,0.9,0l6-3.5
			c0.3-0.1,0.3-0.4,0-0.5L262.5,306.8L262.5,306.8z M271.6,312.1c-0.3-0.2-0.6-0.2-0.9,0l-6,3.5c-0.2,0.1-0.2,0.4,0.1,0.5l6.3,3.6
			c0.3,0.1,0.6,0.1,0.9,0l6-3.5c0.2-0.1,0.2-0.4-0.1-0.5L271.6,312.1L271.6,312.1z M248.2,326.2c0.3,0.1,0.6,0.1,0.9,0l6-3.5
			c0.2-0.1,0.2-0.4-0.1-0.5l-6.2-3.6c-0.3-0.1-0.6-0.1-0.9,0l-6,3.5c-0.2,0.1-0.2,0.4,0,0.5L248.2,326.2L248.2,326.2z M258.3,331.4
			l6-3.5c0.2-0.1,0.2-0.4-0.1-0.5l-6.2-3.6c-0.3-0.1-0.6-0.1-0.9,0l-6,3.5c-0.2,0.1-0.2,0.4,0.1,0.5l6.2,3.6
			C257.6,331.6,258,331.6,258.3,331.4z M266.5,336.7c0.3,0.2,0.6,0.2,0.9,0l6-3.5c0.2-0.1,0.2-0.4,0-0.5l-6.2-3.6
			c-0.3-0.1-0.6-0.1-0.9,0l-6,3.5c-0.2,0.1-0.2,0.4,0,0.5L266.5,336.7L266.5,336.7z M276.4,342l6-3.5c0.3-0.1,0.3-0.4,0-0.5
			l-6.2-3.6c-0.3-0.1-0.6-0.1-0.9,0l-6,3.5c-0.2,0.1-0.2,0.4,0.1,0.5l6.2,3.6C275.9,342.1,276.2,342.1,276.4,342z M228.8,305.1
			c0.3,0.1,0.6,0.2,0.9,0l6-3.5c0.2-0.1,0.2-0.4,0-0.5l-6.2-3.6c-0.3-0.1-0.6-0.1-0.9,0l-6,3.5c-0.2,0.1-0.2,0.4,0,0.5L228.8,305.1
			L228.8,305.1z M239.9,320.9l6-3.5c0.2-0.1,0.2-0.4-0.1-0.5l-5.8-3.3c-0.3-0.2-0.3-0.4,0-0.5l7.7-4.4c0.2-0.1,0.2-0.4-0.1-0.5
			l-7.2-4.2c-0.3-0.1-0.6-0.1-0.9,0l-14.5,8.4c-0.2,0.1-0.2,0.4,0.1,0.5l14,8.1C239.3,321,239.7,321,239.9,320.9z M280.8,317.4
			c-0.3-0.1-0.6-0.1-0.9,0l-6,3.5c-0.2,0.1-0.2,0.4,0.1,0.5l6.3,3.6c0.3,0.1,0.6,0.1,0.9,0l6-3.5c0.2-0.1,0.2-0.4-0.1-0.5
			L280.8,317.4L280.8,317.4z M289.9,322.6c-0.3-0.1-0.6-0.1-0.9,0l-6,3.5c-0.2,0.1-0.2,0.4,0.1,0.5l6.3,3.6c0.3,0.1,0.6,0.1,0.9,0
			l6-3.5c0.2-0.1,0.2-0.4-0.1-0.5L289.9,322.6L289.9,322.6z M346.5,375.5c0.2-0.1,0.2-0.4,0-0.5l-6.2-3.6c-0.3-0.1-0.6-0.1-0.9,0
			l-6,3.5c-0.2,0.1-0.2,0.4,0.1,0.5l6.2,3.6c0.3,0.1,0.6,0.1,0.9,0L346.5,375.5z M363,364.8c-0.3-0.1-0.6-0.1-0.9,0l-6,3.5
			c-0.2,0.1-0.2,0.4,0,0.5l6.2,3.6c0.3,0.1,0.6,0.1,0.9,0l6-3.5c0.2-0.1,0.2-0.4,0-0.5L363,364.8L363,364.8z M357.4,372
			c0.2-0.1,0.2-0.4,0-0.5l-6.2-3.6c-0.3-0.1-0.6-0.1-0.9,0l-6,3.5c-0.3,0.1-0.3,0.4,0,0.5l6.2,3.6c0.3,0.1,0.6,0.1,0.9,0L357.4,372z
			 M326.2,381.1c0.3,0.2,0.6,0.2,0.9,0l6-3.5c0.2-0.1,0.2-0.4-0.1-0.5l-6.2-3.6c-0.3-0.1-0.6-0.1-0.9,0l-6,3.5
			c-0.2,0.1-0.2,0.4,0,0.5L326.2,381.1L326.2,381.1z M342.2,383c0.3-0.1,0.3-0.4,0-0.5l-6.2-3.6c-0.3-0.1-0.6-0.1-0.9,0l-6,3.5
			c-0.2,0.1-0.2,0.4,0.1,0.5l6.2,3.6c0.3,0.1,0.6,0.1,0.9,0L342.2,383z M353.9,359.6c-0.3-0.1-0.7-0.1-0.9,0l-6,3.5
			c-0.2,0.1-0.2,0.4,0,0.5l6.3,3.6c0.3,0.1,0.6,0.1,0.9,0l6-3.5c0.2-0.1,0.2-0.4-0.1-0.5L353.9,359.6L353.9,359.6z M308.2,333.2
			c-0.3-0.2-0.7-0.2-1,0l-6,3.5c-0.2,0.1-0.2,0.4,0.1,0.5l6.2,3.6c0.3,0.1,0.6,0.1,0.9,0l6-3.5c0.3-0.1,0.3-0.4,0-0.5L308.2,333.2
			L308.2,333.2z M344.7,354.3c-0.3-0.1-0.7-0.1-0.9,0l-6,3.5c-0.2,0.1-0.2,0.4,0.1,0.5l6.3,3.6c0.3,0.1,0.6,0.1,0.9,0l6-3.5
			c0.2-0.1,0.2-0.4-0.1-0.5L344.7,354.3L344.7,354.3z M298.1,327.9l-6,3.5c-0.2,0.1-0.2,0.4,0.1,0.5l6.2,3.6c0.3,0.1,0.6,0.1,0.9,0
			l6-3.5c0.2-0.1,0.2-0.4-0.1-0.5l-6.2-3.6C298.8,327.8,298.4,327.8,298.1,327.9z M316.4,338.5l-6,3.5c-0.2,0.1-0.2,0.4,0.1,0.5
			l6.2,3.6c0.3,0.1,0.6,0.1,0.9,0l6-3.5c0.2-0.1,0.2-0.4-0.1-0.5l-6.3-3.6C317.1,338.3,316.7,338.3,316.4,338.5z M326.5,343.7
			c-0.3-0.2-0.6-0.2-0.9,0l-6,3.5c-0.2,0.1-0.2,0.4,0.1,0.5l6.2,3.6c0.3,0.1,0.6,0.1,0.9,0l6-3.5c0.3-0.1,0.3-0.4,0-0.5L326.5,343.7
			L326.5,343.7z M334.7,349l-6,3.5c-0.2,0.1-0.2,0.4,0.1,0.5l6.2,3.6c0.3,0.1,0.6,0.1,0.9,0l6-3.5c0.2-0.1,0.2-0.4-0.1-0.5l-6.2-3.6
			C335.3,348.9,335,348.9,334.7,349z M294.8,352.5l6-3.5c0.2-0.1,0.2-0.4-0.1-0.5l-6.2-3.6c-0.3-0.1-0.6-0.1-0.9,0l-6,3.5
			c-0.2,0.1-0.2,0.4,0.1,0.5l6.2,3.6C294.2,352.7,294.5,352.7,294.8,352.5z M207.7,275.7l-6,3.5c-0.2,0.1-0.2,0.4,0.1,0.5l6.2,3.6
			c0.3,0.1,0.6,0.1,0.9,0l6-3.5c0.2-0.1,0.2-0.4,0-0.5l-6.3-3.6C208.3,275.5,208,275.5,207.7,275.7z M219.7,282.1
			c-0.3-0.2-0.6-0.2-0.9-0.1l-6,3.5c-0.2,0.1-0.2,0.4,0,0.5l6.2,3.7c0.3,0.1,0.6,0.1,0.9,0l6-3.5c0.2-0.1,0.2-0.4,0-0.5L219.7,282.1
			L219.7,282.1z M198.6,270.4l-6,3.5c-0.2,0.1-0.2,0.4,0.1,0.5l6.2,3.6c0.3,0.1,0.6,0.1,0.9,0l6-3.5c0.2-0.1,0.2-0.4,0-0.5l-6.3-3.6
			C199.2,270.3,198.9,270.2,198.6,270.4z M250,317.3c0.3,0.1,0.6,0.1,0.9,0l6-3.5c0.2-0.1,0.2-0.4-0.1-0.5l-6.2-3.6
			c-0.3-0.1-0.6-0.1-0.9,0l-6,3.5c-0.2,0.1-0.2,0.4,0,0.5L250,317.3L250,317.3z M183.4,268.6c-0.2,0.1-0.2,0.4,0,0.5l6.2,3.6
			c0.3,0.1,0.6,0.1,0.9,0l6-3.5c0.2-0.1,0.2-0.4,0-0.5l-6.2-3.6c-0.3-0.1-0.6-0.1-0.9,0L183.4,268.6z M284.7,347.3
			c0.3,0.1,0.6,0.1,0.9,0l6-3.5c0.2-0.1,0.2-0.4,0-0.5l-6.3-3.6c-0.3-0.1-0.6-0.1-0.9,0l-6,3.5c-0.2,0.1-0.2,0.4,0.1,0.5
			L284.7,347.3L284.7,347.3z M172.7,282.6c0.3,0.1,0.6,0.1,0.8,0l6-3.5c0.3-0.1,0.3-0.4,0-0.5l-6.3-3.6c-0.3-0.1-0.6-0.1-0.9,0
			l-6,3.4c-0.2,0.1-0.2,0.4,0.1,0.5L172.7,282.6L172.7,282.6z M190.4,282.9c0.3,0.2,0.6,0.2,0.9,0.1l6-3.5c0.2-0.1,0.2-0.4-0.1-0.5
			l-6.2-3.7c-0.3-0.1-0.6-0.1-0.9,0l-6,3.5c-0.2,0.1-0.2,0.4,0,0.5L190.4,282.9L190.4,282.9z M174.9,273.5c-0.2,0.1-0.2,0.4,0,0.5
			l6.3,3.6c0.3,0.1,0.6,0.1,0.9,0l6-3.5c0.2-0.1,0.2-0.4-0.1-0.5l-6.2-3.6c-0.3-0.1-0.6-0.1-0.9,0L174.9,273.5z M179,268.9
			c0.2-0.1,0.2-0.4-0.1-0.6l-6.2-3.6c-0.3-0.1-0.6-0.1-0.9,0l-14.5,8.4c-0.2,0.1-0.2,0.4,0,0.5l6.2,3.6c0.3,0.1,0.6,0.1,0.9,0
			L179,268.9L179,268.9z M200.1,280.6c-0.3-0.2-0.6-0.2-0.9,0l-6,3.5c-0.2,0.1-0.2,0.4,0,0.5l6.2,3.6c0.3,0.1,0.6,0.1,0.9,0l6-3.5
			c0.3-0.1,0.3-0.4,0-0.5L200.1,280.6L200.1,280.6z M268.9,320.3c-0.3-0.1-0.6-0.1-0.9,0l-6,3.5c-0.3,0.1-0.3,0.4,0,0.5l6.2,3.6
			c0.3,0.1,0.6,0.1,0.9,0l6-3.5c0.2-0.1,0.2-0.4-0.1-0.5L268.9,320.3L268.9,320.3z M188.7,284.4c0.2-0.1,0.2-0.4,0-0.5l-6.3-3.6
			c-0.3-0.1-0.6-0.1-0.9,0l-6,3.5c-0.2,0.1-0.2,0.4,0.1,0.5l6.2,3.6c0.3,0.1,0.6,0.1,0.9,0L188.7,284.4z M259.7,315.1
			c-0.3-0.2-0.6-0.2-0.9,0l-6,3.5c-0.2,0.1-0.2,0.4,0.1,0.5l6.3,3.6c0.3,0.1,0.6,0.1,0.9,0l6-3.5c0.2-0.1,0.2-0.4-0.1-0.5
			L259.7,315.1L259.7,315.1z M337.4,370.2c0.2-0.1,0.2-0.4-0.1-0.5l-6.2-3.6c-0.3-0.1-0.6-0.1-0.9,0l-6,3.5
			c-0.2,0.1-0.2,0.4,0.1,0.5l6.2,3.6c0.3,0.1,0.6,0.1,0.9,0L337.4,370.2z M342,362.5c-0.3-0.2-0.7-0.2-1,0l-6,3.5
			c-0.2,0.1-0.2,0.4,0.1,0.5l6.2,3.6c0.3,0.1,0.6,0.1,0.9,0l6-3.5c0.3-0.1,0.3-0.4,0-0.5L342,362.5L342,362.5z M321.3,368.4
			c0.3,0.1,0.6,0.1,0.9,0l6-3.5c0.2-0.1,0.2-0.4-0.1-0.5l-6.2-3.6c-0.3-0.1-0.6-0.1-0.9,0l-6,3.5c-0.2,0.1-0.2,0.4,0.1,0.5
			L321.3,368.4L321.3,368.4z M312.2,363.1c0.3,0.1,0.6,0.1,0.9,0l6-3.5c0.2-0.1,0.2-0.4-0.1-0.5l-6.2-3.6c-0.3-0.1-0.6-0.1-0.9,0
			l-6,3.5c-0.2,0.1-0.2,0.4,0,0.5L312.2,363.1L312.2,363.1z M303,357.8c0.3,0.2,0.7,0.2,1,0l6-3.5c0.2-0.1,0.2-0.4-0.1-0.5l-6.2-3.6
			c-0.3-0.1-0.6-0.1-0.9,0l-6,3.5c-0.3,0.1-0.3,0.4,0,0.5L303,357.8L303,357.8z M332.8,357.3c-0.3-0.1-0.6-0.1-0.8,0l-6,3.5
			c-0.3,0.1-0.3,0.4,0,0.5l6.2,3.6c0.3,0.1,0.6,0.1,0.9,0l6-3.5c0.2-0.1,0.2-0.4-0.1-0.5L332.8,357.3L332.8,357.3z M323.7,352
			c-0.3-0.1-0.6-0.1-0.9,0l-6,3.5c-0.2,0.1-0.2,0.4,0,0.5l6.3,3.6c0.3,0.1,0.6,0.1,0.9,0l6-3.5c0.2-0.1,0.2-0.4-0.1-0.5L323.7,352
			L323.7,352z M287.1,330.9c-0.3-0.2-0.7-0.2-1,0l-6,3.5c-0.2,0.1-0.2,0.4,0.1,0.5l6.2,3.6c0.3,0.1,0.6,0.1,0.9,0l6-3.5
			c0.2-0.1,0.2-0.4,0-0.5L287.1,330.9L287.1,330.9z M296.3,336.2c-0.3-0.2-0.7-0.2-0.9,0l-6,3.5c-0.2,0.1-0.2,0.4,0.1,0.5l6.2,3.6
			c0.3,0.1,0.6,0.1,0.9,0l6-3.5c0.3-0.1,0.3-0.4,0-0.5L296.3,336.2L296.3,336.2z M278,325.6c-0.3-0.2-0.7-0.2-1,0l-6,3.5
			c-0.2,0.1-0.2,0.4,0.1,0.5l6.2,3.6c0.3,0.1,0.6,0.1,0.9,0l6-3.5c0.3-0.1,0.3-0.4,0-0.5L278,325.6L278,325.6z M313.6,346.7l-6,3.5
			c-0.2,0.1-0.2,0.4,0.1,0.5l6.3,3.6c0.3,0.1,0.6,0.1,0.9,0l6-3.5c0.2-0.1,0.2-0.4-0.1-0.5l-6.2-3.6
			C314.3,346.6,313.9,346.6,313.6,346.7z M304.5,341.4l-6,3.5c-0.2,0.1-0.2,0.4,0.1,0.5l6.2,3.6c0.3,0.1,0.6,0.1,0.9,0l6-3.5
			c0.2-0.1,0.2-0.4-0.1-0.5l-6.3-3.6C305.1,341.3,304.8,341.3,304.5,341.4z M318,375.8l6-3.5c0.2-0.1,0.2-0.4-0.1-0.5l-6.2-3.6
			c-0.3-0.1-0.6-0.1-0.9,0l-6,3.5c-0.2,0.1-0.2,0.4,0.1,0.5l6.3,3.6C317.4,375.9,317.7,376,318,375.8z M365.3,374.1l6.2,3.6
			c0.3,0.1,0.6,0.1,0.9,0l6-3.5c0.3-0.1,0.3-0.4,0-0.5l-6.2-3.6c-0.3-0.1-0.6-0.1-0.9,0l-6,3.5C365,373.7,365.1,373.9,365.3,374.1z
			 M353.4,376.5c-0.2,0.1-0.2,0.4,0,0.5l9.6,5.6c0.3,0.1,0.6,0.1,0.9,0l6-3.5c0.2-0.1,0.2-0.4-0.1-0.5l-9.6-5.5
			c-0.3-0.1-0.6-0.1-0.9,0L353.4,376.5L353.4,376.5z M374.2,366.7c-0.2,0.1-0.2,0.4,0,0.5l7.7,4.5c0.3,0.1,0.6,0.1,0.9,0l6-3.5
			c0.3-0.1,0.3-0.4,0-0.5l-7.7-4.4c-0.3-0.1-0.6-0.1-0.9,0L374.2,366.7L374.2,366.7z M374.3,359.9c0.2-0.1,0.2-0.4-0.1-0.5l-6.2-3.6
			c-0.3-0.1-0.6-0.1-0.9,0l-6,3.5c-0.2,0.1-0.2,0.4,0,0.5l6.3,3.6c0.3,0.1,0.6,0.1,0.9,0L374.3,359.9z M342.4,380.6l12,6.9
			c0.3,0.1,0.6,0.1,0.9,0l6-3.5c0.2-0.1,0.2-0.4,0-0.5l-12-7c-0.3-0.1-0.6-0.1-0.9,0l-6,3.5C342.2,380.2,342.2,380.4,342.4,380.6z
			 M338.2,387.5c-0.2,0.1-0.2,0.4,0,0.5l7.7,4.5c0.3,0.1,0.6,0.1,0.9,0l6-3.5c0.2-0.1,0.2-0.4-0.1-0.5l-7.7-4.4
			c-0.3-0.1-0.6-0.1-0.9,0L338.2,387.5L338.2,387.5z M306.3,320.6c0.3-0.1,0.3-0.4,0-0.5l-6.3-3.6c-0.3-0.1-0.6-0.1-0.9,0l-6,3.5
			c-0.2,0.1-0.2,0.4,0.1,0.5l6.2,3.6c0.3,0.1,0.6,0.1,0.9,0L306.3,320.6z M324.6,331.1c0.2-0.1,0.2-0.4-0.1-0.5l-6.2-3.6
			c-0.3-0.1-0.6-0.1-0.9,0l-5.9,3.5c-0.2,0.1-0.2,0.4,0,0.5l6.3,3.6c0.3,0.1,0.6,0.1,0.9,0L324.6,331.1z M365.1,354.5
			c0.3-0.1,0.3-0.4,0-0.5l-6.3-3.6c-0.3-0.1-0.6-0.1-0.9,0l-6,3.5c-0.2,0.1-0.2,0.4,0.1,0.5l6.2,3.6c0.3,0.1,0.6,0.1,0.9,0
			L365.1,354.5z M315.5,325.9c0.2-0.1,0.2-0.4,0-0.5l-6.3-3.6c-0.3-0.1-0.6-0.1-0.9,0l-6,3.5c-0.2,0.1-0.2,0.4,0.1,0.5l6.2,3.6
			c0.3,0.1,0.6,0.1,0.9,0L315.5,325.9z M333.8,336.5c0.2-0.1,0.2-0.4-0.1-0.5l-6.2-3.6c-0.3-0.1-0.6-0.1-0.9,0l-6,3.5
			c-0.2,0.1-0.2,0.4,0,0.5l6.3,3.6c0.3,0.1,0.6,0.1,0.9,0L333.8,336.5z M327.8,391.4c-0.3,0.1-0.3,0.4,0,0.5l9.6,5.5
			c0.3,0.1,0.6,0.1,0.9,0l6-3.5c0.2-0.1,0.2-0.4,0-0.5l-9.6-5.5c-0.3-0.1-0.6-0.1-0.9,0L327.8,391.4z M346.8,344
			c0.3-0.1,0.3-0.4,0-0.5l-6.3-3.6c-0.3-0.1-0.6-0.1-0.9,0l-6,3.5c-0.2,0.1-0.2,0.4,0.1,0.5l6.2,3.6c0.3,0.1,0.6,0.1,0.9,0
			L346.8,344z M356,349.3c0.2-0.1,0.2-0.4,0-0.5l-6.3-3.6c-0.3-0.1-0.6-0.1-0.9,0l-6,3.5c-0.2,0.1-0.2,0.4,0.1,0.5l6.2,3.6
			c0.3,0.1,0.6,0.1,0.9,0L356,349.3z M158.4,293.6c-0.2,0.1-0.2,0.4,0.1,0.5l15.4,8.9c0.3,0.1,0.6,0.1,0.9,0l6-3.5
			c0.2-0.1,0.2-0.4-0.1-0.5l-15.4-8.9c-0.3-0.1-0.6-0.1-0.9,0L158.4,293.6z M178.5,305.2c-0.2,0.1-0.2,0.4,0.1,0.5l6.2,3.6
			c0.3,0.1,0.6,0.1,0.9,0l6-3.5c0.3-0.1,0.3-0.4,0-0.5l-6.3-3.6c-0.3-0.1-0.6-0.1-0.9,0L178.5,305.2z M308.9,370.5l6-3.5
			c0.2-0.1,0.2-0.4-0.1-0.5l-6.2-3.6c-0.3-0.1-0.6-0.1-0.9,0l-6,3.5c-0.2,0.1-0.2,0.4,0.1,0.5l6.2,3.6
			C308.2,370.7,308.6,370.7,308.9,370.5z M196.9,315.8c-0.3,0.1-0.3,0.4,0,0.5l6.3,3.6c0.3,0.1,0.6,0.1,0.9,0l6-3.5
			c0.2-0.1,0.2-0.4-0.1-0.5l-6.2-3.7c-0.3-0.1-0.6-0.1-0.9,0L196.9,315.8z M149.3,288.3c-0.2,0.1-0.2,0.4,0.1,0.5l6.2,3.6
			c0.3,0.1,0.6,0.1,0.9,0l6-3.5c0.2-0.1,0.2-0.4,0-0.5l-6.3-3.6c-0.3-0.1-0.6-0.1-0.9,0L149.3,288.3z M140.2,283.6l6.2,3.6
			c0.3,0.1,0.6,0.1,0.9,0l14.5-8.4c0.2-0.1,0.2-0.4-0.1-0.5l-6.2-3.6c-0.3-0.1-0.6-0.1-0.9,0l-14.5,8.4
			C139.9,283.2,139.9,283.4,140.2,283.6z M231,335.5c-0.2,0.1-0.2,0.4,0,0.5l7.7,4.4c0.3,0.1,0.6,0.1,0.9,0l6-3.5
			c0.2-0.1,0.2-0.4,0-0.5l-7.7-4.5c-0.3-0.1-0.6-0.1-0.9,0L231,335.5z M207.9,322.1c-0.2,0.1-0.2,0.4,0.1,0.5l9.6,5.5
			c0.3,0.1,0.6,0.1,0.9,0l6-3.5c0.2-0.1,0.2-0.4-0.1-0.5l-9.6-5.6c-0.3-0.1-0.6-0.1-0.9,0L207.9,322.1z M252.1,347.7
			c-0.2,0.1-0.2,0.4,0.1,0.5l51.5,29.7c0.3,0.1,0.6,0.1,0.9,0l6-3.5c0.3-0.1,0.3-0.4,0-0.5l-51.5-29.8c-0.3-0.1-0.6-0.1-0.9,0
			L252.1,347.7z M306.5,379.1c-0.2,0.1-0.2,0.4,0.1,0.5l7.7,4.4c0.3,0.1,0.6,0.1,0.9,0l6-3.5c0.2-0.1,0.2-0.4,0-0.5l-7.7-4.4
			c-0.3-0.1-0.6-0.1-0.9,0L306.5,379.1z M241.6,341.6c-0.2,0.1-0.2,0.4,0,0.5l7.7,4.4c0.3,0.1,0.6,0.1,0.9,0l6-3.5
			c0.3-0.1,0.3-0.4,0-0.5l-7.7-4.4c-0.3-0.1-0.6-0.1-0.9,0L241.6,341.6z M317.1,385.2c-0.2,0.1-0.2,0.4,0.1,0.5l7.7,4.4
			c0.3,0.1,0.6,0.1,0.9,0l6-3.5c0.3-0.1,0.3-0.4,0-0.5l-7.7-4.4c-0.3-0.1-0.6-0.1-0.9,0L317.1,385.2z M220.4,329.4
			c-0.2,0.1-0.2,0.4,0,0.5l7.7,4.4c0.3,0.1,0.6,0.1,0.9,0l6-3.5c0.2-0.1,0.2-0.4-0.1-0.5l-7.7-4.5c-0.3-0.1-0.6-0.1-0.9,0
			L220.4,329.4z M187.7,310.5c-0.2,0.1-0.2,0.4,0.1,0.5l6.2,3.6c0.3,0.1,0.6,0.1,0.9,0l6-3.5c0.2-0.1,0.2-0.4-0.1-0.5l-6.2-3.6
			c-0.3-0.1-0.6-0.1-0.9,0L187.7,310.5z M173.3,292.8c0.3,0.1,0.6,0.1,0.9,0l6-3.5c0.2-0.1,0.2-0.4,0-0.5l-6.2-3.6
			c-0.3-0.1-0.6-0.1-0.9,0l-6,3.5c-0.2,0.1-0.2,0.4,0,0.5L173.3,292.8L173.3,292.8z M210.6,294.6c0.3,0.1,0.6,0.1,0.9,0l6-3.5
			c0.2-0.1,0.2-0.4-0.1-0.5l-6.2-3.7c-0.3-0.1-0.6-0.1-0.9,0l-6,3.5c-0.2,0.1-0.2,0.4,0,0.5L210.6,294.6L210.6,294.6z M234.8,328.3
			c0.3,0.1,0.6,0.1,0.9-0.1l6-3.5c0.2-0.1,0.2-0.4,0-0.5l-18.3-10.5c-0.3-0.1-0.6-0.1-0.9,0l-6,3.5c-0.2,0.1-0.2,0.4,0,0.5
			L234.8,328.3L234.8,328.3z M189.4,294.6c0.2-0.1,0.2-0.4,0-0.5l-6.2-3.6c-0.3-0.1-0.6-0.1-0.9,0l-6,3.5c-0.2,0.1-0.2,0.4,0,0.5
			l6.2,3.6c0.3,0.1,0.6,0.1,0.9,0L189.4,294.6z M191,293.1c0.3,0.2,0.7,0.2,1,0l6-3.5c0.2-0.1,0.2-0.4-0.1-0.5l-6.2-3.6
			c-0.3-0.1-0.6-0.1-0.9,0l-6,3.5c-0.3,0.1-0.3,0.4,0,0.5L191,293.1L191,293.1z M244,333.6c0.3,0.1,0.6,0.1,0.9,0l6-3.5
			c0.2-0.1,0.2-0.4-0.1-0.5l-6.2-3.6c-0.3-0.1-0.6-0.1-0.9,0l-6,3.5c-0.2,0.1-0.2,0.4,0.1,0.5L244,333.6L244,333.6z M209.5,306.3
			c0.2-0.1,0.2-0.4,0-0.5l-6.2-3.6c-0.3-0.1-0.6-0.1-0.9,0l-6,3.5c-0.2,0.1-0.2,0.4,0,0.5l6.3,3.6c0.3,0.1,0.6,0.1,0.9,0
			L209.5,306.3z M290.5,360l6-3.5c0.3-0.1,0.3-0.4,0-0.5l-6.2-3.6c-0.3-0.1-0.6-0.1-0.9,0l-6,3.5c-0.2,0.1-0.2,0.4,0.1,0.5l6.2,3.6
			C289.9,360.1,290.2,360.1,290.5,360z M280.5,354.7c0.3,0.1,0.6,0.2,0.9,0l6-3.5c0.2-0.1,0.2-0.4,0-0.5l-6.2-3.6
			c-0.3-0.1-0.6-0.1-0.9,0l-6,3.5c-0.3,0.1-0.3,0.4,0,0.5L280.5,354.7L280.5,354.7z M298.8,365.2c0.3,0.1,0.6,0.1,0.9,0l6-3.5
			c0.2-0.1,0.2-0.4,0-0.5l-6.3-3.6c-0.3-0.1-0.6-0.1-0.9,0l-6,3.5c-0.2,0.1-0.2,0.4,0.1,0.5L298.8,365.2L298.8,365.2z M262.3,344.1
			c0.3,0.2,0.7,0.2,1,0l6-3.5c0.2-0.1,0.2-0.4-0.1-0.5l-6.2-3.6c-0.3-0.1-0.6-0.1-0.9,0l-6,3.5c-0.3,0.1-0.3,0.4,0,0.5L262.3,344.1
			L262.3,344.1z M272.2,349.4l6-3.5c0.3-0.1,0.3-0.4,0-0.5l-6.2-3.6c-0.3-0.1-0.6-0.1-0.9,0l-6,3.5c-0.2,0.1-0.2,0.4,0.1,0.5
			l6.2,3.6C271.6,349.5,271.9,349.5,272.2,349.4z M253.1,338.9c0.3,0.1,0.6,0.1,0.9,0l6-3.5c0.2-0.1,0.2-0.4-0.1-0.5l-6.2-3.6
			c-0.3-0.1-0.6-0.1-0.9,0l-6,3.5c-0.2,0.1-0.2,0.4,0,0.5L253.1,338.9L253.1,338.9z M204.8,264.5c0.2-0.1,0.2-0.4,0-0.5l-6.3-3.6
			c-0.3-0.1-0.6-0.1-0.9,0l-1.6,0.9c-0.2,0.1-0.2,0.4,0.1,0.5l6.2,3.6c0.3,0.1,0.6,0.1,0.9,0L204.8,264.5z M254.6,290.8
			c0.3-0.1,0.3-0.4,0-0.5l-6.3-3.6c-0.3-0.1-0.6-0.1-0.9,0l-6,3.5c-0.2,0.1-0.2,0.4,0.1,0.5l6.2,3.6c0.3,0.1,0.6,0.1,0.9,0
			L254.6,290.8z M236.4,280.2c0.2-0.1,0.2-0.4,0-0.5l-6.3-3.6c-0.3-0.1-0.6-0.1-0.9,0l-6,3.5c-0.2,0.1-0.2,0.4,0,0.5l6.2,3.6
			c0.3,0.1,0.6,0.1,0.9,0L236.4,280.2z M265.7,297.2c0.3-0.1,0.3-0.4,0-0.5l-6.3-3.6c-0.3-0.1-0.6-0.1-0.9,0l-6,3.5
			c-0.2,0.1-0.2,0.4,0.1,0.5l6.2,3.6c0.3,0.1,0.6,0.1,0.9,0L265.7,297.2z M245.5,285.5c0.3-0.1,0.3-0.4,0-0.5l-6.2-3.6
			c-0.3-0.1-0.6-0.1-0.9,0l-6,3.5c-0.2,0.1-0.2,0.4,0,0.5l6.2,3.6c0.3,0.1,0.6,0.1,0.9,0L245.5,285.5z M284.1,307.8
			c0.2-0.1,0.2-0.4-0.1-0.5l-6.2-3.6c-0.3-0.1-0.6-0.1-0.9,0l-6,3.5c-0.2,0.1-0.2,0.4,0.1,0.5l6.3,3.6c0.3,0.1,0.6,0.1,0.9,0
			L284.1,307.8z M274.9,302.5c0.2-0.1,0.2-0.4-0.1-0.5l-6.2-3.6c-0.3-0.1-0.6-0.1-0.9,0l-6,3.5c-0.2,0.1-0.2,0.4,0.1,0.5l6.2,3.6
			c0.3,0.1,0.6,0.1,0.9,0L274.9,302.5z M223.1,275.1c0.2-0.1,0.2-0.4-0.1-0.5l-6.2-3.6c-0.3-0.1-0.6-0.1-0.9,0l-1.6,0.9
			c-0.2,0.1-0.2,0.4,0,0.5l6.3,3.6c0.3,0.1,0.6,0.1,0.9,0L223.1,275.1z M195.6,259.3c0.3-0.1,0.3-0.4,0-0.5l-6.3-3.6
			c-0.3-0.1-0.6-0.1-0.9,0l-1.6,0.9c-0.2,0.1-0.2,0.4,0.1,0.5l6.2,3.6c0.3,0.1,0.6,0.1,0.9,0L195.6,259.3z M187.6,264
			c0.2-0.1,0.2-0.4,0-0.5l-6.2-3.6c-0.3-0.1-0.6-0.1-0.9,0l-6,3.5c-0.3,0.1-0.3,0.4,0,0.5l6.2,3.6c0.3,0.1,0.6,0.1,0.9,0L187.6,264z
			 M164.1,287.5c0.3,0.2,0.7,0.1,0.9,0l6-3.5c0.2-0.1,0.2-0.4,0-0.5l-6.2-3.6c-0.3-0.1-0.6-0.1-0.9,0l-6,3.5c-0.3,0.1-0.3,0.4,0,0.5
			L164.1,287.5L164.1,287.5z M213.9,269.8c0.2-0.1,0.2-0.4-0.1-0.5l-6.2-3.6c-0.3-0.1-0.6-0.1-0.9,0l-1.6,0.9
			c-0.2,0.1-0.2,0.4,0,0.5l6.3,3.6c0.3,0.1,0.6,0.1,0.9,0L213.9,269.8z M293.2,313.1c0.2-0.1,0.2-0.4-0.1-0.5l-6.2-3.6
			c-0.3-0.1-0.6-0.1-0.9,0l-6,3.5c-0.2,0.1-0.2,0.4,0,0.5l6.3,3.6c0.3,0.1,0.6,0.1,0.9,0L293.2,313.1z"/>
		<polygon class="st10" points="198.4,328 163,348.4 164.3,349.1 224.9,384 258.9,364.4 260.2,363.6 		"/>
		<polygon class="st8" points="198.4,329.4 164.3,349.1 224.9,384 258.9,364.4 		"/>
	</g>
</g>
<g id="freepik--window-1--inject-25">
	<g id="freepik--Window--inject-25">
		<g id="freepik--window--inject-25">
			<path class="st11" d="M192.5,76.6v153c0.2,2.8,1.6,5.4,4,7l199.2,114.7l3.8,2.2l0,0l0.1,0.1c0.4,0.2,0.9,0.4,1.3,0.4
				c0.2,0,0.3,0,0.5-0.1c0.1,0,0.2-0.1,0.3-0.1l0.2-0.1l0.2-0.1c0.9-0.5,1.5-1.4,1.5-2.4l0-151c0-4.5-1.8-7.6-4-8.9L196.4,74.2
				c-0.8-0.6-1.8-0.7-2.7-0.3c-0.1,0.1-0.2,0.1-0.4,0.2l0,0c-0.1,0.1-0.2,0.2-0.3,0.3c0,0-0.1,0.1-0.1,0.1c-0.1,0.1-0.1,0.1-0.1,0.2
				c-0.1,0.2-0.2,0.3-0.2,0.5c0,0.1-0.1,0.2-0.1,0.4c0,0,0,0.1,0,0.1c0,0.1-0.1,0.2-0.1,0.4C192.5,76.2,192.5,76.4,192.5,76.6z"/>
			<path class="st2" d="M198.7,71.1c0.9-0.5,2.1-0.4,2.9,0.2l203.2,117c2.4,1.6,3.9,4.2,4,7v7.7l-5.1,3v-7.9c-0.2-2.8-1.6-5.4-4-7
				L196.5,74.2c-0.8-0.6-1.8-0.7-2.7-0.3C194.6,73.4,198,71.5,198.7,71.1z"/>
			<path class="st2" d="M192.4,84.4L403.7,206v-7.9c-0.1-2.8-1.6-5.4-4-7L196.4,74.2c-2.2-1.3-4-0.2-4,2.3V84.4z"/>
			<g class="st12">
				<path class="st4" d="M193.8,73.9c0.9-0.5,4.2-2.4,4.9-2.8c0.9-0.5,2.1-0.4,2.9,0.2l203.2,116.9c1.2,0.7,2.1,1.7,2.8,2.9l-5.1,3
					c-0.7-1.2-1.7-2.3-2.9-3L196.5,74.2C195.7,73.7,194.7,73.5,193.8,73.9z"/>
			</g>
			<path class="st3" d="M403.7,206v-7.8c0-1.4-0.5-2.8-1.2-4l5.1-3c0.7,1.2,1.2,2.6,1.2,4v7.8L403.7,206z"/>
			<path class="st9" d="M206.8,86.3c0,1.3,0.5,2.5,1.5,3.2c0.9,0.5,1.5-0.2,1.5-1.5c0-1.3-0.5-2.5-1.5-3.2
				C207.5,84.3,206.8,85,206.8,86.3z"/>
			<path class="st9" d="M201.3,83.1c0,1.3,0.5,2.5,1.5,3.2c0.9,0.5,1.5-0.2,1.5-1.5c0-1.3-0.5-2.5-1.5-3.2
				C202,81.1,201.3,81.8,201.3,83.1z"/>
			<path class="st9" d="M195.8,79.9c0,1.3,0.5,2.5,1.5,3.2c0.8,0.5,1.5-0.2,1.5-1.5c0-1.3-0.5-2.5-1.5-3.2
				C196.5,77.9,195.8,78.6,195.8,79.9z"/>
			<path class="st13" d="M402.3,353.5L402.3,353.5c0,0,0.1-0.1,0.1-0.1c0.8-0.5,1.3-1.4,1.3-2.3l0-145.1l5.2-3l0,144.3
				c0,0.2,0,0.4,0,0.6c-0.2,1.3-1,2.5-2.1,3.1l-4.2,2.4L402.3,353.5L402.3,353.5z"/>
		</g>
		<g id="freepik--code--inject-25" class="st14">
			<path class="st2" d="M378.9,201.7c0,0.6-0.4,0.8-1,0.5L338,179.1c-0.6-0.4-1-1-1-1.7c0-0.6,0.4-0.8,1-0.5l39.9,23.1
				C378.5,200.4,378.9,201,378.9,201.7z"/>
			<path class="st2" d="M379,228.2c0,0.6-0.5,0.8-1,0.5l-117.5-67.8c-0.6-0.4-1-1-1-1.7c0-0.6,0.4-0.8,1-0.5L378,226.5
				C378.5,226.8,378.9,227.5,379,228.2z"/>
			<path class="st2" d="M335.1,176.4c0,0.6-0.4,0.8-1,0.5l-74.3-42.7c-0.6-0.4-1-1-1-1.7c0-0.6,0.4-0.8,1-0.5l74.3,42.7
				C334.6,175,335,175.7,335.1,176.4z"/>
			<path class="st2" d="M378.9,208c0,0.6-0.4,0.8-1,0.5l-20.2-11.7c-0.6-0.4-1-1-1-1.7c0-0.6,0.4-0.8,1-0.5l20.2,11.7
				C378.5,206.7,378.9,207.3,378.9,208z"/>
			<path class="st15" d="M378.9,208c0,0.6-0.4,0.8-1,0.5l-20.2-11.7c-0.6-0.4-1-1-1-1.7c0-0.6,0.4-0.8,1-0.5l20.2,11.7
				C378.5,206.7,378.9,207.3,378.9,208z"/>
			<path class="st2" d="M378.9,214.2c0,0.6-0.4,0.8-1,0.5l-12.1-7c-0.6-0.4-1-1-1-1.7c0-0.6,0.4-0.8,1-0.5l12.1,7
				C378.5,212.9,378.9,213.5,378.9,214.2z"/>
			<path class="st15" d="M378.9,214.2c0,0.6-0.4,0.8-1,0.5l-12.1-7c-0.6-0.4-1-1-1-1.7c0-0.6,0.4-0.8,1-0.5l12.1,7
				C378.5,212.9,378.9,213.5,378.9,214.2z"/>
			<path class="st2" d="M354.8,194c0,0.6-0.4,0.8-1,0.5L283.4,154c-0.6-0.4-1-1-1-1.7c0-0.6,0.4-0.8,1-0.5l70.4,40.5
				C354.4,192.7,354.7,193.3,354.8,194z"/>
			<path class="st15" d="M354.8,194c0,0.6-0.4,0.8-1,0.5L283.4,154c-0.6-0.4-1-1-1-1.7c0-0.6,0.4-0.8,1-0.5l70.4,40.5
				C354.4,192.7,354.7,193.3,354.8,194z"/>
			<path class="st16" d="M368.4,244.7c0,0.6-0.4,0.8-1,0.5l-107.6-62.2c-0.6-0.4-1-1-1-1.7c0-0.6,0.4-0.8,1-0.5l107.6,62.2
				C367.9,243.4,368.3,244,368.4,244.7z"/>
			<path class="st16" d="M368.4,238.5c0,0.6-0.4,0.8-1,0.5l-107.6-62.2c-0.6-0.4-1-1-1-1.7c0-0.6,0.4-0.8,1-0.5l107.6,62.2
				C367.9,237.2,368.3,237.8,368.4,238.5z"/>
			<path class="st2" d="M363.5,205.4c0,0.6-0.4,0.8-1,0.5l-20-11.6c-0.6-0.4-1-1-1-1.7c0-0.6,0.4-0.8,1-0.5l20,11.6
				C363.1,204.1,363.5,204.7,363.5,205.4z"/>
			<path class="st15" d="M363.5,205.4c0,0.6-0.4,0.8-1,0.5l-20-11.6c-0.6-0.4-1-1-1-1.7c0-0.6,0.4-0.8,1-0.5l20,11.6
				C363.1,204.1,363.5,204.7,363.5,205.4z"/>
			<path class="st2" d="M339.6,191.5c0,0.6-0.4,0.8-1,0.5l-78.2-44.8c-0.6-0.4-1-1-1-1.7c0-0.6,0.4-0.8,1-0.5l78.2,44.8
				C339.2,190.2,339.5,190.8,339.6,191.5z"/>
			<path class="st15" d="M339.6,191.5c0,0.6-0.4,0.8-1,0.5l-78.2-44.8c-0.6-0.4-1-1-1-1.7c0-0.6,0.4-0.8,1-0.5l78.2,44.8
				C339.2,190.2,339.5,190.8,339.6,191.5z"/>
			<path class="st2" d="M379,220.8c0,0.6-0.5,0.8-1,0.5L342.5,201c-0.6-0.4-1-1-1-1.7c0-0.6,0.4-0.8,1-0.5l35.4,20.3
				C378.5,219.5,378.9,220.1,379,220.8z"/>
			<path class="st15" d="M379,220.8c0,0.6-0.5,0.8-1,0.5L342.5,201c-0.6-0.4-1-1-1-1.7c0-0.6,0.4-0.8,1-0.5l35.4,20.3
				C378.5,219.5,378.9,220.1,379,220.8z"/>
			<path class="st2" d="M339.6,198.2c0,0.6-0.4,0.8-1,0.5l-78.2-44.8c-0.6-0.4-1-1-1-1.7c0-0.6,0.4-0.8,1-0.5l78.2,44.8
				C339.2,196.9,339.5,197.5,339.6,198.2z"/>
			<path class="st15" d="M339.6,198.2c0,0.6-0.4,0.8-1,0.5l-78.2-44.8c-0.6-0.4-1-1-1-1.7c0-0.6,0.4-0.8,1-0.5l78.2,44.8
				C339.2,196.9,339.5,197.5,339.6,198.2z"/>
			<path class="st17" d="M368.4,251.1c0,0.6-0.4,0.8-1,0.5l-107.6-62c-0.6-0.4-1-1-1-1.7c0-0.6,0.4-0.8,1-0.5l107.6,62
				C367.9,249.8,368.3,250.4,368.4,251.1z"/>
			<path class="st17" d="M368.4,257.3c0,0.6-0.4,0.8-1,0.5l-107.6-62c-0.6-0.4-1-1-1-1.7c0-0.6,0.4-0.8,1-0.5l107.6,62
				C367.9,256,368.3,256.6,368.4,257.3z"/>
			<path class="st17" d="M368.4,263.6c0,0.6-0.4,0.8-1,0.5l-107.6-62c-0.6-0.4-1-1-1-1.7c0-0.6,0.4-0.8,1-0.5l107.6,62
				C367.9,262.3,368.3,262.9,368.4,263.6z"/>
			<path class="st2" d="M368.4,271.9c0,0.6-0.5,0.8-1,0.5l-107.6-62c-0.6-0.4-1-1-1-1.7c0-0.6,0.4-0.8,1-0.5l107.6,62
				C367.9,270.6,368.3,271.2,368.4,271.9z"/>
			<path class="st2" d="M378.7,277.8c0,0.6-0.5,0.8-1,0.5l-4.7-2.7c-0.6-0.4-0.9-1-1-1.7c0-0.6,0.4-0.8,1-0.5l4.7,2.7
				C378.3,276.5,378.7,277.1,378.7,277.8z"/>
			<path class="st15" d="M378.7,277.8c0,0.6-0.5,0.8-1,0.5l-4.7-2.7c-0.6-0.4-0.9-1-1-1.7c0-0.6,0.4-0.8,1-0.5l4.7,2.7
				C378.3,276.5,378.7,277.1,378.7,277.8z"/>
			<path class="st2" d="M378.7,283.5c0,0.6-0.5,0.8-1,0.5l-4.7-2.7c-0.6-0.4-0.9-1-1-1.7c0-0.6,0.4-0.8,1-0.5l4.7,2.7
				C378.3,282.2,378.7,282.8,378.7,283.5z"/>
			<path class="st15" d="M378.7,283.5c0,0.6-0.5,0.8-1,0.5l-4.7-2.7c-0.6-0.4-0.9-1-1-1.7c0-0.6,0.4-0.8,1-0.5l4.7,2.7
				C378.3,282.2,378.7,282.8,378.7,283.5z"/>
			<path class="st16" d="M368.4,277.6c0,0.6-0.5,0.8-1,0.5L259.8,216c-0.6-0.4-1-1-1-1.7c0-0.6,0.4-0.8,1-0.5L367.4,276
				C367.9,276.4,368.3,277,368.4,277.6z"/>
			<path class="st2" d="M367.9,318.4c0,0.6-0.4,0.8-1,0.5L338,302.2c-0.6-0.4-1-1-1-1.7c0-0.6,0.4-0.8,1-0.5l28.9,16.6
				C367.5,317,367.8,317.7,367.9,318.4z"/>
			<path class="st2" d="M335.1,299.3c0,0.6-0.4,0.8-1,0.5l-74.3-42.6c-0.6-0.4-1-1-1-1.7c0-0.6,0.4-0.8,1-0.5l74.3,42.6
				C334.6,298,335,298.6,335.1,299.3z"/>
			<path class="st2" d="M378.7,324.5c0,0.6-0.5,0.8-1,0.5l-4.7-2.7c-0.6-0.4-1-1-1-1.7c0-0.6,0.4-0.8,1-0.5l4.7,2.7
				C378.3,323.2,378.7,323.8,378.7,324.5z"/>
			<path class="st15" d="M378.7,324.5c0,0.6-0.5,0.8-1,0.5l-4.7-2.7c-0.6-0.4-1-1-1-1.7c0-0.6,0.4-0.8,1-0.5l4.7,2.7
				C378.3,323.2,378.7,323.8,378.7,324.5z"/>
			<path class="st2" d="M378.7,330.2c0,0.6-0.5,0.8-1,0.5L373,328c-0.6-0.4-1-1-1-1.7c0-0.6,0.4-0.8,1-0.5l4.7,2.7
				C378.3,328.9,378.7,329.5,378.7,330.2z"/>
			<path class="st15" d="M378.7,330.2c0,0.6-0.5,0.8-1,0.5L373,328c-0.6-0.4-1-1-1-1.7c0-0.6,0.4-0.8,1-0.5l4.7,2.7
				C378.3,328.9,378.7,329.5,378.7,330.2z"/>
			<path class="st16" d="M367.9,323.8c0,0.6-0.4,0.8-1,0.5l-106.7-61.6c-0.6-0.4-1-1-1-1.7c0-0.6,0.4-0.8,1-0.5l106.7,61.5
				C367.5,322.4,367.9,323.1,367.9,323.8z"/>
			<path class="st2" d="M368.2,291c0,0.6-0.4,0.8-1,0.5l-107.4-61.8c-0.6-0.4-1-1-1-1.7c0-0.6,0.4-0.8,1-0.5l107.4,61.8
				C367.8,289.7,368.2,290.3,368.2,291z"/>
			<path class="st2" d="M378.7,297c0,0.6-0.5,0.8-1,0.5l-4.7-2.7c-0.6-0.4-1-1-1-1.7c0-0.6,0.4-0.8,1-0.5l4.7,2.7
				C378.3,295.7,378.7,296.3,378.7,297z"/>
			<path class="st15" d="M378.7,297c0,0.6-0.5,0.8-1,0.5l-4.7-2.7c-0.6-0.4-1-1-1-1.7c0-0.6,0.4-0.8,1-0.5l4.7,2.7
				C378.3,295.7,378.7,296.3,378.7,297z"/>
			<path class="st2" d="M368.2,297.2c0,0.6-0.4,0.8-1,0.5l-107.4-61.9c-0.6-0.4-1-1-1-1.7c0-0.6,0.4-0.8,1-0.5l107.4,61.9
				C367.8,295.9,368.2,296.5,368.2,297.2z"/>
			<path class="st2" d="M378.7,303.2c0,0.6-0.5,0.8-1,0.5L373,301c-0.6-0.4-1-1-1-1.7c0-0.6,0.4-0.8,1-0.5l4.7,2.7
				C378.3,301.9,378.7,302.5,378.7,303.2z"/>
			<path class="st15" d="M378.7,303.2c0,0.6-0.5,0.8-1,0.5L373,301c-0.6-0.4-1-1-1-1.7c0-0.6,0.4-0.8,1-0.5l4.7,2.7
				C378.3,301.9,378.7,302.5,378.7,303.2z"/>
			<path class="st17" d="M368.2,303.5c0,0.6-0.4,0.8-1,0.5l-107.4-61.9c-0.6-0.4-1-1-1-1.7c0-0.6,0.4-0.8,1-0.5l107.4,61.8
				C367.8,302.2,368.2,302.8,368.2,303.5z"/>
			<path class="st2" d="M378.7,309.5c0,0.6-0.5,0.8-1,0.5l-4.7-2.7c-0.6-0.4-1-1-1-1.7c0-0.6,0.4-0.8,1-0.5l4.7,2.7
				C378.3,308.2,378.7,308.8,378.7,309.5z"/>
			<path class="st15" d="M378.7,309.5c0,0.6-0.5,0.8-1,0.5l-4.7-2.7c-0.6-0.4-1-1-1-1.7c0-0.6,0.4-0.8,1-0.5l4.7,2.7
				C378.3,308.2,378.7,308.8,378.7,309.5z"/>
			<g class="st12">
				<path class="st4" d="M393.3,290.9v2c0,0.6-0.5,0.9-1,0.6l-5.5-3.2c-0.6-0.4-1-1-1-1.7v-2c0-0.6,0.4-0.9,1-0.6l5.5,3.2
					C392.9,289.5,393.3,290.2,393.3,290.9z"/>
				<path class="st4" d="M393.3,298.9v2c0,0.6-0.5,0.9-1,0.6l-5.5-3.2c-0.6-0.4-1-1-1-1.7v-2c0-0.6,0.4-0.9,1-0.6l5.5,3.2
					C392.9,297.6,393.3,298.2,393.3,298.9z"/>
				<path class="st4" d="M393.3,307v2c0,0.6-0.5,0.9-1,0.6l-5.5-3.2c-0.6-0.4-1-1-1-1.7v-2c0-0.6,0.4-0.9,1-0.6l5.5,3.2
					C392.9,305.6,393.3,306.3,393.3,307z"/>
				<path class="st4" d="M393.3,315v2c0,0.6-0.5,0.9-1,0.6l-5.5-3.2c-0.6-0.4-1-1-1-1.7v-2c0-0.6,0.4-0.9,1-0.6l5.5,3.2
					C392.9,313.7,393.3,314.3,393.3,315z"/>
			</g>
			<path class="st2" d="M378.7,243.5c0,0.6-0.5,0.8-1,0.5l-4.7-2.7c-0.6-0.4-0.9-1-1-1.7c0-0.6,0.4-0.8,1-0.5l4.7,2.7
				C378.3,242.2,378.7,242.9,378.7,243.5z"/>
			<path class="st15" d="M378.7,243.5c0,0.6-0.5,0.8-1,0.5l-4.7-2.7c-0.6-0.4-0.9-1-1-1.7c0-0.6,0.4-0.8,1-0.5l4.7,2.7
				C378.3,242.2,378.7,242.9,378.7,243.5z"/>
			<path class="st2" d="M378.7,257c0,0.6-0.5,0.8-1,0.5l-4.7-2.7c-0.6-0.4-1-1-1-1.7c0-0.6,0.4-0.8,1-0.5l4.7,2.7
				C378.3,255.7,378.7,256.3,378.7,257z"/>
			<path class="st15" d="M378.7,257c0,0.6-0.5,0.8-1,0.5l-4.7-2.7c-0.6-0.4-1-1-1-1.7c0-0.6,0.4-0.8,1-0.5l4.7,2.7
				C378.3,255.7,378.7,256.3,378.7,257z"/>
			<path class="st2" d="M378.7,263.3c0,0.6-0.5,0.8-1,0.5l-4.7-2.7c-0.6-0.4-1-1-1-1.7c0-0.6,0.4-0.8,1-0.5l4.7,2.7
				C378.3,262,378.7,262.6,378.7,263.3z"/>
			<path class="st15" d="M378.7,263.3c0,0.6-0.5,0.8-1,0.5l-4.7-2.7c-0.6-0.4-1-1-1-1.7c0-0.6,0.4-0.8,1-0.5l4.7,2.7
				C378.3,262,378.7,262.6,378.7,263.3z"/>
			<path class="st2" d="M378.7,269.6c0,0.6-0.5,0.8-1,0.5l-4.7-2.7c-0.6-0.4-1-1-1-1.7c0-0.6,0.4-0.8,1-0.5l4.7,2.7
				C378.3,268.3,378.7,268.9,378.7,269.6z"/>
			<path class="st15" d="M378.7,269.6c0,0.6-0.5,0.8-1,0.5l-4.7-2.7c-0.6-0.4-1-1-1-1.7c0-0.6,0.4-0.8,1-0.5l4.7,2.7
				C378.3,268.3,378.7,268.9,378.7,269.6z"/>
			<g class="st12">
				<path class="st4" d="M393.3,250.9v2c0,0.6-0.4,0.9-1,0.6l-5.5-3.2c-0.6-0.4-1-1-1-1.7v-2c0-0.6,0.5-0.9,1-0.6l5.5,3.2
					C392.9,249.6,393.3,250.2,393.3,250.9z"/>
				<path class="st4" d="M393.3,259v2c0,0.6-0.4,0.9-1,0.6l-5.5-3.2c-0.6-0.4-1-1-1-1.7v-2c0-0.6,0.5-0.9,1-0.6l5.5,3.2
					C392.9,257.6,393.3,258.3,393.3,259z"/>
				<path class="st4" d="M393.3,267v2c0,0.6-0.5,0.9-1,0.6l-5.5-3.2c-0.6-0.4-1-1-1-1.7v-2c0-0.6,0.5-0.9,1-0.6l5.5,3.2
					C392.9,265.7,393.3,266.3,393.3,267z"/>
				<path class="st4" d="M393.3,275.1v2c0,0.6-0.5,0.9-1,0.6l-5.5-3.2c-0.6-0.4-1-1-1-1.7v-2c0-0.6,0.4-0.9,1-0.6l5.5,3.2
					C392.9,273.7,393.3,274.4,393.3,275.1z"/>
				<path class="st4" d="M393.3,330.8v2c0,0.6-0.5,0.9-1,0.6l-5.5-3.2c-0.6-0.4-1-1-1-1.7v-2c0-0.6,0.4-0.9,1-0.6l5.5,3.2
					C392.9,329.5,393.3,330.1,393.3,330.8z"/>
				<path class="st4" d="M393.3,338.9v2c0,0.6-0.5,0.9-1,0.6l-5.5-3.2c-0.6-0.4-1-1-1-1.7v-2c0-0.6,0.4-0.9,1-0.6l5.5,3.2
					C392.9,337.5,393.3,338.1,393.3,338.9z"/>
			</g>
			<g class="st12">
				<path class="st4" d="M393.3,211v2c0,0.6-0.4,0.9-1,0.6l-5.5-3.2c-0.6-0.4-1-1-1-1.7v-2c0-0.6,0.5-0.9,1-0.6l5.5,3.2
					C392.9,209.7,393.3,210.3,393.3,211z"/>
				<path class="st4" d="M393.3,219.1v2c0,0.6-0.4,0.9-1,0.6l-5.5-3.2c-0.6-0.4-1-1-1-1.7v-2c0-0.6,0.5-0.9,1-0.6l5.5,3.2
					C392.9,217.7,393.3,218.4,393.3,219.1z"/>
				<path class="st4" d="M393.3,227.1v2c0,0.6-0.4,0.9-1,0.6l-5.5-3.2c-0.6-0.4-1-1-1-1.7v-2c0-0.6,0.5-0.9,1-0.6l5.5,3.2
					C392.9,225.8,393.3,226.4,393.3,227.1z"/>
				<path class="st4" d="M393.3,235.2v2c0,0.6-0.4,0.9-1,0.6l-5.5-3.2c-0.6-0.4-1-1-1-1.7v-2c0-0.6,0.5-0.9,1-0.6l5.5,3.2
					C392.9,233.8,393.3,234.5,393.3,235.2z"/>
			</g>
			<path class="st8" d="M201.6,161.9v63.6c0.1,2,1.2,3.8,2.8,4.9l42.2,24.4c1.6,0.9,2.8,0.2,2.8-1.6v-63.6c-0.1-2-1.2-3.8-2.8-4.9
				l-42.2-24.4C202.9,159.3,201.6,160.1,201.6,161.9z"/>
			<path class="st2" d="M206.9,209.3c0.1,1,0.6,1.9,1.4,2.4l3.9,2.2c0.8,0.5,1.4,0.1,1.4-0.7c-0.1-1-0.6-1.9-1.4-2.4l-3.9-2.2
				C207.6,208.1,206.9,208.4,206.9,209.3z"/>
			<path class="st15" d="M206.9,209.3c0.1,1,0.6,1.9,1.4,2.4l3.9,2.2c0.8,0.5,1.4,0.1,1.4-0.7c-0.1-1-0.6-1.9-1.4-2.4l-3.9-2.2
				C207.6,208.1,206.9,208.4,206.9,209.3z"/>
			<path class="st2" d="M206.9,169.4c0.1,1,0.6,1.9,1.4,2.4l3.9,2.2c0.8,0.5,1.4,0.1,1.4-0.7c-0.1-1-0.6-1.9-1.4-2.4l-3.9-2.2
				C207.6,168.2,206.9,168.5,206.9,169.4z"/>
			<path class="st15" d="M206.9,169.4c0.1,1,0.6,1.9,1.4,2.4l3.9,2.2c0.8,0.5,1.4,0.1,1.4-0.7c-0.1-1-0.6-1.9-1.4-2.4l-3.9-2.2
				C207.6,168.2,206.9,168.5,206.9,169.4z"/>
			<path class="st2" d="M212.4,180.5c0.1,1,0.6,1.9,1.4,2.4l3.9,2.2c0.8,0.4,1.4,0.1,1.4-0.7c-0.1-1-0.6-1.9-1.4-2.4l-3.9-2.2
				C213,179.3,212.4,179.6,212.4,180.5z"/>
			<path class="st15" d="M212.4,180.5c0.1,1,0.6,1.9,1.4,2.4l3.9,2.2c0.8,0.4,1.4,0.1,1.4-0.7c-0.1-1-0.6-1.9-1.4-2.4l-3.9-2.2
				C213,179.3,212.4,179.6,212.4,180.5z"/>
			<path class="st2" d="M212.4,188.5c0.1,1,0.6,1.9,1.4,2.4l3.9,2.2c0.8,0.5,1.4,0.1,1.4-0.7c-0.1-1-0.6-1.9-1.4-2.4l-3.9-2.3
				C213,187.3,212.4,187.6,212.4,188.5z"/>
			<path class="st15" d="M212.4,188.5c0.1,1,0.6,1.9,1.4,2.4l3.9,2.2c0.8,0.5,1.4,0.1,1.4-0.7c-0.1-1-0.6-1.9-1.4-2.4l-3.9-2.3
				C213,187.3,212.4,187.6,212.4,188.5z"/>
			<path class="st2" d="M206.9,193.3c0.1,1,0.6,1.9,1.4,2.4l3.9,2.2c0.8,0.5,1.4,0.1,1.4-0.7c-0.1-1-0.6-1.9-1.4-2.4l-3.9-2.2
				C207.6,192.1,206.9,192.4,206.9,193.3z"/>
			<path class="st15" d="M206.9,193.3c0.1,1,0.6,1.9,1.4,2.4l3.9,2.2c0.8,0.5,1.4,0.1,1.4-0.7c-0.1-1-0.6-1.9-1.4-2.4l-3.9-2.2
				C207.6,192.1,206.9,192.4,206.9,193.3z"/>
			<path class="st2" d="M212.4,204.5c0.1,1,0.6,1.9,1.4,2.4l3.9,2.2c0.8,0.5,1.4,0.1,1.4-0.7c-0.1-1-0.6-1.9-1.4-2.4l-3.9-2.3
				C213,203.3,212.4,203.6,212.4,204.5z"/>
			<path class="st15" d="M212.4,204.5c0.1,1,0.6,1.9,1.4,2.4l3.9,2.2c0.8,0.5,1.4,0.1,1.4-0.7c-0.1-1-0.6-1.9-1.4-2.4l-3.9-2.3
				C213,203.3,212.4,203.6,212.4,204.5z"/>
			<path class="st2" d="M217.6,175.5c0.1,1,0.6,1.9,1.4,2.4l23.7,13.7c0.8,0.5,1.4,0.1,1.4-0.7c-0.1-1-0.6-1.9-1.4-2.4L219,174.8
				C218.2,174.3,217.6,174.7,217.6,175.5z"/>
			<path class="st18" d="M217.6,175.5c0.1,1,0.6,1.9,1.4,2.4l23.7,13.7c0.8,0.5,1.4,0.1,1.4-0.7c-0.1-1-0.6-1.9-1.4-2.4L219,174.8
				C218.2,174.3,217.6,174.7,217.6,175.5z"/>
			<path class="st2" d="M217.6,215.4c0.1,1,0.6,1.9,1.4,2.4l23.7,13.7c0.8,0.4,1.4,0.1,1.4-0.7c-0.1-1-0.6-1.9-1.4-2.4L219,214.7
				C218.2,214.2,217.6,214.6,217.6,215.4z"/>
			<path class="st18" d="M217.6,215.4c0.1,1,0.6,1.9,1.4,2.4l23.7,13.7c0.8,0.4,1.4,0.1,1.4-0.7c-0.1-1-0.6-1.9-1.4-2.4L219,214.7
				C218.2,214.2,217.6,214.6,217.6,215.4z"/>
			<path class="st2" d="M223,186.6c0.1,1,0.6,1.9,1.4,2.4l18.3,10.6c0.8,0.5,1.4,0.1,1.4-0.7c-0.1-1-0.6-1.9-1.4-2.4l-18.3-10.6
				C223.7,185.4,223,185.8,223,186.6z"/>
			<path class="st18" d="M223,186.6c0.1,1,0.6,1.9,1.4,2.4l18.3,10.6c0.8,0.5,1.4,0.1,1.4-0.7c-0.1-1-0.6-1.9-1.4-2.4l-18.3-10.6
				C223.7,185.4,223,185.8,223,186.6z"/>
			<path class="st2" d="M223,194.6c0.1,1,0.6,1.9,1.4,2.4l18.3,10.6c0.8,0.4,1.4,0.1,1.4-0.7c-0.1-1-0.6-1.9-1.4-2.4l-18.3-10.6
				C223.7,193.4,223,193.8,223,194.6z"/>
			<path class="st18" d="M223,194.6c0.1,1,0.6,1.9,1.4,2.4l18.3,10.6c0.8,0.4,1.4,0.1,1.4-0.7c-0.1-1-0.6-1.9-1.4-2.4l-18.3-10.6
				C223.7,193.4,223,193.8,223,194.6z"/>
			<path class="st2" d="M217.6,199.5c0.1,1,0.6,1.9,1.4,2.4l23.7,13.7c0.8,0.5,1.4,0.1,1.4-0.7c-0.1-1-0.6-1.9-1.4-2.4L219,198.7
				C218.2,198.3,217.6,198.6,217.6,199.5z"/>
			<path class="st18" d="M217.6,199.5c0.1,1,0.6,1.9,1.4,2.4l23.7,13.7c0.8,0.5,1.4,0.1,1.4-0.7c-0.1-1-0.6-1.9-1.4-2.4L219,198.7
				C218.2,198.3,217.6,198.6,217.6,199.5z"/>
			<path class="st2" d="M223,210.6c0.1,1,0.6,1.9,1.4,2.4l18.3,10.5c0.8,0.5,1.4,0.1,1.4-0.7c-0.1-1-0.6-1.9-1.4-2.4l-18.3-10.6
				C223.7,209.4,223,209.7,223,210.6z"/>
			<path class="st18" d="M223,210.6c0.1,1,0.6,1.9,1.4,2.4l18.3,10.5c0.8,0.5,1.4,0.1,1.4-0.7c-0.1-1-0.6-1.9-1.4-2.4l-18.3-10.6
				C223.7,209.4,223,209.7,223,210.6z"/>
			<path class="st2" d="M206.9,225.3c0.1,1,0.6,1.9,1.4,2.4l3.9,2.2c0.8,0.5,1.4,0.1,1.4-0.7c-0.1-1-0.6-1.9-1.4-2.4l-3.9-2.2
				C207.6,224.1,206.9,224.5,206.9,225.3z"/>
			<path class="st15" d="M206.9,225.3c0.1,1,0.6,1.9,1.4,2.4l3.9,2.2c0.8,0.5,1.4,0.1,1.4-0.7c-0.1-1-0.6-1.9-1.4-2.4l-3.9-2.2
				C207.6,224.1,206.9,224.5,206.9,225.3z"/>
			<path class="st2" d="M212.4,220.5c0.1,1,0.6,1.9,1.4,2.4l3.9,2.2c0.8,0.5,1.4,0.1,1.4-0.7c-0.1-1-0.6-1.9-1.4-2.4l-3.9-2.2
				C213,219.3,212.4,219.6,212.4,220.5z"/>
			<path class="st15" d="M212.4,220.5c0.1,1,0.6,1.9,1.4,2.4l3.9,2.2c0.8,0.5,1.4,0.1,1.4-0.7c-0.1-1-0.6-1.9-1.4-2.4l-3.9-2.2
				C213,219.3,212.4,219.6,212.4,220.5z"/>
			<path class="st2" d="M217.6,231.5c0.1,1,0.6,1.9,1.4,2.4l23.7,13.7c0.8,0.5,1.4,0.1,1.4-0.7c-0.1-1-0.6-1.9-1.4-2.4L219,230.8
				C218.2,230.3,217.6,230.6,217.6,231.5z"/>
			<path class="st18" d="M217.6,231.5c0.1,1,0.6,1.9,1.4,2.4l23.7,13.7c0.8,0.5,1.4,0.1,1.4-0.7c-0.1-1-0.6-1.9-1.4-2.4L219,230.8
				C218.2,230.3,217.6,230.6,217.6,231.5z"/>
			<path class="st2" d="M223,226.6c0.1,1,0.6,1.9,1.4,2.4l18.3,10.6c0.8,0.4,1.4,0.1,1.4-0.7c-0.1-1-0.6-1.9-1.4-2.4l-18.3-10.6
				C223.7,225.5,223,225.8,223,226.6z"/>
			<path class="st18" d="M223,226.6c0.1,1,0.6,1.9,1.4,2.4l18.3,10.6c0.8,0.4,1.4,0.1,1.4-0.7c-0.1-1-0.6-1.9-1.4-2.4l-18.3-10.6
				C223.7,225.5,223,225.8,223,226.6z"/>
			<path class="st8" d="M201.6,96.5v48.7c0.1,2,1.2,3.8,2.8,4.9l42.2,24.4c1.6,0.9,2.8,0.2,2.8-1.6v-48.7c-0.1-2-1.2-3.8-2.8-4.9
				l-42.2-24.4C202.9,94,201.6,94.7,201.6,96.5z"/>
			<path class="st2" d="M206.9,143.9c0.1,1,0.6,1.9,1.4,2.4l3.9,2.2c0.8,0.5,1.4,0.1,1.4-0.7c-0.1-1-0.6-1.9-1.4-2.4l-3.9-2.2
				C207.6,142.7,206.9,143,206.9,143.9z"/>
			<path class="st15" d="M206.9,143.9c0.1,1,0.6,1.9,1.4,2.4l3.9,2.2c0.8,0.5,1.4,0.1,1.4-0.7c-0.1-1-0.6-1.9-1.4-2.4l-3.9-2.2
				C207.6,142.7,206.9,143,206.9,143.9z"/>
			<path class="st2" d="M206.9,104c0.1,1,0.6,1.9,1.4,2.4l3.9,2.2c0.8,0.4,1.4,0.1,1.4-0.7c-0.1-1-0.6-1.9-1.4-2.4l-3.9-2.2
				C207.6,102.8,206.9,103.1,206.9,104z"/>
			<path class="st15" d="M206.9,104c0.1,1,0.6,1.9,1.4,2.4l3.9,2.2c0.8,0.4,1.4,0.1,1.4-0.7c-0.1-1-0.6-1.9-1.4-2.4l-3.9-2.2
				C207.6,102.8,206.9,103.1,206.9,104z"/>
			<path class="st2" d="M212.4,115.1c0.1,1,0.6,1.9,1.4,2.4l3.9,2.2c0.8,0.5,1.4,0.1,1.4-0.7c-0.1-1-0.6-1.9-1.4-2.4l-3.9-2.2
				C213,113.9,212.4,114.2,212.4,115.1z"/>
			<path class="st15" d="M212.4,115.1c0.1,1,0.6,1.9,1.4,2.4l3.9,2.2c0.8,0.5,1.4,0.1,1.4-0.7c-0.1-1-0.6-1.9-1.4-2.4l-3.9-2.2
				C213,113.9,212.4,114.2,212.4,115.1z"/>
			<path class="st2" d="M212.4,123.1c0.1,1,0.6,1.9,1.4,2.4l3.9,2.2c0.8,0.4,1.4,0.1,1.4-0.7c-0.1-1-0.6-1.9-1.4-2.4l-3.9-2.2
				C213,121.9,212.4,122.2,212.4,123.1z"/>
			<path class="st15" d="M212.4,123.1c0.1,1,0.6,1.9,1.4,2.4l3.9,2.2c0.8,0.4,1.4,0.1,1.4-0.7c-0.1-1-0.6-1.9-1.4-2.4l-3.9-2.2
				C213,121.9,212.4,122.2,212.4,123.1z"/>
			<path class="st2" d="M206.9,127.9c0.1,1,0.6,1.9,1.4,2.4l3.9,2.2c0.8,0.5,1.4,0.1,1.4-0.7c-0.1-1-0.6-1.9-1.4-2.4l-3.9-2.2
				C207.6,126.7,206.9,127.1,206.9,127.9z"/>
			<path class="st15" d="M206.9,127.9c0.1,1,0.6,1.9,1.4,2.4l3.9,2.2c0.8,0.5,1.4,0.1,1.4-0.7c-0.1-1-0.6-1.9-1.4-2.4l-3.9-2.2
				C207.6,126.7,206.9,127.1,206.9,127.9z"/>
			<path class="st2" d="M212.4,139.1c0.1,1,0.6,1.9,1.4,2.4l3.9,2.2c0.8,0.4,1.4,0.1,1.4-0.7c-0.1-1-0.6-1.9-1.4-2.4l-3.9-2.2
				C213,137.9,212.4,138.2,212.4,139.1z"/>
			<path class="st15" d="M212.4,139.1c0.1,1,0.6,1.9,1.4,2.4l3.9,2.2c0.8,0.4,1.4,0.1,1.4-0.7c-0.1-1-0.6-1.9-1.4-2.4l-3.9-2.2
				C213,137.9,212.4,138.2,212.4,139.1z"/>
			<path class="st2" d="M217.6,110.1c0.1,1,0.6,1.9,1.4,2.4l23.7,13.7c0.8,0.5,1.4,0.1,1.4-0.7c-0.1-1-0.6-1.9-1.4-2.4L219,109.4
				C218.2,108.9,217.6,109.3,217.6,110.1z"/>
			<path class="st18" d="M217.6,110.1c0.1,1,0.6,1.9,1.4,2.4l23.7,13.7c0.8,0.5,1.4,0.1,1.4-0.7c-0.1-1-0.6-1.9-1.4-2.4L219,109.4
				C218.2,108.9,217.6,109.3,217.6,110.1z"/>
			<path class="st2" d="M217.6,150c0.1,1,0.6,1.9,1.4,2.4l23.7,13.7c0.8,0.5,1.4,0.1,1.4-0.7c-0.1-1-0.6-1.9-1.4-2.4L219,149.3
				C218.2,148.9,217.6,149.2,217.6,150z"/>
			<path class="st18" d="M217.6,150c0.1,1,0.6,1.9,1.4,2.4l23.7,13.7c0.8,0.5,1.4,0.1,1.4-0.7c-0.1-1-0.6-1.9-1.4-2.4L219,149.3
				C218.2,148.9,217.6,149.2,217.6,150z"/>
			<path class="st2" d="M223,121.2c0.1,1,0.6,1.9,1.4,2.4l18.3,10.6c0.8,0.5,1.4,0.1,1.4-0.7c-0.1-1-0.6-1.9-1.4-2.4l-18.3-10.6
				C223.7,120.1,223,120.4,223,121.2z"/>
			<path class="st18" d="M223,121.2c0.1,1,0.6,1.9,1.4,2.4l18.3,10.6c0.8,0.5,1.4,0.1,1.4-0.7c-0.1-1-0.6-1.9-1.4-2.4l-18.3-10.6
				C223.7,120.1,223,120.4,223,121.2z"/>
			<path class="st2" d="M223,129.2c0.1,1,0.6,1.9,1.4,2.4l18.3,10.6c0.8,0.5,1.4,0.1,1.4-0.7c-0.1-1-0.6-1.9-1.4-2.4l-18.3-10.6
				C223.7,128,223,128.4,223,129.2z"/>
			<path class="st18" d="M223,129.2c0.1,1,0.6,1.9,1.4,2.4l18.3,10.6c0.8,0.5,1.4,0.1,1.4-0.7c-0.1-1-0.6-1.9-1.4-2.4l-18.3-10.6
				C223.7,128,223,128.4,223,129.2z"/>
			<path class="st2" d="M217.6,134.1c0.1,1,0.6,1.9,1.4,2.4l23.7,13.7c0.8,0.4,1.4,0.1,1.4-0.7c-0.1-1-0.6-1.9-1.4-2.4L219,133.4
				C218.2,132.9,217.6,133.2,217.6,134.1z"/>
			<path class="st18" d="M217.6,134.1c0.1,1,0.6,1.9,1.4,2.4l23.7,13.7c0.8,0.4,1.4,0.1,1.4-0.7c-0.1-1-0.6-1.9-1.4-2.4L219,133.4
				C218.2,132.9,217.6,133.2,217.6,134.1z"/>
			<path class="st2" d="M223,145.2c0.1,1,0.6,1.9,1.4,2.4l18.3,10.6c0.8,0.5,1.4,0.1,1.4-0.7c-0.1-1-0.6-1.9-1.4-2.4l-18.3-10.5
				C223.7,144,223,144.3,223,145.2z"/>
			<path class="st18" d="M223,145.2c0.1,1,0.6,1.9,1.4,2.4l18.3,10.6c0.8,0.5,1.4,0.1,1.4-0.7c-0.1-1-0.6-1.9-1.4-2.4l-18.3-10.5
				C223.7,144,223,144.3,223,145.2z"/>
		</g>
	</g>
</g>
<g id="freepik--window-2--inject-25">
	<g id="freepik--window--inject-25_2_">
		<g id="freepik--window--inject-25_1_">
			<path class="st19" d="M140,110.7v153c0.1,2.8,1.6,5.4,4,7l196,112.8l3.9,2.2l0,0l0.1,0.1c0.4,0.3,0.9,0.4,1.3,0.4
				c0.2,0,0.3,0,0.5-0.1c0.1,0,0.2-0.1,0.4-0.1l0.2-0.1l0.2-0.1c0.9-0.5,1.5-1.4,1.5-2.4v-153c-0.2-2.8-1.6-5.4-4-7l-200-115
				c-0.8-0.6-1.8-0.7-2.7-0.3c-0.1,0.1-0.2,0.1-0.3,0.2l0,0c-0.1,0.1-0.2,0.2-0.3,0.3c-0.1,0-0.1,0.2-0.1,0.2
				c-0.1,0.1-0.1,0.1-0.1,0.2c-0.1,0.2-0.2,0.3-0.2,0.5c0,0.1-0.1,0.2-0.1,0.4c0,0,0,0.1,0,0.1c0,0.1-0.1,0.2-0.1,0.4
				C139.9,110.3,139.9,110.5,140,110.7z"/>
			<path class="st1" d="M142.2,108.8c0.5,0,0.9,0.2,1.3,0.4l200,115c2.1,1.4,3.4,3.7,3.6,6.2v152c0,0,0,0.1,0,0.1v0.9
				c0,0.7-0.4,1.3-0.9,1.6h-0.1l-0.1,0.1c0,0-0.1,0.1-0.1,0.1h-0.1c-0.1,0-0.2,0-0.3,0h-0.1c-0.3,0-0.6-0.1-0.8-0.2l-0.1-0.1l0,0
				l0,0l-3.9-2.2L144.7,269.7c-2.1-1.4-3.4-3.7-3.6-6.2v-153c0-0.1,0-0.3,0-0.4c0,0,0-0.1,0-0.2c0-0.1,0-0.1,0-0.2c0,0,0-0.1,0-0.1
				c0,0,0-0.1,0-0.1c0,0,0-0.1,0-0.1c0-0.1,0.1-0.2,0.1-0.2c0,0,0.1-0.1,0.1-0.1l0,0l0,0l0.1-0.1l0.1-0.1h0.1l0.1-0.1
				C141.8,108.8,142,108.8,142.2,108.8 M142.2,107.8c-0.3,0-0.6,0.1-0.9,0.2c-0.1,0.1-0.2,0.1-0.3,0.2l0,0c-0.1,0.1-0.2,0.2-0.3,0.3
				c-0.1,0-0.1,0.2-0.1,0.2c-0.1,0.1-0.1,0.1-0.1,0.2c-0.1,0.2-0.2,0.3-0.2,0.5c0,0.1-0.1,0.2-0.1,0.4c0,0,0,0.1,0,0.1
				c0,0.1-0.1,0.2-0.1,0.4c0,0.2,0,0.3,0,0.5v153c0.1,2.8,1.6,5.4,4,7l196,112.8l3.9,2.2l0,0l0.1,0.1c0.4,0.2,0.8,0.4,1.3,0.4h0.1
				c0.2,0,0.3,0,0.5-0.1c0.1,0,0.2-0.1,0.4-0.1l0.2-0.1l0.2-0.1c0.9-0.5,1.5-1.4,1.5-2.4v-153c-0.2-2.8-1.6-5.4-4-7l-200-115
				C143.5,108,142.9,107.8,142.2,107.8L142.2,107.8z"/>
			<path class="st2" d="M146.2,105.2c0.9-0.5,2.1-0.4,2.9,0.2l200,115c2.4,1.6,3.8,4.2,4,7v7.7l-5.2,3v-7.8c-0.2-2.8-1.6-5.4-4-7
				l-200-115c-0.8-0.6-1.8-0.7-2.7-0.3C142.1,107.5,145.5,105.6,146.2,105.2z"/>
			<path class="st2" d="M139.9,118.5l208,119.6v-7.8c-0.1-2.8-1.6-5.4-4-7l-200-115c-2.2-1.3-4-0.2-4,2.3V118.5z"/>
			<g class="st12">
				<path class="st4" d="M141.3,107.9c0.9-0.5,4.2-2.4,4.9-2.8c0.9-0.5,2.1-0.4,2.9,0.2l200,115c1.2,0.7,2.2,1.8,2.8,3l-5.1,3
					c-0.7-1.2-1.7-2.3-2.8-3l-200-115C143.2,107.8,142.2,107.6,141.3,107.9z"/>
			</g>
			<path class="st3" d="M348,238.2v-7.8c0-1.4-0.5-2.8-1.2-4l5.1-2.9c0.7,1.2,1.2,2.6,1.2,4v7.8L348,238.2z"/>
			<path class="st9" d="M154.3,120.4c0,1.3,0.5,2.5,1.5,3.2c0.9,0.5,1.5-0.2,1.5-1.5c0-1.3-0.5-2.5-1.5-3.2
				C155,118.4,154.4,119.1,154.3,120.4z"/>
			<path class="st9" d="M148.8,117.2c0,1.3,0.5,2.5,1.5,3.2c0.9,0.5,1.5-0.2,1.5-1.5c0-1.3-0.5-2.5-1.5-3.3
				C149.5,115.2,148.8,115.9,148.8,117.2z"/>
			<path class="st9" d="M143.3,114c0,1.3,0.5,2.5,1.5,3.2c0.9,0.5,1.5-0.2,1.5-1.5c0-1.3-0.6-2.5-1.6-3.2
				C144,112.1,143.3,112.7,143.3,114z"/>
			<path class="st1" d="M346.6,385.7c0.8-0.4,1.4-1.3,1.4-2.2l0,0c0-0.1,0-0.1,0-0.2V238.1l5.2-3l0,144.3c0,0.2,0,0.4,0,0.6
				c-0.2,1.3-1,2.5-2.1,3.1l-4.3,2.5L346.6,385.7L346.6,385.7z"/>
		</g>
		<g id="freepik--Icon--inject-25">
			<path class="st1" d="M323.2,322.4l-34.7-20c-2.6-1.7-4.2-4.5-4.4-7.6v-40.1c-0.2-0.9,0.1-1.8,0.7-2.5c1.1-1.3,3-1.4,4.2-0.3
				l34.7,20c2.6,1.7,4.2,4.5,4.4,7.6v40.1c0.1,1.2-0.4,2.4-1.5,3.1c-0.4,0.2-0.9,0.3-1.3,0.3C324.5,323,323.8,322.8,323.2,322.4z
				 M288.5,252.7c-0.5-0.5-1.3-0.7-2-0.5c-1.1,0.3-1.8,1.4-1.5,2.5v40.1c0.2,2.8,1.6,5.3,3.9,6.8l34.7,20c0.5,0.5,1.2,0.7,1.9,0.5
				c1.1-0.3,1.8-1.4,1.5-2.5v-40.1c-0.2-2.8-1.6-5.3-3.9-6.8L288.5,252.7z"/>
			<path class="st1" d="M292,277.5l2.7,2.9c0.4,0.4,0.6,0.9,0.6,1.5c0,0.7,0.1,1.4,0.2,2.1c0.1,0.5-0.2,1-0.7,1.1l-1.8,0.6
				c0,0,0,0,0,0c-0.4,0.2-0.7,0.6-0.5,1.1l1.7,4.6c0.2,0.5,0.6,0.8,1.2,0.8h2.1c0.5,0,1,0.3,1.3,0.8c0.4,0.7,0.9,1.4,1.4,2.1
				c0.3,0.5,0.4,1,0.4,1.5l-0.4,3.1c0,0.5,0.2,1.1,0.5,1.4l3.1,2.8c0.1,0.1,0.2,0.2,0.3,0.2c0.3,0.1,0.6-0.1,0.6-0.4l0.9-2.4
				c0,0,0-0.1,0-0.1c0.2-0.4,0.7-0.5,1-0.3c0.4,0.2,0.9,0.4,1.3,0.5c0.5,0.2,0.9,0.5,1.2,1l1.8,4.1c0.2,0.4,0.7,0.7,1.2,0.6l2.2-0.3
				c0.1,0,0.1,0,0.2,0c0.4-0.1,0.6-0.6,0.4-1l-1.2-4.1c-0.1-0.5,0.1-1,0.4-1.4c0.2-0.2,0.4-0.4,0.6-0.6c0.3-0.4,0.8-0.5,1.2-0.2
				l2.8,2.1c0.1,0.1,0.2,0.1,0.3,0.2c0.3,0,0.5-0.2,0.6-0.5l0.8-3.1c0.1-0.5,0-1.1-0.4-1.5l-2.7-2.9c-0.4-0.4-0.6-0.9-0.6-1.5
				c0-0.7-0.1-1.4-0.2-2.1c-0.1-0.5,0.2-1,0.7-1.1l1.8-0.6c0,0,0,0,0,0c0.4-0.2,0.7-0.6,0.5-1.1l-1.7-4.6c-0.2-0.5-0.6-0.8-1.2-0.8
				h-2.1c-0.5,0-1-0.3-1.3-0.8c-0.4-0.7-0.9-1.4-1.4-2.1c-0.3-0.5-0.4-1-0.4-1.5l0.4-3.1c0-0.5-0.2-1.1-0.5-1.4l-3.1-2.9
				c-0.1-0.1-0.2-0.2-0.3-0.2c-0.3-0.1-0.6,0.1-0.6,0.4l-0.9,2.4c0,0,0,0.1,0,0.1c-0.2,0.4-0.7,0.5-1,0.3c-0.4-0.2-0.9-0.4-1.3-0.5
				c-0.5-0.2-0.9-0.5-1.2-1l-1.8-4c-0.2-0.5-0.7-0.7-1.2-0.7l-2.2,0.3c-0.1,0-0.1,0-0.2,0c-0.4,0.2-0.6,0.6-0.4,1l1.2,4.1
				c0.1,0.5-0.1,1-0.4,1.4c-0.2,0.2-0.4,0.4-0.6,0.6c0,0,0,0,0,0c-0.3,0.4-0.8,0.5-1.2,0.2l-2.8-2.1c-0.1-0.1-0.2-0.1-0.3-0.2
				c-0.3,0-0.5,0.2-0.6,0.5l-0.8,3.1C291.5,276.5,291.6,277.1,292,277.5z M300,281.6c0.9-3.7,4.3-4.2,7.7-1.2s5.4,8.5,4.5,12.1
				c-0.9,3.7-4.3,4.2-7.7,1.2C301.1,290.8,299.1,285.3,300,281.6z"/>
		</g>
		<g id="freepik--icon--inject-25">
			<path class="st2" d="M259.5,285.6l-34.7-20c-2.6-1.7-4.2-4.5-4.4-7.6v-40.1c-0.2-0.9,0.1-1.8,0.7-2.5c1.1-1.3,3-1.4,4.2-0.4
				l34.7,20c2.6,1.7,4.2,4.5,4.4,7.6l0,40.1c0.1,1.2-0.4,2.4-1.5,3.1c-0.4,0.2-0.9,0.4-1.3,0.4C260.8,286.3,260.1,286,259.5,285.6z
				 M223.2,215.4c-0.3,0-0.6,0.1-0.8,0.2c-0.7,0.5-1.1,1.4-1,2.3V258c0.2,2.8,1.6,5.3,3.9,6.8l34.7,20c0.5,0.5,1.3,0.7,2,0.5
				c1.1-0.3,1.8-1.4,1.5-2.5l0-40.1c-0.2-2.8-1.6-5.3-3.9-6.8l-34.7-20C224.3,215.6,223.7,215.4,223.2,215.4L223.2,215.4z"/>
			<path class="st2" d="M228.5,223.4l27.8,16.1c1.5,1,2.4,2.6,2.5,4.3V258l-9.7-5.6c-0.6-4-2.9-7.5-6.3-9.7c-0.9-0.6-2-0.9-3.1-0.9
				c-1.8,0-3.4,1.2-3.9,3l-9.9-5.7v-14.2C226,223.3,227.1,222.6,228.5,223.4z"/>
			<path class="st2" d="M226,242.7l9.7,5.6c0.6,4,2.9,7.5,6.2,9.7c0.9,0.6,2,0.9,3.1,0.9c1.8,0,3.5-1.2,3.9-3l9.9,5.7l0,14.2
				c0,1.6-1.1,2.2-2.5,1.4l-27.8-16c-1.5-1-2.4-2.6-2.5-4.3V242.7z"/>
			<path class="st2" d="M246.7,252.9c0,2.8-2,3.9-4.4,2.5c-2.6-1.7-4.2-4.5-4.4-7.6c0-2.8,2-3.9,4.4-2.5
				C244.9,247,246.6,249.8,246.7,252.9z"/>
		</g>
		<g id="freepik--icon--inject-25_1_">
			<path class="st1" d="M195.6,248.7l-34.7-20c-2.6-1.7-4.2-4.5-4.4-7.6V181c-0.2-0.9,0.1-1.8,0.7-2.5c1.1-1.3,3-1.4,4.2-0.3
				l34.7,20c2.6,1.7,4.2,4.5,4.4,7.6v40.1c0.1,1.2-0.4,2.4-1.5,3.1c-0.4,0.2-0.9,0.4-1.3,0.4C196.9,249.4,196.2,249.1,195.6,248.7z
				 M160.9,179c-0.5-0.5-1.2-0.7-1.9-0.5c-1.1,0.3-1.8,1.4-1.5,2.5v40.1c0.2,2.8,1.6,5.3,3.9,6.8l34.7,20c0.5,0.5,1.2,0.7,1.9,0.5
				c1.1-0.3,1.8-1.4,1.5-2.5v-40.1c-0.2-2.8-1.6-5.3-3.9-6.8L160.9,179z"/>
			<path class="st1" d="M165.7,194L165.7,194L165.7,194c0.1-0.1,0.4,0,0.6,0.2c3.5,2.5,8.7,2.3,11.2-0.8c0,0,0,0,0-0.1l0,0
				c0.1-0.1,0.2-0.2,0.2-0.2h0l0,0c0.3-0.1,0.6,0,0.8,0.4c2.7,6.1,8.1,12.1,11.7,13.5c0.3,0.1,0.5,0.3,0.7,0.5
				c0.3,0.3,0.4,0.6,0.4,1c0.3,8-3.7,20.9-11.9,25.2c-11.7-11.2-13.8-29.8-14.1-39.1C165.4,194.4,165.5,194.2,165.7,194z"/>
		</g>
		<g id="freepik--Loading--inject-25">
			<path class="st1" d="M276.4,314.5c0,2-1.5,2.7-3.3,1.7l-61.5-35.5c-1.9-1.2-3.1-3.2-3.3-5.5c0-2,1.5-2.7,3.3-1.7l61.5,35.5
				C275,310.2,276.3,312.2,276.4,314.5z"/>
			<path class="st2" d="M254.4,299.3v4.8l19.3,11.1c0.3,0.2,0.6,0.3,1,0.3c0.5,0,0.7-0.4,0.7-1.1c-0.2-1.9-1.2-3.6-2.8-4.6
				L254.4,299.3z"/>
			<path class="st0" d="M224.7,287l29.6,17.1v-4.8l-29.7-17.1l-13.6-7.8c-0.3-0.2-0.6-0.3-1-0.3c-0.5,0-0.7,0.4-0.7,1.1
				c0.2,1.9,1.2,3.6,2.8,4.6L224.7,287z"/>
		</g>
	</g>
</g>
<g id="freepik--Character--inject-25">
	<path class="st20" d="M69.8,312.8c0,3.3,2.5,7.5,5.6,9.3l36,20.8V331c0,0,27.6-12.7,35.1-17.8s8.6-10.8-7.1-19.4l-22-14.7l-42,24.3
		C72.3,305.2,69.8,309.4,69.8,312.8z"/>
	<g id="freepik--character--inject-25">
		<path class="st16" d="M94.2,343.7c0.6,3,1,7.4,1.8,9.6c0.4,0.6,0.7,1.2,1,1.9c0.6,1.1,0.8,2.4,0.7,3.7c-1.2,5.6-2.7,11-4.5,16.4
			c-1.8,4.6-5.6,8.9-7.9,8.5c-0.1,0-0.2,0-0.3,0c-0.8-0.2-1.3-1-1.1-1.8c0.2-1,0.8-3.5,1-4.8c0.9-5.7-0.4-7.4-0.6-12.7
			c-0.3-5-5.5-17.8-5.5-17.8L94.2,343.7z"/>
		<path class="st10" d="M74.6,389.1c-1,1.1,0.7,3.8,0.7,3.8s2,2.8,7.5,1.1c4.5-1.3,8.5-3.9,11.5-7.5c2.2-2.6,3.5-5.9,3.5-9.3
			c-0.2-2.1,0.4-4.3,1.7-6c0.9-1.3,3.3-4.8,3.2-5.8c-0.1-0.6-0.3-1.2-0.6-1.7C102.1,363.7,75.7,388.1,74.6,389.1z"/>
		<path class="st9" d="M96,354c0.3,1,0,2.1-0.8,2.7c-0.8,0.7-1.9,0.9-2.9,0.5c-0.8-0.3-1.3-0.9-2-1.3c-1-0.5-2.1-0.6-3.1-0.4
			c-1.1,0.2-2.1,0.6-3,1c-0.6,0.2-1.2,0.6-1.6,1.1c-0.3,0.6-0.4,1.3-0.3,2c0.2,1.4,0.4,2.9,0.4,4.3c-0.1,1.5-0.3,2.9-0.6,4.4
			c0,0-2.2,10.3-5.4,15.1c-3.1,4.5-3.3,6.9-1.1,8.1s8.3,0.7,14.2-4s6-9.2,6.6-13.1s4.4-6.7,5.7-10.8c-0.3-2.1-2.5-4.6-3.3-5.9
			s-1.8-3.8-2-4c-0.4-0.5-0.7-0.5-0.9-0.5C95.9,353.5,96,353.8,96,354z"/>
		<path class="st19" d="M86.7,390c-5.1,2.6-8.4,3-11.2,1.7c-2.6-1.2-1.4-5.2-0.3-7.5c1-1.9,3.1-5.1,9.5-5.1c3.5-0.2,6.8,1.6,8.6,4.7
			C93.3,383.8,91.8,387.5,86.7,390z"/>
		<path class="st19" d="M92.4,364.5C92.4,364.5,92.4,364.5,92.4,364.5c0.2-0.3,0.1-0.7-0.2-0.8c-1.2-0.6-6.1-1.6-9.6,0.6
			c-0.5,0.8-0.6,1.4-0.2,1.7c3-2.8,8.1-1.7,9.1-1.2c0.2,0.1,0.4,0.1,0.6,0C92.3,364.7,92.4,364.6,92.4,364.5z"/>
		<path class="st19" d="M90.6,368.7c0.2,0.1,0.4,0.1,0.6,0c0.1-0.1,0.2-0.2,0.3-0.3c0,0,0,0,0,0c0.1-0.3,0-0.6-0.3-0.8
			c-3-1.1-6.3-1-9.1,0.4c-0.4,0.5-0.5,1.1-0.4,1.7C84.8,367.2,89.7,368.2,90.6,368.7z"/>
		<path class="st19" d="M88.8,376.5C88.8,376.5,88.8,376.5,88.8,376.5c0.3,0.2,0.7,0,0.9-0.3c0,0,0,0,0,0c0.1-0.3,0-0.6-0.3-0.8
			c-1.2-0.6-5.9-1.6-9.4,0.5c-0.5,0.6-0.8,1.4-0.8,2.3C82.1,374.8,87.8,376,88.8,376.5z"/>
		<path class="st19" d="M90.6,372.3C90.6,372.3,90.6,372.3,90.6,372.3c0.2-0.3,0-0.7-0.2-0.8c-3-1.1-6.3-1-9.1,0.4
			c-0.5,0.5-0.6,1.2-0.5,1.9c3-2.7,8-1.6,9-1.1c0.2,0.1,0.4,0.1,0.6,0C90.4,372.5,90.6,372.4,90.6,372.3z"/>
		<path class="st16" d="M86.2,373c-0.8,2.5-2.4,6.7-2.9,9.3c0,0,0,1.5,0,2c-0.1,1.1,0.2,2-0.7,3s-1.7,2-2.6,2.9
			c-2.5,2.5-6.3,9.2-10.5,12.3s-11.6,2.7-13.4,1c-0.1-0.1-0.2-0.1-0.2-0.2c-0.6-0.6-0.6-1.6,0.1-2.2c0.7-0.8,2.7-2.6,3.5-3.6
			c3.9-4.6,5.4-7.5,8.3-13.5s5.5-21.6,5.5-21.6L86.2,373z"/>
		<path class="st10" d="M47.3,405.8c-1.4,0.6-1,3.9-1,3.9s0.6,3.5,6.6,4.4c4.8,0.8,9.8,0.1,14.2-2c3.3-1.6,6.1-4,7.5-7.3
			c0.8-2.1,2.3-3.9,4.3-4.9c1.4-0.8,5.2-3,5.6-4c0.2-0.6,0.2-1.3,0.2-1.9C84.7,393.9,48.8,405.2,47.3,405.8z"/>
		<path class="st9" d="M83.3,382c-0.1,1.1-0.9,2-2,2.2c-1.1,0.3-2.2,0-3-0.8c-0.5-0.7-0.9-1.4-1.3-2.1c-0.7-0.9-1.7-1.5-2.8-1.8
			c-1.1-0.3-2.2-0.4-3.4-0.4c-0.7-0.1-1.4,0-2,0.3c-0.6,0.4-1,1-1.1,1.7c-0.4,1.5-0.9,2.9-1.5,4.3c-0.8,1.3-1.6,2.6-2.5,3.9
			c0,0-6.7,8.8-11.9,11.8c-4.9,2.9-6.1,5-4.6,7.2s7.5,4.4,15.3,2.6s9.8-6.1,12.1-9.5s7.2-4.4,10.2-7.7c0.7-2.1-0.3-5.5-0.5-7.1
			s0-4.4-0.1-4.7c-0.2-0.7-0.5-0.8-0.6-0.8C83.4,381.6,83.4,381.8,83.3,382z"/>
		<path class="st19" d="M58.3,412c-6,0.1-9.2-0.9-11.4-3.4c-1.9-2.3,1-5.6,3.1-7.2c1.8-1.4,5.2-3.4,11.2-0.6
			c3.4,1.4,5.7,4.6,6.1,8.3C67.4,409,64.3,411.8,58.3,412z"/>
		<path class="st19" d="M75.2,390.4C75.2,390.4,75.2,390.4,75.2,390.4c0.3-0.2,0.4-0.6,0.1-0.9c-0.9-1.1-5-4.2-9.4-3.7
			c-0.8,0.5-1.2,1-0.9,1.5c4.1-1.3,8.5,2,9.2,2.9c0.1,0.2,0.3,0.3,0.5,0.3C74.9,390.5,75.1,390.5,75.2,390.4z"/>
		<path class="st19" d="M71.6,393.5c0.1,0.2,0.3,0.3,0.5,0.3c0.1,0,0.3,0,0.4-0.1c0,0,0,0,0,0c0.3-0.2,0.3-0.6,0.1-0.9
			c-2.3-2.4-5.5-3.7-8.8-3.7c-0.6,0.3-1,0.8-1.1,1.5C66.8,389.5,70.9,392.7,71.6,393.5z"/>
		<path class="st19" d="M66.4,400.1c0.1,0.2,0.3,0.3,0.5,0.3c0.1,0,0.3,0,0.4-0.1c0,0,0,0,0,0c0.3-0.2,0.3-0.6,0.1-0.9
			c-0.8-1.1-4.9-4.1-9.2-3.7c-0.8,0.4-1.4,1-1.8,1.8C60.8,395.5,65.7,399.1,66.4,400.1z"/>
		<path class="st19" d="M70,396.9C70,396.9,70,396.9,70,396.9c0.3-0.2,0.4-0.6,0.1-0.9c-2.3-2.4-5.5-3.7-8.8-3.7
			c-0.7,0.3-1.1,0.8-1.3,1.5c4-1.1,8.3,2.1,9,3c0.1,0.2,0.3,0.3,0.5,0.3C69.7,397.1,69.9,397,70,396.9z"/>
		<path class="st2" d="M113.4,307.2l-35.2,44.7c0,0-1.8,3.4-2.8,1.6c0,0-7.4-32-8.3-41.4c-0.6-6.9,0.2-10.1,2.8-12.5
			c9-8.4,31.2-21.2,37.6-25.9L113.4,307.2z"/>
		<path class="st6" d="M113.4,307.2l-35.2,44.7c0,0-1.8,3.4-2.8,1.6c0,0-7.4-32-8.3-41.4c-0.6-6.9,0.2-10.1,2.8-12.5
			c9-8.4,31.2-21.2,37.6-25.9L113.4,307.2z"/>
		<path class="st6" d="M80.3,319.2c0.6-3,2.3-5.6,4.8-7.3c8.1-6.4,19.8-16.1,21.9-17.9c-1.1-2.2-2.6-8.3-1.2-12.4
			c0,0,1.9,10.5,5.4,13.5l0,0c0,0-26.3,41.5-34.5,48.3C76.7,341.7,78.6,328,80.3,319.2z"/>
		<path class="st2" d="M110.3,294.9c0,0-19.1,14.5-23.4,18.3c-5,4.4-5,6.6-5.9,10.6c-1.6,7.2-9.4,47.3-9.4,47.3
			c5.7,5,14.2,4.1,14.2,4.1s1.1-2.5,6.6-14.2C98,349,98,344.5,99,338.9c0.9-5.4,1.9-9.6,4-10.6c2.8-1.3,16.6-7.1,28-12.7
			c11.8-5.8,14.4-10.5,16.7-14.9s3-8.7,5.2-17l-45.3-10l0,0C102.6,284.7,110.3,294.9,110.3,294.9z"/>
		<path class="st6" d="M110.3,294.9c0,0-19.1,14.5-23.4,18.3c-5,4.4-5,6.6-5.9,10.6c-1.6,7.2-9.4,47.3-9.4,47.3
			c5.7,5,14.2,4.1,14.2,4.1s1.1-2.5,6.6-14.2C98,349,98,344.5,99,338.9c0.9-5.4,1.9-9.6,4-10.6c2.8-1.3,16.6-7.1,28-12.7
			c11.8-5.8,14.4-10.5,16.7-14.9s3-8.7,5.2-17l-45.3-10l0,0C102.6,284.7,110.3,294.9,110.3,294.9z"/>
		<path class="st16" d="M90.5,269c3.4-1.2,13.1-5.7,16.8-7.6c2.8-1.4,4.5-2.2,4.5-2.2s-1.8-14.9-4.4-23.5
			c-1.4-15.4,13.5-13.8,13.5-13.8s2.9,27.2,4.9,37c1.3,6.2,0.8,8.8-4.8,11c-6.2,2.4-15.4,5.4-24,7.9"/>
		<path class="st8" d="M117.7,251.2l-6.5,3.9c0,0-1.5-5.7-3-11.9s-1.8-10.4-1.4-13.4s2.1-6,5-7.3c1.8-0.8,3.8-1.3,5.8-1.4
			L117.7,251.2z"/>
		<path class="st2" d="M140.5,221.3l-8.2-1l-14.5,0.9c-4.5,0.7-5.9,7.7-6.2,16.7c-0.2,4.6-0.4,19.4-0.2,27.1
			c-0.9,3.3-2.4,6.3-4.4,9.1c4,10.2,28.1,22.1,43.4,20.3c8.5-28,4.5-65.1,3.8-69.1L140.5,221.3z"/>
		<path class="st21" d="M140.5,221.3l-8.2-1l-14.5,0.9c-4.5,0.7-5.9,7.7-6.2,16.7c-0.2,4.6-0.4,19.4-0.2,27.1
			c-0.9,3.3-2.4,6.3-4.4,9.1c4,10.2,28.1,22.1,43.4,20.3c8.5-28,4.5-65.1,3.8-69.1L140.5,221.3z"/>
		<path class="st10" d="M132.6,189.1c0,0-0.5,1.5,0.6,6.1c1.7,7.2,6.2,5.5,6.2,5.5l0.2,5l0.4,7.2c1.1-0.4,2-1.3,2.5-2.4
			c1.4-3.8,2.3-7.7,2.8-11.8c1-6.2,1.5-10.9,0.2-13.2c-1.2-2.1-3.3-3.4-5.7-3.6L132.6,189.1z"/>
		<path class="st10" d="M144,178.4c1,1,1,2.6,0,3.6c-1.1,1-2.7,1-3.8,0L144,178.4C144,178.3,144,178.3,144,178.4z"/>
		<path class="st10" d="M120.4,177.9C120.3,177.9,120.3,177.9,120.4,177.9c-7.5,0.6-13,7.1-12.4,14.6c0.6,7.4,7.1,13,14.6,12.4
			c7.4-0.6,13-7.1,12.4-14.6C134.3,182.9,127.8,177.3,120.4,177.9z"/>
		<path class="st16" d="M132.6,189c-8.2-4.3-17.6-5.5-21.1-2.3c-2.1,9.1-1.8,18.8,1,26.1c1.4,3.7,3.5,5.4,5.9,5.7
			c2.4,0.2,4.7-0.1,7-0.7l0.4,4.9c-4.1,5,3.3,7.3,8,5.1c6-2.7,6.8-5.9,6.8-5.9l-1-16.4c0,0,2,3.5,5.5,1.5c2.4-1.4,4.6-6.8,2-9.8
			c-0.1-0.2-0.3-0.4-0.5-0.5c-1.7-1.7-4.4-1.7-6.1,0c-0.9,1.1-1.4,3.6-2.8,3.3C136,199.9,133.7,199.1,132.6,189z"/>
		<path class="st10" d="M107.9,178.1c-0.4,1.1-0.5,2.2-0.2,3.3c0.5,1.7,1.3,3.3,2.4,4.8c5.8,7.4,18.2,4.5,22.5,2.8
			c2.6-1.4,5-3.1,7.3-5c1.6-1.4,1.3-3.2,0.3-5c-2.2-3.8-7.2-5.1-11.3-4.8c-4.9,0.2-10,2.4-14.4-1c-0.5-0.4-1-0.8-1.6-0.7
			c-1,0.3-1.1,2.2-1.1,3c-0.1,1.3,0,2.7,0.4,4c-1.1-0.5-2.1-1.1-3.1-1.7c-0.1-0.1-0.3-0.2-0.5-0.2
			C108.2,177.7,108,177.9,107.9,178.1C107.9,178.1,107.9,178.1,107.9,178.1z"/>
		<path class="st17" d="M125.6,220c0,0,6.6-1.8,9.4-5.3c1.1-1.6,1.9-3.4,2.3-5.3c-0.8,1.7-2,3.3-3.5,4.4c-2.3,1.8-8.3,3.9-8.3,3.9
			L125.6,220z"/>
		<path class="st10" d="M125.5,198.4c0.8-0.1,1.5,0.5,1.6,1.3c0.1,0.8-0.5,1.6-1.3,1.7c-0.8,0.1-1.6-0.5-1.7-1.3
			C124.1,199.2,124.7,198.5,125.5,198.4z"/>
		<path class="st17" d="M122.4,210.4c-0.1-0.8,0.5-1.6,1.4-1.7c0.8-0.1,1.5,0.5,1.6,1.3c0.1,0.8-0.5,1.6-1.3,1.7
			C123.3,211.8,122.5,211.2,122.4,210.4C122.4,210.4,122.4,210.4,122.4,210.4z"/>
		<path class="st10" d="M125.3,194.7c0.4-0.9,1.4-1.3,2.3-1c0.9,0.4,1.4,1.5,1,2.4l-3.4-1.4C125.3,194.8,125.3,194.8,125.3,194.7z"
			/>
		<path class="st10" d="M112.7,193.8C112.7,193.8,112.8,193.7,112.7,193.8c1-0.3,2,0.2,2.3,1.1l-3.4,1.3
			C111.3,195.2,111.8,194.1,112.7,193.8z"/>
		<path class="st10" d="M114.3,198.3c0.8-0.1,1.5,0.5,1.6,1.3c0.1,0.8-0.5,1.6-1.3,1.7c-0.8,0.1-1.6-0.5-1.7-1.3
			C112.8,199.2,113.4,198.4,114.3,198.3z"/>
		<polygon class="st17" points="119.9,196.8 115.5,205.4 120.5,206.6 		"/>
		<g id="freepik--laptop--inject-25">
			<path class="st3" d="M104.9,322.3l28.6-16.5c0.1,0,0.1-0.1,0.1-0.1c0.1-0.2,0-0.4-0.1-0.5l-39.4-22.7
				c-8.6,5.5-18.8,12.2-24.2,17.2c-0.5,0.5-1,1.1-1.4,1.7L104.9,322.3z"/>
			<path class="st8" d="M104.9,317.6l27.4-15.8c0.1-0.1,0.2-0.2,0.2-0.3l0,0v0.9c0,0.9-0.5,1.8-1.3,2.3l-25,14.4
				c-0.4,0.2-0.8,0.4-1.3,0.4c-0.5,0-0.9-0.1-1.3-0.3l-45.8-26.4c-0.8-0.5-1.3-1.3-1.3-2.3v-0.6L104.9,317.6z"/>
			<path class="st10" d="M56.6,289.7v0.6c0,0.9,0.5,1.8,1.3,2.3l45.8,26.4c0.4,0.2,0.9,0.3,1.3,0.3v-1.7L56.6,289.7z"/>
			<path class="st9" d="M105,317.6l27.4-15.8c0,0,0.1-0.1,0.1-0.1c0.1-0.2,0-0.4-0.1-0.5L85.2,274c-0.5-0.3-1.1-0.3-1.6,0
				l-27.1,15.7L105,317.6z"/>
			<path class="st16" d="M97.2,277.7c-1.8,0.6-3.6,1.4-5.2,2.5c-1.9,1.5-4.1,2.4-6.5,2.6c-0.8,1.1-1.7,2.2-2.6,3.2
				c-2.1,2-4.9,4.4-8,4c-3.4-0.4-3-4-2.4-5.7s5.6-8.6,6.4-9.7s6.1-3.7,8.6-4.6l3-1.1"/>
			<polygon class="st8" points="62.3,290.5 77,282.1 119.8,306.9 105.2,315.3 			"/>
			<polygon class="st10" points="77,282.1 119.8,306.9 119.3,307.2 77,282.8 62.9,290.9 62.3,290.5 			"/>
			<polygon class="st10" points="99.4,284.3 91.9,288.6 92.2,288.7 104.9,296.1 112.1,292 112.4,291.8 			"/>
			<polygon class="st8" points="99.4,284.6 92.2,288.7 104.9,296.1 112.1,292 			"/>
			<path class="st8" d="M98.8,285.8c-0.1-0.7-0.5-1.3-1.1-1.6l-47.4-27.3c-0.6,0.6-0.9,1.4-0.9,2.2c0,0.2,0,0.3,0,0.5l5,29.8
				c0.1,0.9,0.7,1.7,1.5,2.2l45.6,26.3c0.8,0.5,1.8,0.5,2.7,0.2L98.8,285.8z"/>
			<path class="st9" d="M99.6,285.4c-0.1-0.7-0.5-1.3-1.1-1.6L51,256.4c-0.2,0.1-0.5,0.3-0.6,0.5l47.3,27.3c0.6,0.3,1,0.9,1.1,1.6
				l5.4,32.2c0.1-0.1,0.3-0.1,0.4-0.2l0.3-0.2L99.6,285.4z"/>
			<path class="st10" d="M98.8,285.8l5.4,32.2c0.1-0.1,0.3-0.1,0.4-0.2l0.3-0.2l-5.4-32.2c-0.1-0.4-0.2-0.7-0.4-1l-0.7,0.4
				C98.6,285.1,98.7,285.4,98.8,285.8z"/>
			<path class="st2" d="M75.2,291.8c-2.2-1.3-4.3-3.9-4.6-5.9s1.2-2.6,3.4-1.3s4.2,3.9,4.6,5.9C78.9,292.5,77.4,293.1,75.2,291.8z"
				/>
		</g>
		<path class="st16" d="M134.8,292.8c-2.2,1.7-4.7,3-7.4,3.9c-0.8,1.1-1.7,2.2-2.6,3.2c-2.1,2-4.9,4.4-8,4c-3.4-0.4-3-4-2.4-5.7
			s5.6-8.6,6.4-9.7s6.1-3.7,8.6-4.6c3.8-1.4,27.4-10.8,27.4-10.8l-4.4-25.4c0,0-4.4-17.3,0-22.4c7.4,1.9,11.9,4.2,13.7,11.9
			c1.7,7.2,5.1,23.9,6.8,35.5c0.9,6.3,1.4,10.5-4.6,12.3C161.9,287,134.8,292.8,134.8,292.8z"/>
		<path class="st8" d="M148.4,241.2c0.8,2.7,1.7,5.4,2.9,8l3.8,16.6c5.8,1.2,11.8-0.1,16.4-3.7c0,0-2.7-13.1-3.8-18.6
			c-1.5-7.7-2.4-10.8-6.3-15.1c-3.1-3.3-9.5-3.8-9.5-3.8C148.9,227.3,146.6,233.7,148.4,241.2z"/>
	</g>
</g>
<g id="freepik--speech-bubble--inject-25_2_">
	<g id="freepik--speech-bubble--inject-25_1_">
		<g id="freepik--speech-bubble--inject-25">
			<path class="st2" d="M72.9,239.2L72.9,239.2c0.1,0,0.2-0.1,0.2-0.2l3.1-5.4v-4.2l-7.3-4.2v4.2l2.4,6.9l-2.9,5.6L72.9,239.2z"/>
			<path class="st7" d="M72.9,239.2L72.9,239.2c0.1,0,0.2-0.1,0.2-0.2l3.1-5.4v-4.2l-7.3-4.2v4.2l2.4,6.9l-2.9,5.6L72.9,239.2z"/>
			<path class="st2" d="M51.1,221.7c0.1,1.5,0.9,2.9,2.2,3.8l11.2,6.5l3.3,9.5c0,0.1,0.1,0.2,0.2,0.3c0.2,0.1,0.5,0,0.6-0.2l3.1-5.4
				l8.8,5.1c1.4,0.7,3,0.7,4.4,0l0.9-0.5c1.3-0.8,2.1-2.2,2.2-3.8v-30c-0.1-1.5-0.9-2.9-2.2-3.7l-27.2-15.7c-1.4-0.7-3-0.7-4.4,0
				l-0.9,0.5c-1.3,0.8-2.1,2.2-2.2,3.8L51.1,221.7z"/>
			<path class="st7" d="M87.9,207c0-0.8-0.2-1.5-0.6-2.1l-5.2,3c0.4,0.7,0.6,1.4,0.6,2.1v30c0,1.2-0.8,1.8-1.8,1.4
				c1.3,0.5,2.8,0.5,4-0.2l0.9-0.5c1.3-0.8,2.1-2.2,2.2-3.8L87.9,207z"/>
			<path class="st22" d="M53.2,188l0.9-0.5c1.4-0.7,3-0.7,4.4,0l27.2,15.8c0.6,0.4,1.2,1,1.5,1.6l-5.2,3c-0.4-0.7-0.9-1.2-1.5-1.6
				l-27.2-15.8c-1-0.6-1.9-0.3-2.1,0.6C51.4,189.9,52.1,188.7,53.2,188z"/>
		</g>
		<path class="st19" d="M60.5,205.2l-3.2-0.7c0.1,0.2,0.2,0.3,0.2,0.5c0.6,1.4,1.8,2.5,3.2,3c0.4,0.1,0.8,0.5,1,0.9l1.5,2.8l0.9,1.7
			l2.2-1.5l-1.2-2.2l-1.6-3.1c-0.2-0.4-0.3-0.8-0.3-1.2c0-1.7-0.4-3.3-1.4-4.7c-1.1-1.9-2.8-2.8-4-2.3c-0.8,0.4-1.3,1.2-1.3,2.1
			l3.1,0.7l1.1,2.2L60.5,205.2z"/>
		<path class="st19" d="M67.5,219.5l0.8,1.5l1.8,3.5c0.2,0.4,0.3,0.8,0.3,1.2c0,1.7,0.4,3.3,1.3,4.7c1.2,1.9,2.8,2.8,4,2.3
			c0.8-0.4,1.3-1.2,1.3-2.1l-3.1-0.7l-1.1-2.2l0.4-1.8l3.1,0.7c-0.1-0.2-0.1-0.3-0.2-0.5c-0.6-1.4-1.8-2.5-3.3-3
			c-0.4-0.1-0.8-0.5-1-0.9l-1.5-2.8l-0.8-1.6L67.5,219.5z"/>
		<path class="st19" d="M57.1,221.1l1.5,2.9c0.2,0.4,0.5,0.6,0.7,0.4l13.8-11.1l0.1,0.2c0.1,0.2,0.2,0.2,0.3,0.2l0.2-0.2l0,0
			c0,0,0.6-0.2,1.3,0.8c0.5,0.6,0.8,1.4,1,2.2l0,0c-0.1,0.1-0.1,0.2,0,0.4l0.1,0.2l0.4,0.9l0,0l0,0c0.1,0.3,0.4,0.4,0.5,0.3l1.6-1.2
			l0,0l0,0c0.1-0.1,0.1-0.4,0-0.6v-0.1l-0.5-0.9l0,0l-0.1-0.2l0,0c-0.1-0.2-0.1-0.2-0.3-0.2s-0.3,0-0.8-0.9s-0.9-2.2-0.5-2.5
			l-0.1-0.2l0,0l-0.1-0.2l-0.1-0.3l0,0l-1.8-3.4c-1.3-2.5-3.5-3.8-4.8-2.8l-0.4,0.3c-0.2,0.1-0.2,0.5,0,0.8l0.2-0.2
			c0.9-0.7,2.3,0.2,3.2,1.9c0.2,0.4,0.2,0.8,0,1l-1.3,1c-0.1,0.1-0.1,0.2,0,0.4l-14.2,10.1C56.9,220.3,56.9,220.7,57.1,221.1z"/>
	</g>
</g>
</svg>
