<?xml version="1.0" encoding="utf-8"?>
<!-- Generator: Adobe Illustrator 24.0.0, SVG Export Plug-In . SVG Version: 6.00 Build 0)  -->
<svg version="1.1" id="Layer_1" xmlns="http://www.w3.org/2000/svg" xmlns:xlink="http://www.w3.org/1999/xlink" x="0px" y="0px"
	 viewBox="0 0 290.6 290.6" style="enable-background:new 0 0 290.6 290.6;" xml:space="preserve">
<style type="text/css">
	.st0{fill:#10AA50;}
	.st1{fill:#B8C4C2;}
	.st2{fill:#12924F;}
</style>
<path class="st0" d="M208.2,115.6c-15.3-67.5-47.2-85.5-55.4-98.2c-3.4-5.6-6.3-11.4-8.9-17.4c-0.4,6-1.2,9.8-6.3,14.3
	c-10.2,9.1-53.7,44.6-57.4,121.3c-3.4,71.6,52.6,115.7,60,120.2c5.7,2.8,12.6,0.1,16-2.5C183.2,234.8,220.1,185.4,208.2,115.6"/>
<path class="st1" d="M146.3,217.8c-1.4,17.7-2.4,28-6,38.1c0,0,2.4,16.9,4,34.7h5.8c1.4-12.6,3.5-25.1,6.4-37.4
	C148.9,249.5,146.6,233.3,146.3,217.8z"/>
<path class="st2" d="M156.5,253.2L156.5,253.2c-7.6-3.5-9.8-20.1-10.2-35.5c1.9-25.4,2.4-50.9,1.7-76.4
	c-0.4-13.4,0.2-123.7-3.3-139.9c2.4,5.5,5.1,10.8,8.2,15.9c8.1,12.7,40.1,30.7,55.4,98.2C220.1,185.3,183.4,234.6,156.5,253.2z"/>
</svg>
