<?xml version="1.0" encoding="utf-8"?>
<svg version="1.1" id="Layer_1" xmlns="http://www.w3.org/2000/svg" xmlns:xlink="http://www.w3.org/1999/xlink" x="0px" y="0px"
	 viewBox="0 0 62.4 62.4" style="enable-background:new 0 0 62.4 62.4;" xml:space="preserve">
<style type="text/css">
	.st0{fill:#FFFFFF;}
</style>
<path class="st0" d="M6.1,59.1C5,60.5,3,60.7,1.6,59.6S0,56.5,1.1,55.1c1.1-1.4,3.1-1.6,4.5-0.5C7,55.7,7.2,57.7,6.1,59.1
	C6.1,59.1,6.1,59.1,6.1,59.1z M57.1,47.9c-9.3,12.4-29.1,8.2-41.8,8.8c0,0-2.2,0.1-4.5,0.5c0,0,0.9-0.4,2-0.7
	c8.9-3.1,13.1-3.7,18.6-6.5c10.2-5.2,20.3-16.6,22.4-28.4C49.8,32.9,38,42.7,27.3,46.7C20,49.4,6.7,52,6.7,52l-0.5-0.3
	c-9-4.4-9.3-24,7.1-30.3c7.2-2.8,14.1-1.2,21.8-3.1c8.3-2,17.9-8.2,21.8-16.3C61.3,15,66.5,35.3,57.1,47.9L57.1,47.9z"/>
</svg>
